<svg xmlns="http://www.w3.org/2000/svg" xmlns:xlink="http://www.w3.org/1999/xlink" width="1080" zoomAndPan="magnify" viewBox="0 0 810 1012.49997" height="1350" preserveAspectRatio="xMidYMid meet" version="1.0"><defs><clipPath id="86ed1235d9"><path d="M 0.199219 0 L 809.800781 0 L 809.800781 1012 L 0.199219 1012 Z M 0.199219 0 " clip-rule="nonzero"/></clipPath><clipPath id="0a1e2a00b9"><path d="M 62.367188 390.3125 L 747.527344 390.3125 L 747.527344 712.355469 L 62.367188 712.355469 Z M 62.367188 390.3125 " clip-rule="nonzero"/></clipPath></defs><g clip-path="url(#86ed1235d9)"><path fill="#ffffff" d="M 0.199219 0 L 809.800781 0 L 809.800781 1012 L 0.199219 1012 Z M 0.199219 0 " fill-opacity="1" fill-rule="nonzero"/><path fill="#ffffff" d="M 0.199219 0 L 809.800781 0 L 809.800781 1012 L 0.199219 1012 Z M 0.199219 0 " fill-opacity="1" fill-rule="nonzero"/></g><g clip-path="url(#0a1e2a00b9)"><path fill="#000000" d="M 685.457031 587.683594 C 685.457031 586.875 685.8125 586.609375 686.160156 586.351562 C 686.308594 586.242188 686.460938 586.121094 686.597656 585.957031 L 686.703125 585.832031 L 686.8125 585.953125 C 686.957031 586.121094 687.113281 586.242188 687.265625 586.351562 C 687.609375 586.601562 687.960938 586.863281 687.960938 587.683594 L 687.960938 591.925781 L 685.457031 591.925781 Z M 697.511719 586.351562 C 697.851562 586.601562 698.207031 586.863281 698.207031 587.683594 L 698.207031 591.925781 L 695.695312 591.925781 L 695.695312 587.683594 C 695.695312 586.875 696.054688 586.609375 696.402344 586.351562 C 696.554688 586.242188 696.707031 586.121094 696.84375 585.957031 L 696.949219 585.832031 L 697.058594 585.953125 C 697.203125 586.121094 697.359375 586.242188 697.511719 586.351562 Z M 690.578125 587.683594 C 690.578125 586.875 690.933594 586.609375 691.277344 586.351562 C 691.429688 586.242188 691.585938 586.121094 691.722656 585.957031 L 691.824219 585.832031 L 691.933594 585.953125 C 692.082031 586.121094 692.234375 586.242188 692.386719 586.351562 C 692.726562 586.601562 693.082031 586.863281 693.082031 587.683594 L 693.082031 591.925781 L 690.578125 591.925781 Z M 677.570312 702.976562 L 663.410156 702.976562 L 663.410156 686.726562 C 663.410156 684.878906 664.246094 683.222656 665.570312 682.132812 C 665.09375 681.300781 664.816406 680.339844 664.816406 679.308594 C 664.816406 676.175781 667.359375 673.636719 670.484375 673.636719 C 673.625 673.636719 676.160156 676.175781 676.160156 679.308594 C 676.160156 680.339844 675.886719 681.300781 675.40625 682.132812 C 676.722656 683.222656 677.570312 684.878906 677.570312 686.726562 Z M 650.402344 702.976562 L 636.242188 702.976562 L 636.242188 686.726562 C 636.242188 684.878906 637.085938 683.222656 638.402344 682.132812 C 637.925781 681.300781 637.648438 680.339844 637.648438 679.308594 C 637.648438 676.175781 640.191406 673.636719 643.324219 673.636719 C 646.457031 673.636719 648.992188 676.175781 648.992188 679.308594 C 648.992188 680.339844 648.71875 681.300781 648.238281 682.132812 C 649.5625 683.222656 650.402344 684.878906 650.402344 686.726562 Z M 623.238281 702.976562 L 609.074219 702.976562 L 609.074219 686.726562 C 609.074219 684.878906 609.917969 683.222656 611.242188 682.132812 C 610.761719 681.300781 610.488281 680.339844 610.488281 679.308594 C 610.488281 676.175781 613.023438 673.636719 616.15625 673.636719 C 619.289062 673.636719 621.824219 676.175781 621.824219 679.308594 C 621.824219 680.339844 621.550781 681.300781 621.078125 682.132812 C 622.394531 683.222656 623.238281 684.878906 623.238281 686.726562 Z M 585.253906 495.710938 C 585.253906 494.59375 585.675781 494.226562 586.082031 493.871094 C 586.253906 493.71875 586.4375 493.558594 586.59375 493.328125 L 586.714844 493.160156 L 586.839844 493.324219 C 587.015625 493.558594 587.195312 493.71875 587.371094 493.871094 C 587.773438 494.21875 588.183594 494.582031 588.183594 495.710938 L 588.183594 501.5625 L 585.253906 501.5625 Z M 599.355469 493.871094 C 599.753906 494.21875 600.164062 494.582031 600.164062 495.710938 L 600.164062 501.5625 L 597.234375 501.5625 L 597.234375 495.710938 C 597.234375 494.59375 597.65625 494.226562 598.054688 493.871094 C 598.234375 493.71875 598.414062 493.558594 598.574219 493.328125 L 598.695312 493.160156 L 598.820312 493.324219 C 598.996094 493.558594 599.175781 493.71875 599.355469 493.871094 Z M 591.246094 495.710938 C 591.246094 494.59375 591.664062 494.226562 592.066406 493.871094 C 592.242188 493.71875 592.429688 493.558594 592.585938 493.328125 L 592.707031 493.160156 L 592.828125 493.324219 C 593.003906 493.558594 593.1875 493.71875 593.363281 493.871094 C 593.761719 494.21875 594.175781 494.582031 594.175781 495.710938 L 594.175781 501.5625 L 591.246094 501.5625 Z M 574.785156 702.828125 L 540.875 702.828125 L 540.875 675.4375 L 542.558594 675.4375 L 542.558594 670.171875 C 542.558594 662.457031 553.605469 664.144531 557.832031 658.160156 C 562.074219 664.273438 573.101562 662.457031 573.101562 670.171875 L 573.101562 675.4375 L 574.785156 675.4375 Z M 531.128906 702.828125 L 497.21875 702.828125 L 497.21875 675.4375 L 498.902344 675.4375 L 498.902344 670.171875 C 498.902344 662.457031 509.945312 664.144531 514.171875 658.160156 C 518.417969 664.273438 529.445312 662.457031 529.445312 670.171875 L 529.445312 675.4375 L 531.128906 675.4375 Z M 487.472656 702.828125 L 453.5625 702.828125 L 453.5625 675.4375 L 455.246094 675.4375 L 455.246094 670.171875 C 455.246094 662.457031 466.296875 664.144531 470.515625 658.160156 C 474.757812 664.273438 485.785156 662.457031 485.785156 670.171875 L 485.785156 675.4375 L 487.472656 675.4375 Z M 443.8125 702.828125 L 409.90625 702.828125 L 409.90625 675.4375 L 411.589844 675.4375 L 411.589844 670.171875 C 411.589844 662.457031 422.640625 664.144531 426.859375 658.160156 C 431.101562 664.273438 442.128906 662.457031 442.128906 670.171875 L 442.128906 675.4375 L 443.8125 675.4375 Z M 400.164062 702.828125 L 366.25 702.828125 L 366.25 675.4375 L 367.933594 675.4375 L 367.933594 670.171875 C 367.933594 662.457031 378.980469 664.144531 383.203125 658.160156 C 387.445312 664.273438 398.472656 662.457031 398.472656 670.171875 L 398.472656 675.4375 L 400.164062 675.4375 Z M 356.503906 702.828125 L 322.589844 702.828125 L 322.589844 675.4375 L 324.28125 675.4375 L 324.28125 670.171875 C 324.28125 662.457031 335.324219 664.144531 339.546875 658.160156 C 343.789062 664.273438 354.816406 662.457031 354.816406 670.171875 L 354.816406 675.4375 L 356.503906 675.4375 Z M 312.847656 702.828125 L 278.933594 702.828125 L 278.933594 675.4375 L 280.617188 675.4375 L 280.617188 670.171875 C 280.617188 662.457031 291.667969 664.144531 295.894531 658.160156 C 300.132812 664.273438 311.164062 662.457031 311.164062 670.171875 L 311.164062 675.4375 L 312.847656 675.4375 Z M 269.191406 702.828125 L 235.277344 702.828125 L 235.277344 675.4375 L 236.960938 675.4375 L 236.960938 670.171875 C 236.960938 662.457031 248.011719 664.144531 252.230469 658.160156 C 256.472656 664.273438 267.507812 662.457031 267.507812 670.171875 L 267.507812 675.4375 L 269.191406 675.4375 Z M 200.96875 702.976562 L 186.808594 702.976562 L 186.808594 686.726562 C 186.808594 684.878906 187.652344 683.222656 188.972656 682.132812 C 188.492188 681.300781 188.21875 680.339844 188.21875 679.308594 C 188.21875 676.175781 190.757812 673.636719 193.890625 673.636719 C 197.023438 673.636719 199.566406 676.175781 199.566406 679.308594 C 199.566406 680.339844 199.285156 681.300781 198.808594 682.132812 C 200.128906 683.222656 200.96875 684.878906 200.96875 686.726562 Z M 173.808594 702.976562 L 159.648438 702.976562 L 159.648438 686.726562 C 159.648438 684.878906 160.484375 683.222656 161.808594 682.132812 C 161.332031 681.300781 161.050781 680.339844 161.050781 679.308594 C 161.050781 676.175781 163.59375 673.636719 166.722656 673.636719 C 169.855469 673.636719 172.398438 676.175781 172.398438 679.308594 C 172.398438 680.339844 172.117188 681.300781 171.644531 682.132812 C 172.964844 683.222656 173.808594 684.878906 173.808594 686.726562 Z M 146.640625 702.976562 L 132.480469 702.976562 L 132.480469 686.726562 C 132.480469 684.878906 133.320312 683.222656 134.644531 682.132812 C 134.164062 681.300781 133.890625 680.339844 133.890625 679.308594 C 133.890625 676.175781 136.425781 673.636719 139.558594 673.636719 C 142.691406 673.636719 145.230469 676.175781 145.230469 679.308594 C 145.230469 680.339844 144.957031 681.300781 144.476562 682.132812 C 145.796875 683.222656 146.640625 684.878906 146.640625 686.726562 Z M 209.667969 495.710938 C 209.667969 494.59375 210.082031 494.226562 210.488281 493.871094 C 210.664062 493.71875 210.84375 493.558594 211.007812 493.328125 L 211.128906 493.160156 L 211.25 493.324219 C 211.421875 493.558594 211.609375 493.71875 211.785156 493.871094 C 212.183594 494.21875 212.59375 494.582031 212.59375 495.710938 L 212.59375 501.5625 L 209.667969 501.5625 Z M 223.761719 493.871094 C 224.164062 494.21875 224.574219 494.582031 224.574219 495.710938 L 224.574219 501.5625 L 221.648438 501.5625 L 221.648438 495.710938 C 221.648438 494.59375 222.0625 494.226562 222.46875 493.871094 C 222.640625 493.71875 222.824219 493.558594 222.988281 493.328125 L 223.105469 493.160156 L 223.234375 493.324219 C 223.40625 493.558594 223.589844 493.71875 223.761719 493.871094 Z M 215.65625 495.710938 C 215.65625 494.59375 216.074219 494.226562 216.476562 493.871094 C 216.65625 493.71875 216.835938 493.558594 216.996094 493.328125 L 217.113281 493.160156 L 217.242188 493.324219 C 217.414062 493.558594 217.597656 493.71875 217.777344 493.871094 C 218.171875 494.21875 218.585938 494.582031 218.585938 495.710938 L 218.585938 501.5625 L 215.65625 501.5625 Z M 111.710938 587.683594 C 111.710938 586.875 112.066406 586.609375 112.414062 586.351562 C 112.5625 586.242188 112.714844 586.121094 112.859375 585.957031 L 112.957031 585.832031 L 113.066406 585.953125 C 113.214844 586.121094 113.371094 586.242188 113.519531 586.351562 C 113.863281 586.601562 114.214844 586.863281 114.214844 587.683594 L 114.214844 591.925781 L 111.710938 591.925781 Z M 123.765625 586.351562 C 124.105469 586.601562 124.460938 586.863281 124.460938 587.683594 L 124.460938 591.925781 L 121.957031 591.925781 L 121.957031 587.683594 C 121.957031 586.875 122.3125 586.609375 122.65625 586.351562 C 122.808594 586.242188 122.960938 586.121094 123.097656 585.957031 L 123.203125 585.832031 L 123.3125 585.953125 C 123.457031 586.121094 123.617188 586.242188 123.765625 586.351562 Z M 116.832031 587.683594 C 116.832031 586.875 117.1875 586.609375 117.53125 586.351562 C 117.683594 586.242188 117.839844 586.121094 117.976562 585.957031 L 118.078125 585.832031 L 118.1875 585.953125 C 118.335938 586.121094 118.496094 586.242188 118.640625 586.351562 C 118.988281 586.601562 119.335938 586.863281 119.335938 587.683594 L 119.335938 591.925781 L 116.832031 591.925781 Z M 113.121094 547.40625 C 113.121094 546.773438 113.398438 546.566406 113.667969 546.363281 C 113.785156 546.273438 113.90625 546.1875 114.015625 546.054688 L 114.097656 545.957031 L 114.179688 546.050781 C 114.296875 546.1875 114.421875 546.273438 114.535156 546.363281 C 114.804688 546.566406 115.078125 546.765625 115.078125 547.40625 L 115.078125 550.730469 L 113.121094 550.730469 Z M 123.101562 550.730469 L 121.140625 550.730469 L 121.140625 547.40625 C 121.140625 546.773438 121.425781 546.566406 121.691406 546.363281 C 121.8125 546.273438 121.933594 546.1875 122.042969 546.054688 L 122.125 545.957031 L 122.207031 546.050781 C 122.320312 546.1875 122.441406 546.273438 122.5625 546.363281 C 122.828125 546.566406 123.101562 546.765625 123.101562 547.40625 Z M 117.132812 547.40625 C 117.132812 546.773438 117.410156 546.566406 117.679688 546.363281 C 117.800781 546.273438 117.921875 546.1875 118.03125 546.054688 L 118.113281 545.957031 L 118.195312 546.050781 C 118.308594 546.1875 118.429688 546.273438 118.550781 546.363281 C 118.816406 546.566406 119.097656 546.765625 119.097656 547.40625 L 119.097656 550.730469 L 117.132812 550.730469 Z M 220.695312 444.71875 L 220.695312 440.132812 C 220.695312 439.257812 221.023438 438.96875 221.339844 438.695312 C 221.476562 438.566406 221.621094 438.449219 221.746094 438.265625 L 221.84375 438.128906 L 221.941406 438.261719 C 222.078125 438.449219 222.222656 438.566406 222.359375 438.695312 C 222.667969 438.96875 222.992188 439.246094 222.992188 440.132812 L 222.992188 444.71875 Z M 216.003906 444.71875 L 216.003906 440.132812 C 216.003906 439.257812 216.332031 438.96875 216.648438 438.695312 C 216.785156 438.566406 216.929688 438.449219 217.054688 438.265625 L 217.152344 438.128906 L 217.246094 438.261719 C 217.382812 438.449219 217.523438 438.566406 217.660156 438.695312 C 217.980469 438.96875 218.300781 439.246094 218.300781 440.132812 L 218.300781 444.71875 Z M 213.609375 444.71875 L 211.3125 444.71875 L 211.3125 440.132812 C 211.3125 439.257812 211.640625 438.96875 211.960938 438.695312 C 212.097656 438.566406 212.238281 438.449219 212.363281 438.265625 L 212.457031 438.128906 L 212.554688 438.261719 C 212.691406 438.449219 212.832031 438.566406 212.96875 438.695312 C 213.28125 438.96875 213.609375 439.246094 213.609375 440.132812 Z M 258.863281 642.378906 L 258.863281 633.523438 C 258.863281 631.824219 259.492188 631.265625 260.105469 630.730469 C 260.371094 630.496094 260.644531 630.257812 260.890625 629.910156 L 261.074219 629.648438 L 261.265625 629.898438 C 261.527344 630.257812 261.800781 630.496094 262.066406 630.730469 C 262.675781 631.261719 263.296875 631.804688 263.296875 633.523438 L 263.296875 642.378906 Z M 249.789062 642.378906 L 249.789062 633.523438 C 249.789062 631.824219 250.421875 631.265625 251.035156 630.730469 C 251.300781 630.496094 251.574219 630.257812 251.820312 629.910156 L 252.003906 629.648438 L 252.1875 629.898438 C 252.457031 630.257812 252.730469 630.496094 252.996094 630.730469 C 253.605469 631.261719 254.226562 631.804688 254.226562 633.523438 L 254.226562 642.378906 Z M 240.71875 642.378906 L 240.71875 633.523438 C 240.71875 631.824219 241.351562 631.265625 241.964844 630.730469 C 242.230469 630.496094 242.503906 630.257812 242.746094 629.910156 L 242.933594 629.648438 L 243.117188 629.898438 C 243.386719 630.257812 243.660156 630.496094 243.925781 630.730469 C 244.527344 631.261719 245.15625 631.804688 245.15625 633.523438 L 245.15625 642.378906 Z M 316.40625 618.136719 L 319.941406 618.136719 L 319.941406 621.34375 C 322.421875 621.34375 324.433594 623.355469 324.433594 625.839844 C 324.433594 628.324219 322.421875 630.335938 319.941406 630.335938 L 319.941406 634.167969 L 316.417969 634.167969 C 316.417969 636.652344 314.40625 638.664062 311.925781 638.664062 C 309.4375 638.664062 307.425781 636.652344 307.425781 634.167969 L 303.902344 634.167969 L 303.902344 630.335938 C 301.421875 630.335938 299.410156 628.324219 299.410156 625.839844 C 299.410156 623.355469 301.421875 621.34375 303.902344 621.34375 L 303.902344 618.136719 L 307.441406 618.136719 C 307.621094 615.820312 309.558594 613.992188 311.925781 613.992188 C 314.285156 613.992188 316.222656 615.820312 316.40625 618.136719 Z M 490.128906 621.34375 L 490.128906 618.136719 L 493.660156 618.136719 C 493.839844 615.820312 495.78125 613.992188 498.144531 613.992188 C 500.503906 613.992188 502.445312 615.820312 502.625 618.136719 L 506.160156 618.136719 L 506.160156 621.34375 C 508.640625 621.34375 510.65625 623.355469 510.65625 625.839844 C 510.65625 628.324219 508.640625 630.335938 506.160156 630.335938 L 506.160156 634.167969 L 502.644531 634.167969 C 502.644531 636.652344 500.625 638.664062 498.144531 638.664062 C 495.660156 638.664062 493.644531 636.652344 493.644531 634.167969 L 490.128906 634.167969 L 490.128906 630.335938 C 487.644531 630.335938 485.628906 628.324219 485.628906 625.839844 C 485.628906 623.355469 487.644531 621.34375 490.128906 621.34375 Z M 350.464844 621.34375 L 350.464844 618.136719 L 353.996094 618.136719 C 354.175781 615.820312 356.113281 613.992188 358.480469 613.992188 C 360.839844 613.992188 362.777344 615.820312 362.960938 618.136719 L 366.496094 618.136719 L 366.496094 621.34375 C 368.976562 621.34375 370.992188 623.355469 370.992188 625.839844 C 370.992188 628.324219 368.976562 630.335938 366.496094 630.335938 L 366.496094 634.167969 L 362.972656 634.167969 C 362.972656 636.652344 360.960938 638.664062 358.480469 638.664062 C 355.992188 638.664062 353.980469 636.652344 353.980469 634.167969 L 350.464844 634.167969 L 350.464844 630.335938 C 347.976562 630.335938 345.964844 628.324219 345.964844 625.839844 C 345.964844 623.355469 347.976562 621.34375 350.464844 621.34375 Z M 392.519531 625.839844 C 392.519531 623.355469 394.53125 621.34375 397.019531 621.34375 L 397.019531 618.136719 L 400.550781 618.136719 C 400.730469 615.820312 402.671875 613.992188 405.035156 613.992188 C 407.394531 613.992188 409.332031 615.820312 409.515625 618.136719 L 413.050781 618.136719 L 413.050781 621.34375 C 415.53125 621.34375 417.546875 623.355469 417.546875 625.839844 C 417.546875 628.324219 415.53125 630.335938 413.050781 630.335938 L 413.050781 634.167969 L 409.535156 634.167969 C 409.535156 636.652344 407.515625 638.664062 405.035156 638.664062 C 402.550781 638.664062 400.535156 636.652344 400.535156 634.167969 L 397.019531 634.167969 L 397.019531 630.335938 C 394.53125 630.335938 392.519531 628.324219 392.519531 625.839844 Z M 439.074219 625.839844 C 439.074219 623.355469 441.089844 621.34375 443.574219 621.34375 L 443.574219 618.136719 L 447.105469 618.136719 C 447.292969 615.820312 449.226562 613.992188 451.589844 613.992188 C 453.949219 613.992188 455.886719 615.820312 456.070312 618.136719 L 459.605469 618.136719 L 459.605469 621.34375 C 462.089844 621.34375 464.101562 623.355469 464.101562 625.839844 C 464.101562 628.324219 462.089844 630.335938 459.605469 630.335938 L 459.605469 634.167969 L 456.089844 634.167969 C 456.089844 636.652344 454.070312 638.664062 451.589844 638.664062 C 449.101562 638.664062 447.089844 636.652344 447.089844 634.167969 L 443.574219 634.167969 L 443.574219 630.335938 C 441.089844 630.335938 439.074219 628.324219 439.074219 625.839844 Z M 307.9375 599.511719 L 307.9375 592.117188 C 307.9375 590.703125 308.464844 590.242188 308.976562 589.789062 C 309.203125 589.597656 309.425781 589.394531 309.628906 589.105469 L 309.78125 588.894531 L 309.941406 589.101562 C 310.164062 589.394531 310.394531 589.597656 310.613281 589.789062 C 311.117188 590.234375 311.640625 590.691406 311.640625 592.117188 L 311.640625 599.511719 Z M 300.378906 599.511719 L 300.378906 592.117188 C 300.378906 590.703125 300.902344 590.242188 301.410156 589.789062 C 301.636719 589.597656 301.863281 589.394531 302.066406 589.105469 L 302.21875 588.894531 L 302.378906 589.101562 C 302.597656 589.394531 302.828125 589.597656 303.050781 589.789062 C 303.554688 590.234375 304.074219 590.691406 304.074219 592.117188 L 304.074219 599.511719 Z M 292.8125 599.511719 L 292.8125 592.117188 C 292.8125 590.703125 293.339844 590.242188 293.847656 589.789062 C 294.074219 589.597656 294.304688 589.394531 294.503906 589.105469 L 294.660156 588.894531 L 294.8125 589.101562 C 295.035156 589.394531 295.265625 589.597656 295.488281 589.789062 C 295.988281 590.234375 296.511719 590.691406 296.511719 592.117188 L 296.511719 599.511719 Z M 340.863281 588.105469 C 340.863281 586.164062 341.984375 585.53125 343.078125 584.917969 C 343.546875 584.652344 344.035156 584.371094 344.472656 583.976562 L 344.792969 583.675781 L 345.128906 583.96875 C 345.605469 584.371094 346.089844 584.652344 346.566406 584.917969 C 347.636719 585.519531 348.753906 586.148438 348.753906 588.105469 L 348.753906 598.242188 L 340.863281 598.242188 Z M 459.867188 588.105469 C 459.867188 586.164062 460.992188 585.53125 462.082031 584.917969 C 462.554688 584.652344 463.042969 584.371094 463.472656 583.976562 L 463.800781 583.675781 L 464.136719 583.96875 C 464.613281 584.371094 465.097656 584.652344 465.574219 584.917969 C 466.644531 585.519531 467.753906 586.148438 467.753906 588.105469 L 467.753906 598.242188 L 459.867188 598.242188 Z M 436.066406 598.242188 L 436.066406 588.105469 C 436.066406 586.164062 437.191406 585.53125 438.28125 584.917969 C 438.75 584.652344 439.242188 584.371094 439.675781 583.976562 L 439.996094 583.675781 L 440.335938 583.96875 C 440.808594 584.371094 441.300781 584.652344 441.769531 584.917969 C 442.847656 585.519531 443.957031 586.148438 443.957031 588.105469 L 443.957031 598.242188 Z M 412.265625 598.242188 L 412.265625 588.105469 C 412.265625 586.164062 413.394531 585.53125 414.476562 584.917969 C 414.953125 584.652344 415.445312 584.371094 415.875 583.976562 L 416.199219 583.675781 L 416.53125 583.96875 C 417.007812 584.371094 417.492188 584.652344 417.96875 584.917969 C 419.046875 585.519531 420.15625 586.148438 420.15625 588.105469 L 420.15625 598.242188 Z M 388.460938 598.242188 L 388.460938 588.105469 C 388.460938 586.164062 389.589844 585.53125 390.675781 584.917969 C 391.152344 584.652344 391.640625 584.371094 392.070312 583.976562 L 392.398438 583.675781 L 392.730469 583.96875 C 393.203125 584.371094 393.695312 584.652344 394.171875 584.917969 C 395.242188 585.519531 396.351562 586.148438 396.351562 588.105469 L 396.351562 598.242188 Z M 364.664062 598.242188 L 364.664062 588.105469 C 364.664062 586.164062 365.789062 585.53125 366.878906 584.917969 C 367.347656 584.652344 367.839844 584.371094 368.269531 583.976562 L 368.59375 583.675781 L 368.933594 583.96875 C 369.402344 584.371094 369.894531 584.652344 370.371094 584.917969 C 371.441406 585.519531 372.550781 586.148438 372.550781 588.105469 L 372.550781 598.242188 Z M 361.753906 544.617188 C 361.753906 540.210938 365.382812 540.253906 368.152344 537.75 C 371.195312 540.335938 374.542969 540.210938 374.542969 544.617188 L 374.542969 563.148438 L 361.753906 563.148438 Z M 398.59375 544.617188 L 398.59375 563.148438 L 385.804688 563.148438 L 385.804688 544.617188 C 385.804688 540.210938 389.433594 540.253906 392.203125 537.75 C 395.242188 540.335938 398.59375 540.210938 398.59375 544.617188 Z M 422.644531 544.617188 L 422.644531 563.148438 L 409.855469 563.148438 L 409.855469 544.617188 C 409.855469 540.210938 413.480469 540.253906 416.246094 537.75 C 419.292969 540.335938 422.644531 540.210938 422.644531 544.617188 Z M 446.695312 544.617188 L 446.695312 563.148438 L 433.902344 563.148438 L 433.902344 544.617188 C 433.902344 540.210938 437.53125 540.253906 440.296875 537.75 C 443.34375 540.335938 446.695312 540.210938 446.695312 544.617188 Z M 512.8125 599.511719 L 512.8125 592.117188 C 512.8125 590.703125 513.335938 590.242188 513.84375 589.789062 C 514.070312 589.597656 514.300781 589.394531 514.5 589.105469 L 514.65625 588.894531 L 514.8125 589.101562 C 515.03125 589.394531 515.261719 589.597656 515.484375 589.789062 C 515.988281 590.234375 516.507812 590.691406 516.507812 592.117188 L 516.507812 599.511719 Z M 505.246094 599.511719 L 505.246094 592.117188 C 505.246094 590.703125 505.777344 590.242188 506.285156 589.789062 C 506.507812 589.597656 506.738281 589.394531 506.941406 589.105469 L 507.09375 588.894531 L 507.246094 589.101562 C 507.46875 589.394531 507.699219 589.597656 507.925781 589.789062 C 508.421875 590.234375 508.945312 590.691406 508.945312 592.117188 L 508.945312 599.511719 Z M 497.683594 599.511719 L 497.683594 592.117188 C 497.683594 590.703125 498.207031 590.242188 498.722656 589.789062 C 498.941406 589.597656 499.171875 589.394531 499.375 589.105469 L 499.527344 588.894531 L 499.683594 589.101562 C 499.902344 589.394531 500.132812 589.597656 500.359375 589.789062 C 500.859375 590.234375 501.378906 590.691406 501.378906 592.117188 L 501.378906 599.511719 Z M 564.457031 642.378906 L 564.457031 633.523438 C 564.457031 631.824219 565.089844 631.265625 565.703125 630.730469 C 565.964844 630.496094 566.246094 630.257812 566.484375 629.910156 L 566.664062 629.648438 L 566.855469 629.898438 C 567.125 630.257812 567.398438 630.496094 567.667969 630.730469 C 568.269531 631.261719 568.890625 631.804688 568.890625 633.523438 L 568.890625 642.378906 Z M 555.386719 642.378906 L 555.386719 633.523438 C 555.386719 631.824219 556.015625 631.265625 556.632812 630.730469 C 556.894531 630.496094 557.167969 630.257812 557.414062 629.910156 L 557.59375 629.648438 L 557.785156 629.898438 C 558.050781 630.257812 558.328125 630.496094 558.589844 630.730469 C 559.199219 631.261719 559.820312 631.804688 559.820312 633.523438 L 559.820312 642.378906 Z M 546.316406 642.378906 L 546.316406 633.523438 C 546.316406 631.824219 546.949219 631.265625 547.558594 630.730469 C 547.824219 630.496094 548.097656 630.257812 548.34375 629.910156 L 548.523438 629.648438 L 548.714844 629.898438 C 548.980469 630.257812 549.257812 630.496094 549.519531 630.730469 C 550.125 631.261719 550.75 631.804688 550.75 633.523438 L 550.75 642.378906 Z M 596.289062 444.71875 L 596.289062 440.132812 C 596.289062 439.257812 596.617188 438.96875 596.933594 438.695312 C 597.070312 438.566406 597.210938 438.449219 597.335938 438.265625 L 597.429688 438.128906 L 597.527344 438.261719 C 597.664062 438.449219 597.808594 438.566406 597.945312 438.695312 C 598.261719 438.96875 598.578125 439.246094 598.578125 440.132812 L 598.578125 444.71875 Z M 591.597656 444.71875 L 591.597656 440.132812 C 591.597656 439.257812 591.917969 438.96875 592.238281 438.695312 C 592.378906 438.566406 592.519531 438.449219 592.640625 438.265625 L 592.738281 438.128906 L 592.839844 438.261719 C 592.976562 438.449219 593.117188 438.566406 593.253906 438.695312 C 593.566406 438.96875 593.886719 439.246094 593.886719 440.132812 L 593.886719 444.71875 Z M 589.195312 444.71875 L 586.90625 444.71875 L 586.90625 440.132812 C 586.90625 439.257812 587.226562 438.96875 587.546875 438.695312 C 587.683594 438.566406 587.828125 438.449219 587.957031 438.265625 L 588.046875 438.128906 L 588.140625 438.261719 C 588.277344 438.449219 588.425781 438.566406 588.5625 438.695312 C 588.875 438.96875 589.195312 439.246094 589.195312 440.132812 Z M 686.859375 547.40625 C 686.859375 546.773438 687.144531 546.566406 687.414062 546.363281 C 687.53125 546.273438 687.652344 546.1875 687.761719 546.054688 L 687.84375 545.957031 L 687.925781 546.050781 C 688.042969 546.1875 688.160156 546.273438 688.28125 546.363281 C 688.550781 546.566406 688.828125 546.765625 688.828125 547.40625 L 688.828125 550.730469 L 686.859375 550.730469 Z M 696.847656 550.730469 L 694.886719 550.730469 L 694.886719 547.40625 C 694.886719 546.773438 695.164062 546.566406 695.4375 546.363281 C 695.554688 546.273438 695.679688 546.1875 695.78125 546.054688 L 695.863281 545.957031 L 695.953125 546.050781 C 696.066406 546.1875 696.1875 546.273438 696.308594 546.363281 C 696.574219 546.566406 696.847656 546.765625 696.847656 547.40625 Z M 690.878906 547.40625 C 690.878906 546.773438 691.15625 546.566406 691.425781 546.363281 C 691.546875 546.273438 691.667969 546.1875 691.769531 546.054688 L 691.851562 545.957031 L 691.933594 546.050781 C 692.054688 546.1875 692.175781 546.273438 692.296875 546.363281 C 692.5625 546.566406 692.835938 546.765625 692.835938 547.40625 L 692.835938 550.730469 L 690.878906 550.730469 Z M 732.757812 699.160156 L 732.757812 687.222656 L 717.929688 687.222656 L 717.929688 674.179688 L 698.332031 674.179688 L 698.332031 596.910156 C 698.613281 595.996094 699.167969 595.3125 700.097656 594.945312 L 700.097656 582.027344 L 696.953125 582.027344 L 696.953125 554.628906 C 697.171875 553.917969 697.605469 553.382812 698.335938 553.097656 L 698.335938 542.972656 L 696.800781 542.972656 L 692.402344 506.007812 L 692.355469 500.933594 C 693.40625 500.753906 694.207031 499.835938 694.207031 498.730469 C 694.207031 497.609375 693.386719 496.691406 692.3125 496.527344 L 692.300781 494.96875 C 692.988281 494.820312 693.507812 494.203125 693.507812 493.472656 C 693.507812 492.722656 692.976562 492.097656 692.273438 491.960938 L 692.257812 490.398438 C 692.695312 490.273438 693.011719 489.878906 693.011719 489.402344 C 693.011719 488.917969 692.683594 488.519531 692.234375 488.402344 L 692.214844 485.96875 C 693.886719 486.265625 695.65625 485.632812 696.730469 484.171875 C 697.242188 483.476562 697.527344 482.695312 697.605469 481.898438 C 697.476562 482.199219 697.320312 482.488281 697.117188 482.761719 C 695.78125 484.574219 693.230469 484.964844 691.414062 483.628906 C 689.605469 482.296875 689.214844 479.742188 690.550781 477.925781 C 690.753906 477.652344 690.984375 477.414062 691.234375 477.207031 C 690.496094 477.515625 689.828125 478.027344 689.320312 478.714844 C 687.8125 480.757812 688.25 483.640625 690.300781 485.148438 C 690.746094 485.476562 691.234375 485.707031 691.738281 485.855469 L 691.714844 488.402344 C 691.265625 488.519531 690.9375 488.917969 690.9375 489.402344 C 690.9375 489.878906 691.261719 490.273438 691.699219 490.398438 L 691.683594 491.960938 C 690.976562 492.097656 690.441406 492.722656 690.441406 493.472656 C 690.441406 494.203125 690.960938 494.820312 691.65625 494.96875 L 691.640625 496.527344 C 690.5625 496.691406 689.742188 497.609375 689.742188 498.730469 C 689.742188 499.835938 690.546875 500.753906 691.59375 500.933594 L 691.550781 505.601562 L 687.105469 542.972656 L 685.582031 542.972656 L 685.582031 553.097656 C 686.308594 553.382812 686.746094 553.917969 686.964844 554.628906 L 686.964844 582.027344 L 683.820312 582.027344 L 683.820312 594.945312 C 684.75 595.3125 685.300781 595.996094 685.582031 596.910156 L 685.582031 664.253906 L 673.945312 664.253906 L 673.945312 657.578125 L 663.410156 657.578125 L 663.410156 664.253906 L 652.871094 664.253906 L 652.871094 657.578125 L 642.335938 657.578125 L 642.335938 664.253906 L 631.792969 664.253906 L 631.792969 657.578125 L 621.257812 657.578125 L 621.257812 664.253906 L 610.714844 664.253906 L 610.714844 657.578125 L 600.316406 657.578125 L 600.316406 508.441406 C 600.644531 507.183594 601.285156 506.238281 602.378906 505.734375 L 602.378906 487.898438 L 598.699219 487.898438 L 598.699219 450.105469 C 598.960938 449.121094 599.460938 448.375 600.316406 447.984375 L 600.316406 434.011719 L 599.660156 434.011719 C 599.738281 433.710938 599.804688 433.410156 599.851562 433.101562 C 599.957031 432.5 600.003906 431.871094 600.003906 431.230469 C 600.003906 426.976562 595.371094 425.078125 593.554688 423.195312 L 593.429688 419.328125 C 594.339844 419.105469 595.023438 418.285156 595.023438 417.300781 C 595.023438 416.265625 594.277344 415.414062 593.296875 415.242188 L 593.25 413.773438 C 593.886719 413.632812 594.367188 413.0625 594.367188 412.375 C 594.367188 411.65625 593.84375 411.066406 593.15625 410.957031 L 593.105469 409.523438 C 593.558594 409.441406 593.902344 409.050781 593.902344 408.574219 C 593.902344 408.070312 593.527344 407.667969 593.046875 407.613281 L 592.9375 404.238281 L 592.820312 407.613281 C 592.339844 407.667969 591.964844 408.070312 591.964844 408.574219 C 591.964844 409.050781 592.308594 409.441406 592.761719 409.523438 L 592.710938 410.957031 C 592.027344 411.066406 591.5 411.65625 591.5 412.375 C 591.5 413.0625 591.980469 413.632812 592.621094 413.773438 L 592.574219 415.242188 C 591.589844 415.414062 590.84375 416.265625 590.84375 417.300781 C 590.84375 418.285156 591.527344 419.105469 592.4375 419.328125 L 592.3125 423.167969 C 590.523438 425.144531 585.8125 426.921875 585.8125 431.230469 C 585.8125 431.871094 585.867188 432.5 585.964844 433.101562 C 586.019531 433.410156 586.082031 433.710938 586.15625 434.011719 L 585.402344 434.011719 L 585.402344 447.984375 C 586.253906 448.375 586.757812 449.121094 587.019531 450.105469 L 587.019531 487.898438 L 583.339844 487.898438 L 583.339844 505.734375 C 584.429688 506.238281 585.074219 507.183594 585.402344 508.441406 L 585.402344 648.628906 L 572.242188 648.628906 L 572.242188 621.6875 L 570.980469 621.6875 C 571.128906 621.113281 571.253906 620.523438 571.351562 619.925781 C 571.542969 618.757812 571.644531 617.546875 571.644531 616.3125 C 571.644531 607.574219 561.53125 603.976562 558.585938 600.089844 L 558.46875 593.386719 C 560.472656 593.140625 562.019531 591.441406 562.019531 589.378906 C 562.019531 587.269531 560.398438 585.535156 558.332031 585.355469 L 558.289062 582.609375 C 559.671875 582.457031 560.75 581.28125 560.75 579.859375 C 560.75 578.402344 559.625 577.203125 558.195312 577.09375 L 558.148438 574.371094 C 559.105469 574.285156 559.851562 573.480469 559.851562 572.503906 C 559.851562 571.5 559.070312 570.6875 558.085938 570.625 L 557.976562 564.125 L 557.863281 570.625 C 556.878906 570.6875 556.097656 571.5 556.097656 572.503906 C 556.097656 573.480469 556.847656 574.285156 557.804688 574.371094 L 557.753906 577.09375 C 556.328125 577.203125 555.199219 578.402344 555.199219 579.859375 C 555.199219 581.28125 556.277344 582.457031 557.660156 582.609375 L 557.617188 585.355469 C 555.550781 585.535156 553.933594 587.269531 553.933594 589.378906 C 553.933594 591.441406 555.480469 593.140625 557.480469 593.386719 L 557.367188 599.988281 C 554.515625 604.128906 544.210938 607.453125 544.210938 616.3125 C 544.210938 617.546875 544.308594 618.757812 544.507812 619.925781 C 544.605469 620.523438 544.730469 621.113281 544.871094 621.6875 L 543.417969 621.6875 L 543.417969 648.628906 L 531.128906 648.628906 L 531.128906 603.964844 L 519.308594 603.964844 L 519.308594 582.25 L 518.253906 582.25 C 518.371094 581.769531 518.476562 581.28125 518.558594 580.78125 C 518.722656 579.8125 518.804688 578.800781 518.804688 577.765625 C 518.804688 570.582031 510.597656 567.570312 508.015625 564.371094 L 507.902344 558.640625 C 509.527344 558.402344 510.777344 557.003906 510.777344 555.3125 C 510.777344 553.570312 509.457031 552.140625 507.765625 551.960938 L 507.714844 549.664062 C 508.847656 549.507812 509.71875 548.542969 509.71875 547.375 C 509.71875 546.171875 508.800781 545.179688 507.625 545.070312 L 507.578125 542.792969 C 508.363281 542.710938 508.972656 542.042969 508.972656 541.238281 C 508.972656 540.410156 508.328125 539.734375 507.519531 539.679688 L 507.40625 534.257812 L 507.296875 539.679688 C 506.480469 539.734375 505.839844 540.410156 505.839844 541.238281 C 505.839844 542.042969 506.449219 542.710938 507.234375 542.792969 L 507.1875 545.070312 C 506.011719 545.179688 505.09375 546.171875 505.09375 547.375 C 505.09375 548.542969 505.960938 549.507812 507.09375 549.664062 L 507.050781 551.960938 C 505.355469 552.140625 504.035156 553.570312 504.035156 555.3125 C 504.035156 557.003906 505.285156 558.402344 506.90625 558.640625 L 506.792969 564.300781 C 504.28125 567.691406 495.929688 570.484375 495.929688 577.765625 C 495.929688 578.800781 496.011719 579.8125 496.167969 580.78125 C 496.257812 581.28125 496.359375 581.769531 496.480469 582.25 L 495.265625 582.25 L 495.265625 603.964844 L 483.664062 603.964844 L 483.664062 577.144531 L 459.757812 577.144531 L 459.757812 522.726562 L 461.351562 522.726562 L 461.351562 517.117188 L 458.558594 517.117188 C 459.347656 513.410156 459.757812 509.554688 459.757812 505.613281 C 459.757812 475.859375 412.941406 464.84375 404.914062 451.355469 L 404.878906 445.507812 C 407.476562 445.226562 409.5 443.023438 409.5 440.34375 C 409.5 437.648438 407.445312 435.433594 404.816406 435.179688 L 404.792969 431.640625 C 406.53125 431.40625 407.871094 429.917969 407.871094 428.113281 C 407.871094 426.292969 406.511719 424.796875 404.75 424.582031 L 404.726562 421.039062 C 405.859375 420.835938 406.722656 419.851562 406.722656 418.660156 C 406.722656 417.464844 405.847656 416.472656 404.699219 416.28125 L 404.667969 410.65625 C 408.609375 411.4375 412.824219 409.953125 415.363281 406.507812 C 416.546875 404.898438 417.210938 403.066406 417.390625 401.21875 C 417.101562 401.914062 416.730469 402.59375 416.257812 403.226562 C 413.160156 407.441406 407.226562 408.34375 403.011719 405.246094 C 398.796875 402.140625 397.894531 396.207031 401 391.992188 C 401.464844 391.355469 402 390.800781 402.578125 390.316406 C 400.867188 391.039062 399.320312 392.222656 398.132812 393.828125 C 394.636719 398.585938 395.652344 405.277344 400.410156 408.777344 C 401.507812 409.585938 402.710938 410.152344 403.957031 410.488281 L 403.917969 416.28125 C 402.769531 416.472656 401.894531 417.464844 401.894531 418.660156 C 401.894531 419.851562 402.757812 420.835938 403.890625 421.039062 L 403.871094 424.582031 C 402.109375 424.796875 400.746094 426.292969 400.746094 428.113281 C 400.746094 429.917969 402.085938 431.40625 403.824219 431.640625 L 403.804688 435.179688 C 401.175781 435.433594 399.117188 437.648438 399.117188 440.34375 C 399.117188 443.023438 401.140625 445.226562 403.738281 445.507812 L 403.707031 451.378906 C 395.398438 465.703125 348.863281 475.824219 348.863281 505.613281 C 348.863281 509.554688 349.273438 513.410156 350.058594 517.117188 L 347.265625 517.117188 L 347.265625 522.726562 L 348.863281 522.726562 L 348.863281 577.144531 L 324.953125 577.144531 L 324.953125 603.964844 L 314.433594 603.964844 L 314.433594 582.25 L 313.378906 582.25 C 313.503906 581.769531 313.601562 581.28125 313.691406 580.78125 C 313.847656 579.8125 313.9375 578.800781 313.9375 577.765625 C 313.9375 570.582031 305.730469 567.570312 303.148438 564.371094 L 303.027344 558.640625 C 304.660156 558.402344 305.90625 557.003906 305.90625 555.3125 C 305.90625 553.570312 304.585938 552.140625 302.890625 551.960938 L 302.847656 549.664062 C 303.976562 549.507812 304.851562 548.542969 304.851562 547.375 C 304.851562 546.171875 303.929688 545.179688 302.753906 545.070312 L 302.710938 542.792969 C 303.492188 542.710938 304.101562 542.042969 304.101562 541.238281 C 304.101562 540.410156 303.460938 539.734375 302.644531 539.679688 L 302.535156 534.257812 L 302.425781 539.679688 C 301.613281 539.734375 300.96875 540.410156 300.96875 541.238281 C 300.96875 542.042969 301.582031 542.710938 302.363281 542.792969 L 302.3125 545.070312 C 301.144531 545.179688 300.21875 546.171875 300.21875 547.375 C 300.21875 548.542969 301.09375 549.507812 302.21875 549.664062 L 302.175781 551.960938 C 300.480469 552.140625 299.164062 553.570312 299.164062 555.3125 C 299.164062 557.003906 300.414062 558.402344 302.039062 558.640625 L 301.925781 564.300781 C 299.410156 567.691406 291.054688 570.484375 291.054688 577.765625 C 291.054688 578.800781 291.136719 579.8125 291.300781 580.78125 C 291.382812 581.28125 291.488281 581.769531 291.609375 582.25 L 290.394531 582.25 L 290.394531 603.964844 L 278.933594 603.964844 L 278.933594 648.628906 L 266.648438 648.628906 L 266.648438 621.6875 L 265.386719 621.6875 C 265.535156 621.113281 265.652344 620.523438 265.753906 619.925781 C 265.949219 618.757812 266.054688 617.546875 266.054688 616.3125 C 266.054688 607.574219 255.9375 603.976562 252.992188 600.089844 L 252.875 593.386719 C 254.871094 593.140625 256.417969 591.441406 256.417969 589.378906 C 256.417969 587.269531 254.800781 585.535156 252.742188 585.355469 L 252.691406 582.609375 C 254.078125 582.457031 255.15625 581.28125 255.15625 579.859375 C 255.15625 578.402344 254.03125 577.203125 252.597656 577.09375 L 252.554688 574.371094 C 253.511719 574.285156 254.261719 573.480469 254.261719 572.503906 C 254.261719 571.5 253.472656 570.6875 252.488281 570.625 L 252.378906 564.125 L 252.269531 570.625 C 251.285156 570.6875 250.503906 571.5 250.503906 572.503906 C 250.503906 573.480469 251.253906 574.285156 252.203125 574.371094 L 252.160156 577.09375 C 250.726562 577.203125 249.609375 578.402344 249.609375 579.859375 C 249.609375 581.28125 250.683594 582.457031 252.066406 582.609375 L 252.019531 585.355469 C 249.957031 585.535156 248.339844 587.269531 248.339844 589.378906 C 248.339844 591.441406 249.886719 593.140625 251.882812 593.386719 L 251.773438 599.988281 C 248.925781 604.128906 238.613281 607.453125 238.613281 616.3125 C 238.613281 617.546875 238.714844 618.757812 238.90625 619.925781 C 239.007812 620.523438 239.132812 621.113281 239.28125 621.6875 L 237.820312 621.6875 L 237.820312 648.628906 L 224.726562 648.628906 L 224.726562 508.441406 C 225.054688 507.183594 225.699219 506.238281 226.785156 505.734375 L 226.785156 487.898438 L 223.113281 487.898438 L 223.113281 450.105469 C 223.371094 449.121094 223.871094 448.375 224.726562 447.984375 L 224.726562 434.011719 L 224.074219 434.011719 C 224.152344 433.710938 224.210938 433.410156 224.265625 433.101562 C 224.363281 432.5 224.417969 431.871094 224.417969 431.230469 C 224.417969 426.976562 219.78125 425.078125 217.96875 423.195312 L 217.835938 419.328125 C 218.753906 419.105469 219.4375 418.285156 219.4375 417.300781 C 219.4375 416.265625 218.691406 415.414062 217.707031 415.242188 L 217.65625 413.773438 C 218.300781 413.632812 218.78125 413.0625 218.78125 412.375 C 218.78125 411.65625 218.253906 411.066406 217.570312 410.957031 L 217.519531 409.523438 C 217.972656 409.441406 218.316406 409.050781 218.316406 408.574219 C 218.316406 408.070312 217.941406 407.667969 217.453125 407.613281 L 217.34375 404.238281 L 217.234375 407.613281 C 216.753906 407.667969 216.371094 408.070312 216.371094 408.574219 C 216.371094 409.050781 216.722656 409.441406 217.167969 409.523438 L 217.125 410.957031 C 216.4375 411.066406 215.910156 411.65625 215.910156 412.375 C 215.910156 413.0625 216.394531 413.632812 217.03125 413.773438 L 216.984375 415.242188 C 216 415.414062 215.257812 416.265625 215.257812 417.300781 C 215.257812 418.285156 215.933594 419.105469 216.851562 419.328125 L 216.726562 423.167969 C 214.9375 425.144531 210.226562 426.921875 210.226562 431.230469 C 210.226562 431.871094 210.273438 432.5 210.375 433.101562 C 210.429688 433.410156 210.492188 433.710938 210.570312 434.011719 L 209.816406 434.011719 L 209.816406 447.984375 C 210.667969 448.375 211.171875 449.121094 211.429688 450.105469 L 211.429688 487.898438 L 207.75 487.898438 L 207.75 505.734375 C 208.84375 506.238281 209.488281 507.183594 209.816406 508.441406 L 209.816406 657.578125 L 199.328125 657.578125 L 199.328125 664.253906 L 188.792969 664.253906 L 188.792969 657.578125 L 178.253906 657.578125 L 178.253906 664.253906 L 167.71875 664.253906 L 167.71875 657.578125 L 157.175781 657.578125 L 157.175781 664.253906 L 146.640625 664.253906 L 146.640625 657.578125 L 136.097656 657.578125 L 136.097656 664.253906 L 124.585938 664.253906 L 124.585938 596.910156 C 124.871094 595.996094 125.421875 595.3125 126.351562 594.945312 L 126.351562 582.027344 L 123.207031 582.027344 L 123.207031 554.628906 C 123.425781 553.917969 123.859375 553.382812 124.589844 553.097656 L 124.589844 542.972656 L 123.054688 542.972656 L 118.660156 506.007812 L 118.609375 500.933594 C 119.664062 500.753906 120.46875 499.835938 120.46875 498.730469 C 120.46875 497.609375 119.644531 496.691406 118.570312 496.527344 L 118.554688 494.96875 C 119.242188 494.820312 119.761719 494.203125 119.761719 493.472656 C 119.761719 492.722656 119.234375 492.097656 118.527344 491.960938 L 118.511719 490.398438 C 118.949219 490.273438 119.269531 489.878906 119.269531 489.402344 C 119.269531 488.917969 118.9375 488.519531 118.488281 488.402344 L 118.46875 485.96875 C 120.140625 486.265625 121.910156 485.632812 122.988281 484.171875 C 123.496094 483.476562 123.78125 482.695312 123.859375 481.898438 C 123.738281 482.199219 123.574219 482.488281 123.371094 482.761719 C 122.039062 484.574219 119.484375 484.964844 117.675781 483.628906 C 115.859375 482.296875 115.472656 479.742188 116.804688 477.925781 C 117.007812 477.652344 117.238281 477.414062 117.488281 477.207031 C 116.75 477.515625 116.082031 478.027344 115.574219 478.714844 C 114.066406 480.757812 114.507812 483.640625 116.554688 485.148438 C 117 485.476562 117.488281 485.707031 117.992188 485.855469 L 117.96875 488.402344 C 117.519531 488.519531 117.191406 488.917969 117.191406 489.402344 C 117.191406 489.878906 117.515625 490.273438 117.953125 490.398438 L 117.9375 491.960938 C 117.230469 492.097656 116.695312 492.722656 116.695312 493.472656 C 116.695312 494.203125 117.214844 494.820312 117.910156 494.96875 L 117.894531 496.527344 C 116.820312 496.691406 115.996094 497.609375 115.996094 498.730469 C 115.996094 499.835938 116.800781 500.753906 117.855469 500.933594 L 117.804688 505.601562 L 113.359375 542.972656 L 111.835938 542.972656 L 111.835938 553.097656 C 112.566406 553.382812 112.996094 553.917969 113.21875 554.628906 L 113.21875 582.027344 L 110.074219 582.027344 L 110.074219 594.945312 C 111.003906 595.3125 111.554688 595.996094 111.835938 596.910156 L 111.835938 674.179688 L 92.027344 674.179688 L 92.027344 687.222656 L 77.199219 687.222656 L 77.199219 699.160156 L 62.367188 699.160156 L 62.367188 712.355469 L 585.402344 712.355469 C 585.429688 712.355469 599.914062 712.355469 599.914062 712.355469 L 747.59375 712.355469 L 747.59375 699.160156 L 732.757812 699.160156 " fill-opacity="1" fill-rule="nonzero"/></g></svg>