<svg xmlns="http://www.w3.org/2000/svg" xmlns:xlink="http://www.w3.org/1999/xlink" width="1080" zoomAndPan="magnify" viewBox="0 0 810 1012.49997" height="1350" preserveAspectRatio="xMidYMid meet" version="1.0"><defs><clipPath id="4b339fb0e9"><path d="M 0.199219 0 L 809.800781 0 L 809.800781 1012 L 0.199219 1012 Z M 0.199219 0 " clip-rule="nonzero"/></clipPath><clipPath id="41fab5e453"><path d="M 72.761719 656 L 339 656 L 339 661 L 72.761719 661 Z M 72.761719 656 " clip-rule="nonzero"/></clipPath><clipPath id="d0cab1097e"><path d="M 72.761719 670 L 736.933594 670 L 736.933594 674.941406 L 72.761719 674.941406 Z M 72.761719 670 " clip-rule="nonzero"/></clipPath></defs><g clip-path="url(#4b339fb0e9)"><path fill="#ffffff" d="M 0.199219 0 L 809.800781 0 L 809.800781 1012 L 0.199219 1012 Z M 0.199219 0 " fill-opacity="1" fill-rule="nonzero"/><path fill="#ffffff" d="M 0.199219 0 L 809.800781 0 L 809.800781 1012 L 0.199219 1012 Z M 0.199219 0 " fill-opacity="1" fill-rule="nonzero"/></g><path fill="#000000" d="M 392.195312 414.90625 L 326.796875 414.90625 C 325.757812 414.90625 324.90625 414.054688 324.90625 413.015625 C 324.90625 411.976562 325.757812 411.128906 326.796875 411.128906 L 392.195312 411.128906 C 393.234375 411.128906 394.082031 411.976562 394.082031 413.015625 C 394.082031 414.054688 393.234375 414.90625 392.195312 414.90625 Z M 392.195312 414.90625 " fill-opacity="1" fill-rule="nonzero"/><path fill="#000000" d="M 480.121094 414.90625 L 414.722656 414.90625 C 413.683594 414.90625 412.835938 414.054688 412.835938 413.015625 C 412.835938 411.976562 413.683594 411.128906 414.722656 411.128906 L 480.121094 411.128906 C 481.160156 411.128906 482.007812 411.976562 482.007812 413.015625 C 482.007812 414.054688 481.160156 414.90625 480.121094 414.90625 Z M 480.121094 414.90625 " fill-opacity="1" fill-rule="nonzero"/><path fill="#000000" d="M 346.132812 485.113281 C 339.84375 485.113281 334.726562 479.996094 334.726562 473.707031 C 334.726562 467.417969 339.84375 462.300781 346.132812 462.300781 C 352.421875 462.300781 357.539062 467.417969 357.539062 473.707031 C 357.539062 479.996094 352.421875 485.113281 346.132812 485.113281 Z M 346.132812 466.097656 C 341.921875 466.097656 338.503906 469.515625 338.503906 473.726562 C 338.503906 477.9375 341.921875 481.355469 346.132812 481.355469 C 350.34375 481.355469 353.761719 477.9375 353.761719 473.726562 C 353.761719 469.515625 350.34375 466.097656 346.132812 466.097656 Z M 346.132812 466.097656 " fill-opacity="1" fill-rule="nonzero"/><path fill="#000000" d="M 326.835938 640.933594 C 325.796875 640.933594 324.945312 640.082031 324.945312 639.042969 L 324.945312 451.066406 C 324.945312 450.027344 325.796875 449.175781 326.835938 449.175781 C 327.871094 449.175781 328.722656 450.027344 328.722656 451.066406 L 328.722656 639.0625 C 328.722656 640.101562 327.871094 640.953125 326.835938 640.953125 Z M 326.835938 640.933594 " fill-opacity="1" fill-rule="nonzero"/><path fill="#000000" d="M 317.183594 640.933594 C 316.144531 640.933594 315.296875 640.082031 315.296875 639.042969 L 315.296875 451.066406 C 315.296875 450.027344 316.144531 449.175781 317.183594 449.175781 C 318.222656 449.175781 319.074219 450.027344 319.074219 451.066406 L 319.074219 639.0625 C 319.074219 640.101562 318.222656 640.953125 317.183594 640.953125 Z M 317.183594 640.933594 " fill-opacity="1" fill-rule="nonzero"/><path fill="#000000" d="M 302.492188 640.933594 C 301.453125 640.933594 300.601562 640.082031 300.601562 639.042969 L 300.601562 451.066406 C 300.601562 450.027344 301.453125 449.175781 302.492188 449.175781 C 303.53125 449.175781 304.378906 450.027344 304.378906 451.066406 L 304.378906 639.0625 C 304.378906 640.101562 303.53125 640.953125 302.492188 640.953125 Z M 302.492188 640.933594 " fill-opacity="1" fill-rule="nonzero"/><path fill="#000000" d="M 293.671875 640.933594 C 292.632812 640.933594 291.785156 640.082031 291.785156 639.042969 L 291.785156 451.066406 C 291.785156 450.027344 292.632812 449.175781 293.671875 449.175781 C 294.710938 449.175781 295.5625 450.027344 295.5625 451.066406 L 295.5625 639.0625 C 295.5625 640.101562 294.710938 640.953125 293.671875 640.953125 Z M 293.671875 640.933594 " fill-opacity="1" fill-rule="nonzero"/><path fill="#000000" d="M 330.609375 660.382812 L 290.046875 660.382812 C 289.007812 660.382812 288.160156 659.53125 288.160156 658.492188 L 288.160156 639.042969 C 288.160156 638.003906 289.007812 637.15625 290.046875 637.15625 L 330.609375 637.15625 C 331.648438 637.15625 332.5 638.003906 332.5 639.042969 L 332.5 658.492188 C 332.5 659.53125 331.648438 660.382812 330.609375 660.382812 Z M 291.933594 656.605469 L 328.722656 656.605469 L 328.722656 640.933594 L 291.933594 640.933594 Z M 291.933594 656.605469 " fill-opacity="1" fill-rule="nonzero"/><path fill="#000000" d="M 234.1875 660.382812 L 201.269531 660.382812 C 200.230469 660.382812 199.382812 659.53125 199.382812 658.492188 L 199.382812 641.253906 C 199.382812 640.214844 200.230469 639.363281 201.269531 639.363281 L 234.1875 639.363281 C 235.226562 639.363281 236.074219 640.214844 236.074219 641.253906 L 236.074219 658.492188 C 236.074219 659.53125 235.226562 660.382812 234.1875 660.382812 Z M 203.175781 656.605469 L 232.316406 656.605469 L 232.316406 643.140625 L 203.175781 643.140625 Z M 203.175781 656.605469 " fill-opacity="1" fill-rule="nonzero"/><path fill="#000000" d="M 288.367188 485.113281 L 189.335938 485.113281 C 188.464844 485.113281 187.691406 484.507812 187.503906 483.65625 C 187.296875 482.808594 187.710938 481.921875 188.503906 481.542969 L 202.78125 474.40625 C 203.046875 474.273438 203.328125 474.195312 203.632812 474.195312 L 288.402344 474.195312 C 289.441406 474.195312 290.292969 475.046875 290.292969 476.085938 C 290.292969 477.125 289.441406 477.972656 288.402344 477.972656 L 204.085938 477.972656 L 197.359375 481.335938 L 288.402344 481.335938 C 289.441406 481.335938 290.292969 482.183594 290.292969 483.222656 C 290.292969 484.261719 289.441406 485.113281 288.402344 485.113281 Z M 288.367188 485.113281 " fill-opacity="1" fill-rule="nonzero"/><path fill="#000000" d="M 288.367188 459.375 L 231.296875 459.375 C 230.257812 459.375 229.410156 458.523438 229.410156 457.484375 C 229.410156 456.449219 230.257812 455.597656 231.296875 455.597656 L 288.367188 455.597656 C 289.40625 455.597656 290.253906 456.449219 290.253906 457.484375 C 290.253906 458.523438 289.40625 459.375 288.367188 459.375 Z M 288.367188 459.375 " fill-opacity="1" fill-rule="nonzero"/><path fill="#000000" d="M 230.03125 476.726562 L 206.105469 476.726562 C 205.066406 476.726562 204.214844 475.878906 204.214844 474.839844 L 204.214844 441.472656 C 204.214844 440.433594 205.066406 439.585938 206.105469 439.585938 L 230.03125 439.585938 C 231.070312 439.585938 231.921875 440.433594 231.921875 441.472656 L 231.921875 473.707031 C 231.921875 473.894531 231.882812 474.082031 231.84375 474.273438 C 231.902344 474.441406 231.921875 474.632812 231.921875 474.839844 C 231.921875 475.878906 231.070312 476.726562 230.03125 476.726562 Z M 207.992188 472.949219 L 228.144531 472.949219 L 228.144531 443.363281 L 207.992188 443.363281 Z M 207.992188 472.949219 " fill-opacity="1" fill-rule="nonzero"/><path fill="#000000" d="M 225.082031 468.417969 L 211.035156 468.417969 C 209.996094 468.417969 209.144531 467.570312 209.144531 466.53125 L 209.144531 456.804688 C 209.144531 451.898438 213.148438 447.894531 218.058594 447.894531 C 222.96875 447.894531 226.972656 451.898438 226.972656 456.804688 L 226.972656 466.53125 C 226.972656 467.570312 226.121094 468.417969 225.082031 468.417969 Z M 212.941406 464.640625 L 223.214844 464.640625 L 223.214844 456.804688 C 223.214844 453.972656 220.910156 451.671875 218.078125 451.671875 C 215.246094 451.671875 212.941406 453.972656 212.941406 456.804688 Z M 212.941406 464.640625 " fill-opacity="1" fill-rule="nonzero"/><path fill="#000000" d="M 238.832031 443.363281 L 195.886719 443.363281 C 195.09375 443.363281 194.378906 442.871094 194.113281 442.117188 C 193.847656 441.359375 194.054688 440.527344 194.660156 440.019531 L 204.878906 431.410156 C 205.21875 431.125 205.652344 430.957031 206.085938 430.957031 L 230.011719 430.957031 C 230.503906 430.957031 230.976562 431.144531 231.335938 431.484375 L 240.152344 440.09375 C 240.703125 440.625 240.871094 441.453125 240.589844 442.152344 C 240.304688 442.871094 239.605469 443.324219 238.832031 443.324219 Z M 201.0625 439.585938 L 234.207031 439.585938 L 229.257812 434.75 L 206.804688 434.75 L 201.082031 439.585938 Z M 201.0625 439.585938 " fill-opacity="1" fill-rule="nonzero"/><path fill="#000000" d="M 229.503906 434.035156 L 207.050781 434.035156 C 206.011719 434.035156 205.160156 433.183594 205.160156 432.144531 L 205.160156 422.816406 C 205.160156 421.777344 206.011719 420.929688 207.050781 420.929688 L 229.503906 420.929688 C 230.542969 420.929688 231.390625 421.777344 231.390625 422.816406 L 231.390625 432.144531 C 231.390625 433.183594 230.542969 434.035156 229.503906 434.035156 Z M 208.9375 430.257812 L 227.613281 430.257812 L 227.613281 424.707031 L 208.9375 424.707031 Z M 208.9375 430.257812 " fill-opacity="1" fill-rule="nonzero"/><path fill="#000000" d="M 229.277344 424.6875 L 207.050781 424.6875 C 206.011719 424.6875 205.160156 423.835938 205.160156 422.796875 L 205.160156 421.742188 C 205.160156 414.566406 210.996094 408.730469 218.171875 408.730469 C 225.347656 408.730469 231.183594 414.566406 231.183594 421.742188 L 231.183594 422.796875 C 231.183594 423.835938 230.332031 424.6875 229.296875 424.6875 Z M 208.976562 420.910156 L 227.351562 420.910156 C 226.933594 416.207031 222.96875 412.527344 218.152344 412.527344 C 213.335938 412.527344 209.390625 416.226562 208.957031 420.910156 Z M 208.976562 420.910156 " fill-opacity="1" fill-rule="nonzero"/><path fill="#000000" d="M 218.171875 412.527344 C 217.132812 412.527344 216.285156 411.675781 216.285156 410.636719 L 216.285156 399.421875 C 216.285156 398.382812 217.132812 397.53125 218.171875 397.53125 C 219.210938 397.53125 220.058594 398.382812 220.058594 399.421875 L 220.058594 410.636719 C 220.058594 411.675781 219.210938 412.527344 218.171875 412.527344 Z M 218.171875 412.527344 " fill-opacity="1" fill-rule="nonzero"/><path fill="#000000" d="M 325.117188 436.921875 L 293.164062 436.921875 C 292.125 436.921875 291.273438 436.074219 291.273438 435.035156 L 291.273438 392.679688 C 291.273438 391.640625 292.125 390.792969 293.164062 390.792969 L 325.117188 390.792969 C 326.15625 390.792969 327.003906 391.640625 327.003906 392.679688 L 327.003906 433.617188 C 327.003906 433.863281 326.949219 434.109375 326.871094 434.335938 C 326.964844 434.5625 327.003906 434.789062 327.003906 435.054688 C 327.003906 436.089844 326.15625 436.941406 325.117188 436.941406 Z M 295.03125 433.144531 L 323.207031 433.144531 L 323.207031 394.570312 L 295.03125 394.570312 Z M 295.03125 433.144531 " fill-opacity="1" fill-rule="nonzero"/><path fill="#000000" d="M 318.28125 428.273438 L 299.980469 428.273438 C 298.808594 428.273438 297.863281 427.332031 297.863281 426.160156 L 297.863281 414.507812 C 297.863281 408.296875 302.925781 403.234375 309.140625 403.234375 C 315.351562 403.234375 320.414062 408.296875 320.414062 414.507812 L 320.414062 426.160156 C 320.414062 427.332031 319.46875 428.273438 318.296875 428.273438 Z M 301.640625 424.496094 L 316.617188 424.496094 L 316.617188 414.488281 C 316.617188 410.355469 313.257812 406.992188 309.121094 406.992188 C 304.984375 406.992188 301.625 410.355469 301.625 414.488281 L 301.625 424.496094 Z M 301.640625 424.496094 " fill-opacity="1" fill-rule="nonzero"/><path fill="#000000" d="M 336.878906 394.570312 L 279.507812 394.570312 C 278.714844 394.570312 278 394.058594 277.734375 393.304688 C 277.46875 392.546875 277.714844 391.699219 278.339844 391.207031 L 291.972656 380.292969 C 292.3125 380.027344 292.730469 379.878906 293.144531 379.878906 L 325.097656 379.878906 C 325.570312 379.878906 326.042969 380.066406 326.382812 380.386719 L 338.144531 391.300781 C 338.710938 391.832031 338.902344 392.660156 338.617188 393.378906 C 338.335938 394.097656 337.636719 394.570312 336.863281 394.570312 Z M 284.890625 390.792969 L 332.066406 390.792969 L 324.359375 383.652344 L 293.804688 383.652344 L 284.871094 390.792969 Z M 284.890625 390.792969 " fill-opacity="1" fill-rule="nonzero"/><path fill="#000000" d="M 324.398438 382.710938 L 294.410156 382.710938 C 293.371094 382.710938 292.519531 381.859375 292.519531 380.820312 L 292.519531 368.964844 C 292.519531 367.925781 293.371094 367.074219 294.410156 367.074219 L 324.398438 367.074219 C 325.4375 367.074219 326.285156 367.925781 326.285156 368.964844 L 326.285156 380.820312 C 326.285156 381.859375 325.4375 382.710938 324.398438 382.710938 Z M 296.296875 378.933594 L 322.507812 378.933594 L 322.507812 370.851562 L 296.296875 370.851562 Z M 296.296875 378.933594 " fill-opacity="1" fill-rule="nonzero"/><path fill="#000000" d="M 324.113281 370.851562 L 294.410156 370.851562 C 293.371094 370.851562 292.519531 370 292.519531 368.964844 L 292.519531 367.980469 C 292.519531 358.957031 299.867188 351.609375 308.894531 351.609375 L 309.628906 351.609375 C 318.65625 351.609375 326.003906 358.957031 326.003906 367.980469 L 326.003906 368.964844 C 326.003906 370 325.152344 370.851562 324.113281 370.851562 Z M 296.335938 367.074219 L 322.1875 367.074219 C 321.714844 360.558594 316.257812 355.40625 309.628906 355.40625 L 308.894531 355.40625 C 302.265625 355.40625 296.808594 360.558594 296.335938 367.074219 Z M 296.335938 367.074219 " fill-opacity="1" fill-rule="nonzero"/><path fill="#000000" d="M 309.269531 355.40625 C 308.234375 355.40625 307.382812 354.554688 307.382812 353.515625 L 307.382812 339.261719 C 307.382812 338.222656 308.234375 337.371094 309.269531 337.371094 C 310.308594 337.371094 311.160156 338.222656 311.160156 339.261719 L 311.160156 353.515625 C 311.160156 354.554688 310.308594 355.40625 309.269531 355.40625 Z M 309.269531 355.40625 " fill-opacity="1" fill-rule="nonzero"/><path fill="#000000" d="M 288.367188 494.796875 L 234.1875 494.796875 C 233.148438 494.796875 232.296875 493.949219 232.296875 492.910156 C 232.296875 491.871094 233.148438 491.023438 234.1875 491.023438 L 288.367188 491.023438 C 289.40625 491.023438 290.253906 491.871094 290.253906 492.910156 C 290.253906 493.949219 289.40625 494.796875 288.367188 494.796875 Z M 288.367188 494.796875 " fill-opacity="1" fill-rule="nonzero"/><path fill="#000000" d="M 232.617188 643.140625 C 231.582031 643.140625 230.730469 642.292969 230.730469 641.253906 L 230.730469 489.417969 C 230.730469 488.378906 231.582031 487.527344 232.617188 487.527344 C 233.65625 487.527344 234.507812 488.378906 234.507812 489.417969 L 234.507812 641.253906 C 234.507812 642.292969 233.65625 643.140625 232.617188 643.140625 Z M 232.617188 643.140625 " fill-opacity="1" fill-rule="nonzero"/><path fill="#000000" d="M 225.082031 643.140625 C 224.046875 643.140625 223.195312 642.292969 223.195312 641.253906 L 223.195312 489.417969 C 223.195312 488.378906 224.046875 487.527344 225.082031 487.527344 C 226.121094 487.527344 226.972656 488.378906 226.972656 489.417969 L 226.972656 641.253906 C 226.972656 642.292969 226.121094 643.140625 225.082031 643.140625 Z M 225.082031 643.140625 " fill-opacity="1" fill-rule="nonzero"/><path fill="#000000" d="M 212.1875 643.140625 C 211.148438 643.140625 210.296875 642.292969 210.296875 641.253906 L 210.296875 489.417969 C 210.296875 488.378906 211.148438 487.527344 212.1875 487.527344 C 213.222656 487.527344 214.074219 488.378906 214.074219 489.417969 L 214.074219 641.253906 C 214.074219 642.292969 213.222656 643.140625 212.1875 643.140625 Z M 212.1875 643.140625 " fill-opacity="1" fill-rule="nonzero"/><path fill="#000000" d="M 204.367188 643.140625 C 203.328125 643.140625 202.480469 642.292969 202.480469 641.253906 L 202.480469 489.417969 C 202.480469 488.378906 203.328125 487.527344 204.367188 487.527344 C 205.40625 487.527344 206.257812 488.378906 206.257812 489.417969 L 206.257812 641.253906 C 206.257812 642.292969 205.40625 643.140625 204.367188 643.140625 Z M 204.367188 643.140625 " fill-opacity="1" fill-rule="nonzero"/><g clip-path="url(#41fab5e453)"><path fill="#000000" d="M 336.617188 660.382812 L 74.648438 660.382812 C 73.609375 660.382812 72.761719 659.53125 72.761719 658.492188 C 72.761719 657.453125 73.609375 656.605469 74.648438 656.605469 L 336.617188 656.605469 C 337.65625 656.605469 338.503906 657.453125 338.503906 658.492188 C 338.503906 659.53125 337.65625 660.382812 336.617188 660.382812 Z M 336.617188 660.382812 " fill-opacity="1" fill-rule="nonzero"/></g><path fill="#000000" d="M 202.480469 589.082031 L 85.902344 589.082031 C 84.867188 589.082031 84.015625 588.230469 84.015625 587.191406 C 84.015625 586.152344 84.867188 585.304688 85.902344 585.304688 L 202.460938 585.304688 C 203.5 585.304688 204.347656 586.152344 204.347656 587.191406 C 204.347656 588.230469 203.5 589.082031 202.460938 589.082031 Z M 202.480469 589.082031 " fill-opacity="1" fill-rule="nonzero"/><path fill="#000000" d="M 202.480469 596.632812 L 85.902344 596.632812 C 84.867188 596.632812 84.015625 595.785156 84.015625 594.746094 C 84.015625 593.707031 84.867188 592.855469 85.902344 592.855469 L 202.460938 592.855469 C 203.5 592.855469 204.347656 593.707031 204.347656 594.746094 C 204.347656 595.785156 203.5 596.632812 202.460938 596.632812 Z M 202.480469 596.632812 " fill-opacity="1" fill-rule="nonzero"/><path fill="#000000" d="M 202.480469 604.1875 L 85.902344 604.1875 C 84.867188 604.1875 84.015625 603.335938 84.015625 602.296875 C 84.015625 601.257812 84.867188 600.410156 85.902344 600.410156 L 202.460938 600.410156 C 203.5 600.410156 204.347656 601.257812 204.347656 602.296875 C 204.347656 603.335938 203.5 604.1875 202.460938 604.1875 Z M 202.480469 604.1875 " fill-opacity="1" fill-rule="nonzero"/><path fill="#000000" d="M 95.0625 589.082031 C 94.023438 589.082031 93.175781 588.230469 93.175781 587.191406 L 93.175781 579.507812 C 93.175781 578.46875 94.023438 577.617188 95.0625 577.617188 C 96.101562 577.617188 96.953125 578.46875 96.953125 579.507812 L 96.953125 587.191406 C 96.953125 588.230469 96.101562 589.082031 95.0625 589.082031 Z M 95.0625 589.082031 " fill-opacity="1" fill-rule="nonzero"/><path fill="#000000" d="M 108.925781 589.082031 C 107.886719 589.082031 107.035156 588.230469 107.035156 587.191406 L 107.035156 579.507812 C 107.035156 578.46875 107.886719 577.617188 108.925781 577.617188 C 109.964844 577.617188 110.8125 578.46875 110.8125 579.507812 L 110.8125 587.191406 C 110.8125 588.230469 109.964844 589.082031 108.925781 589.082031 Z M 108.925781 589.082031 " fill-opacity="1" fill-rule="nonzero"/><path fill="#000000" d="M 122.765625 589.082031 C 121.726562 589.082031 120.878906 588.230469 120.878906 587.191406 L 120.878906 579.507812 C 120.878906 578.46875 121.726562 577.617188 122.765625 577.617188 C 123.804688 577.617188 124.65625 578.46875 124.65625 579.507812 L 124.65625 587.191406 C 124.65625 588.230469 123.804688 589.082031 122.765625 589.082031 Z M 122.765625 589.082031 " fill-opacity="1" fill-rule="nonzero"/><path fill="#000000" d="M 136.609375 589.082031 C 135.570312 589.082031 134.722656 588.230469 134.722656 587.191406 L 134.722656 579.507812 C 134.722656 578.46875 135.570312 577.617188 136.609375 577.617188 C 137.648438 577.617188 138.496094 578.46875 138.496094 579.507812 L 138.496094 587.191406 C 138.496094 588.230469 137.648438 589.082031 136.609375 589.082031 Z M 136.609375 589.082031 " fill-opacity="1" fill-rule="nonzero"/><path fill="#000000" d="M 150.472656 589.082031 C 149.433594 589.082031 148.582031 588.230469 148.582031 587.191406 L 148.582031 579.507812 C 148.582031 578.46875 149.433594 577.617188 150.472656 577.617188 C 151.507812 577.617188 152.359375 578.46875 152.359375 579.507812 L 152.359375 587.191406 C 152.359375 588.230469 151.507812 589.082031 150.472656 589.082031 Z M 150.472656 589.082031 " fill-opacity="1" fill-rule="nonzero"/><path fill="#000000" d="M 164.3125 589.082031 C 163.273438 589.082031 162.425781 588.230469 162.425781 587.191406 L 162.425781 579.507812 C 162.425781 578.46875 163.273438 577.617188 164.3125 577.617188 C 165.351562 577.617188 166.203125 578.46875 166.203125 579.507812 L 166.203125 587.191406 C 166.203125 588.230469 165.351562 589.082031 164.3125 589.082031 Z M 164.3125 589.082031 " fill-opacity="1" fill-rule="nonzero"/><path fill="#000000" d="M 178.15625 589.082031 C 177.117188 589.082031 176.265625 588.230469 176.265625 587.191406 L 176.265625 579.507812 C 176.265625 578.46875 177.117188 577.617188 178.15625 577.617188 C 179.195312 577.617188 180.042969 578.46875 180.042969 579.507812 L 180.042969 587.191406 C 180.042969 588.230469 179.195312 589.082031 178.15625 589.082031 Z M 178.15625 589.082031 " fill-opacity="1" fill-rule="nonzero"/><path fill="#000000" d="M 192.015625 589.082031 C 190.976562 589.082031 190.128906 588.230469 190.128906 587.191406 L 190.128906 579.507812 C 190.128906 578.46875 190.976562 577.617188 192.015625 577.617188 C 193.054688 577.617188 193.90625 578.46875 193.90625 579.507812 L 193.90625 587.191406 C 193.90625 588.230469 193.054688 589.082031 192.015625 589.082031 Z M 192.015625 589.082031 " fill-opacity="1" fill-rule="nonzero"/><path fill="#000000" d="M 333.121094 414.90625 C 332.085938 414.90625 331.234375 414.054688 331.234375 413.015625 L 331.234375 405.332031 C 331.234375 404.292969 332.085938 403.441406 333.121094 403.441406 C 334.160156 403.441406 335.011719 404.292969 335.011719 405.332031 L 335.011719 413.015625 C 335.011719 414.054688 334.160156 414.90625 333.121094 414.90625 Z M 333.121094 414.90625 " fill-opacity="1" fill-rule="nonzero"/><path fill="#000000" d="M 345.472656 414.90625 C 344.433594 414.90625 343.585938 414.054688 343.585938 413.015625 L 343.585938 405.332031 C 343.585938 404.292969 344.433594 403.441406 345.472656 403.441406 C 346.511719 403.441406 347.363281 404.292969 347.363281 405.332031 L 347.363281 413.015625 C 347.363281 414.054688 346.511719 414.90625 345.472656 414.90625 Z M 345.472656 414.90625 " fill-opacity="1" fill-rule="nonzero"/><path fill="#000000" d="M 357.804688 414.90625 C 356.765625 414.90625 355.917969 414.054688 355.917969 413.015625 L 355.917969 405.332031 C 355.917969 404.292969 356.765625 403.441406 357.804688 403.441406 C 358.84375 403.441406 359.695312 404.292969 359.695312 405.332031 L 359.695312 413.015625 C 359.695312 414.054688 358.84375 414.90625 357.804688 414.90625 Z M 357.804688 414.90625 " fill-opacity="1" fill-rule="nonzero"/><path fill="#000000" d="M 370.15625 414.90625 C 369.117188 414.90625 368.265625 414.054688 368.265625 413.015625 L 368.265625 405.332031 C 368.265625 404.292969 369.117188 403.441406 370.15625 403.441406 C 371.195312 403.441406 372.042969 404.292969 372.042969 405.332031 L 372.042969 413.015625 C 372.042969 414.054688 371.195312 414.90625 370.15625 414.90625 Z M 370.15625 414.90625 " fill-opacity="1" fill-rule="nonzero"/><path fill="#000000" d="M 382.507812 414.90625 C 381.46875 414.90625 380.617188 414.054688 380.617188 413.015625 L 380.617188 405.332031 C 380.617188 404.292969 381.46875 403.441406 382.507812 403.441406 C 383.542969 403.441406 384.394531 404.292969 384.394531 405.332031 L 384.394531 413.015625 C 384.394531 414.054688 383.542969 414.90625 382.507812 414.90625 Z M 382.507812 414.90625 " fill-opacity="1" fill-rule="nonzero"/><path fill="#000000" d="M 423.316406 414.90625 C 422.277344 414.90625 421.425781 414.054688 421.425781 413.015625 L 421.425781 405.332031 C 421.425781 404.292969 422.277344 403.441406 423.316406 403.441406 C 424.355469 403.441406 425.203125 404.292969 425.203125 405.332031 L 425.203125 413.015625 C 425.203125 414.054688 424.355469 414.90625 423.316406 414.90625 Z M 423.316406 414.90625 " fill-opacity="1" fill-rule="nonzero"/><path fill="#000000" d="M 436.121094 414.90625 C 435.082031 414.90625 434.230469 414.054688 434.230469 413.015625 L 434.230469 405.332031 C 434.230469 404.292969 435.082031 403.441406 436.121094 403.441406 C 437.15625 403.441406 438.007812 404.292969 438.007812 405.332031 L 438.007812 413.015625 C 438.007812 414.054688 437.15625 414.90625 436.121094 414.90625 Z M 436.121094 414.90625 " fill-opacity="1" fill-rule="nonzero"/><path fill="#000000" d="M 448.90625 414.90625 C 447.867188 414.90625 447.015625 414.054688 447.015625 413.015625 L 447.015625 405.332031 C 447.015625 404.292969 447.867188 403.441406 448.90625 403.441406 C 449.941406 403.441406 450.792969 404.292969 450.792969 405.332031 L 450.792969 413.015625 C 450.792969 414.054688 449.941406 414.90625 448.90625 414.90625 Z M 448.90625 414.90625 " fill-opacity="1" fill-rule="nonzero"/><path fill="#000000" d="M 461.707031 414.90625 C 460.667969 414.90625 459.820312 414.054688 459.820312 413.015625 L 459.820312 405.332031 C 459.820312 404.292969 460.667969 403.441406 461.707031 403.441406 C 462.746094 403.441406 463.597656 404.292969 463.597656 405.332031 L 463.597656 413.015625 C 463.597656 414.054688 462.746094 414.90625 461.707031 414.90625 Z M 461.707031 414.90625 " fill-opacity="1" fill-rule="nonzero"/><path fill="#000000" d="M 474.511719 414.90625 C 473.472656 414.90625 472.625 414.054688 472.625 413.015625 L 472.625 405.332031 C 472.625 404.292969 473.472656 403.441406 474.511719 403.441406 C 475.550781 403.441406 476.398438 404.292969 476.398438 405.332031 L 476.398438 413.015625 C 476.398438 414.054688 475.550781 414.90625 474.511719 414.90625 Z M 474.511719 414.90625 " fill-opacity="1" fill-rule="nonzero"/><path fill="#000000" d="M 285.664062 567.214844 L 240.644531 567.214844 C 238.773438 567.214844 237.265625 565.703125 237.265625 563.832031 L 237.265625 524.351562 C 237.265625 510.074219 248.878906 498.460938 263.15625 498.460938 C 277.433594 498.460938 289.046875 510.074219 289.046875 524.351562 L 289.046875 563.832031 C 289.046875 565.703125 287.535156 567.214844 285.664062 567.214844 Z M 241.023438 563.4375 L 285.269531 563.4375 L 285.269531 524.351562 C 285.269531 512.152344 275.355469 502.238281 263.15625 502.238281 C 250.957031 502.238281 241.042969 512.152344 241.042969 524.351562 L 241.042969 563.4375 Z M 241.023438 563.4375 " fill-opacity="1" fill-rule="nonzero"/><path fill="#000000" d="M 280.359375 660.136719 L 243.855469 660.136719 C 242.15625 660.136719 240.757812 658.738281 240.757812 657.039062 L 240.757812 606.660156 C 240.757812 594.894531 250.332031 585.304688 262.117188 585.304688 C 273.902344 585.304688 283.476562 594.878906 283.476562 606.660156 L 283.476562 657.039062 C 283.476562 658.738281 282.078125 660.136719 280.378906 660.136719 Z M 244.535156 656.359375 L 279.679688 656.359375 L 279.679688 606.660156 C 279.679688 596.972656 271.804688 589.082031 262.097656 589.082031 C 252.390625 589.082031 244.515625 596.953125 244.515625 606.660156 L 244.515625 656.359375 Z M 244.535156 656.359375 " fill-opacity="1" fill-rule="nonzero"/><path fill="#000000" d="M 116.816406 660.136719 L 85.433594 660.136719 C 83.921875 660.136719 82.695312 658.910156 82.695312 657.398438 L 82.695312 626.542969 C 82.695312 616.421875 90.925781 608.207031 101.03125 608.207031 C 111.132812 608.207031 119.539062 616.441406 119.539062 626.542969 L 119.539062 657.398438 C 119.539062 658.910156 118.308594 660.136719 116.800781 660.136719 Z M 86.472656 656.359375 L 115.78125 656.359375 L 115.78125 626.542969 C 115.78125 618.519531 109.246094 611.984375 101.21875 611.984375 C 93.195312 611.984375 86.488281 618.519531 86.488281 626.542969 L 86.488281 656.359375 Z M 86.472656 656.359375 " fill-opacity="1" fill-rule="nonzero"/><path fill="#000000" d="M 156.117188 660.382812 L 124.730469 660.382812 C 123.21875 660.382812 121.992188 659.15625 121.992188 657.644531 L 121.992188 626.394531 C 121.992188 616.234375 130.265625 607.964844 140.425781 607.964844 C 150.585938 607.964844 158.855469 616.234375 158.855469 626.394531 L 158.855469 657.644531 C 158.855469 659.15625 157.628906 660.382812 156.117188 660.382812 Z M 125.769531 656.605469 L 155.078125 656.605469 L 155.078125 626.394531 C 155.078125 618.3125 148.507812 611.738281 140.425781 611.738281 C 132.339844 611.738281 125.769531 618.3125 125.769531 626.394531 Z M 125.769531 656.605469 " fill-opacity="1" fill-rule="nonzero"/><path fill="#000000" d="M 195.320312 660.136719 L 163.933594 660.136719 C 162.425781 660.136719 161.195312 658.910156 161.195312 657.398438 L 161.195312 626.355469 C 161.195312 616.214844 169.449219 607.964844 179.589844 607.964844 C 189.730469 607.964844 198.058594 616.214844 198.058594 626.355469 L 198.058594 657.398438 C 198.058594 658.910156 196.832031 660.136719 195.320312 660.136719 Z M 164.972656 656.359375 L 194.28125 656.359375 L 194.28125 626.355469 C 194.28125 618.292969 187.730469 611.738281 179.667969 611.738281 C 171.601562 611.738281 164.972656 618.292969 164.972656 626.355469 Z M 164.972656 656.359375 " fill-opacity="1" fill-rule="nonzero"/><path fill="#000000" d="M 293.671875 576.691406 L 232.617188 576.691406 C 231.582031 576.691406 230.730469 575.84375 230.730469 574.804688 C 230.730469 573.765625 231.582031 572.917969 232.617188 572.917969 L 293.671875 572.917969 C 294.710938 572.917969 295.5625 573.765625 295.5625 574.804688 C 295.5625 575.84375 294.710938 576.691406 293.671875 576.691406 Z M 293.671875 576.691406 " fill-opacity="1" fill-rule="nonzero"/><path fill="#000000" d="M 471.886719 660.382812 L 334.160156 660.382812 C 333.121094 660.382812 332.273438 659.53125 332.273438 658.492188 L 332.273438 544.042969 C 332.273438 543.460938 332.539062 542.910156 332.992188 542.554688 C 337.636719 538.925781 337.296875 535.566406 335.390625 531.65625 C 333.539062 527.882812 335.257812 524.066406 336.351562 522.253906 C 335.105469 519.800781 334.859375 517.402344 335.632812 515.136719 C 336.765625 511.847656 339.828125 509.773438 341.773438 508.734375 C 340.808594 505.484375 341.054688 502.710938 342.507812 500.464844 C 344.398438 497.554688 347.832031 496.441406 349.988281 496.027344 C 349.988281 493.230469 350.835938 490.984375 352.535156 489.324219 C 355.105469 486.8125 358.957031 486.394531 361.222656 486.433594 C 361.976562 482.75 363.640625 480.238281 366.171875 478.957031 C 369.285156 477.386719 372.875 478.179688 375.121094 479.011719 C 376.199219 475.6875 377.972656 473.59375 380.429688 472.78125 C 383.808594 471.628906 387.359375 473.367188 389.398438 474.6875 C 392.230469 471.175781 395.894531 470.722656 398.519531 470.722656 C 400.3125 470.722656 401.164062 467.703125 401.164062 467.664062 C 401.371094 466.832031 402.128906 466.246094 402.996094 466.246094 C 403.863281 466.246094 404.601562 466.832031 404.828125 467.664062 C 404.828125 467.71875 405.675781 470.722656 407.472656 470.722656 C 410.117188 470.722656 413.761719 471.175781 416.59375 474.6875 C 418.632812 473.347656 422.183594 471.628906 425.5625 472.78125 C 428 473.613281 429.773438 475.707031 430.851562 479.011719 C 433.097656 478.179688 436.6875 477.386719 439.800781 478.957031 C 442.332031 480.238281 443.996094 482.75 444.75 486.433594 C 447.035156 486.414062 450.867188 486.792969 453.4375 489.324219 C 455.136719 490.984375 455.984375 493.230469 455.984375 496.027344 C 458.140625 496.441406 461.574219 497.554688 463.464844 500.464844 C 464.917969 502.710938 465.164062 505.46875 464.199219 508.734375 C 466.144531 509.753906 469.207031 511.832031 470.339844 515.136719 C 471.113281 517.402344 470.886719 519.78125 469.621094 522.253906 C 470.714844 524.066406 472.433594 527.882812 470.582031 531.65625 C 468.65625 535.585938 468.335938 538.925781 472.980469 542.554688 C 473.433594 542.910156 473.699219 543.460938 473.699219 544.042969 L 473.699219 658.492188 C 473.699219 659.53125 472.851562 660.382812 471.8125 660.382812 Z M 336.070312 656.605469 L 470.015625 656.605469 L 470.015625 544.933594 C 462.953125 538.832031 466.183594 532.222656 467.277344 529.996094 C 468.714844 527.050781 466.050781 523.539062 466.015625 523.5 C 465.523438 522.878906 465.464844 522.007812 465.902344 521.328125 C 467.050781 519.476562 467.375 517.855469 466.863281 516.363281 C 465.789062 513.226562 461.347656 511.527344 461.3125 511.507812 C 460.839844 511.339844 460.441406 510.980469 460.234375 510.507812 C 460.027344 510.035156 460.007812 509.507812 460.199219 509.035156 C 461.3125 506.242188 461.386719 504.050781 460.386719 502.519531 C 458.648438 499.820312 454.039062 499.558594 454.003906 499.558594 C 453.472656 499.539062 452.984375 499.292969 452.644531 498.894531 C 452.304688 498.5 452.152344 497.96875 452.210938 497.441406 C 452.511719 495.007812 452.058594 493.191406 450.886719 492.023438 C 448.46875 489.664062 443.558594 490.304688 443.523438 490.304688 C 443.011719 490.378906 442.503906 490.246094 442.105469 489.925781 C 441.710938 489.625 441.445312 489.152344 441.386719 488.640625 C 440.992188 485.339844 439.933594 483.203125 438.214844 482.335938 C 435.667969 481.03125 431.871094 482.582031 430.625 483.28125 C 430.09375 483.582031 429.453125 483.601562 428.90625 483.355469 C 428.359375 483.109375 427.960938 482.617188 427.828125 482.015625 C 427.375 479.804688 426.414062 477.011719 424.429688 476.351562 C 422.011719 475.519531 418.558594 477.839844 417.441406 478.804688 C 417.007812 479.164062 416.441406 479.332031 415.894531 479.238281 C 415.347656 479.144531 414.855469 478.804688 414.570312 478.3125 C 412.757812 475.160156 410.457031 474.519531 407.546875 474.519531 C 405.582031 474.519531 404.109375 473.535156 403.070312 472.269531 C 402.03125 473.535156 400.558594 474.519531 398.59375 474.519531 C 395.6875 474.519531 393.363281 475.160156 391.570312 478.3125 C 391.289062 478.804688 390.816406 479.144531 390.25 479.238281 C 389.683594 479.332031 389.117188 479.183594 388.699219 478.804688 C 387.585938 477.839844 384.148438 475.539062 381.710938 476.351562 C 379.75 477.03125 378.785156 479.804688 378.3125 482.015625 C 378.199219 482.601562 377.785156 483.109375 377.238281 483.355469 C 376.691406 483.601562 376.046875 483.582031 375.519531 483.28125 C 374.273438 482.582031 370.457031 481.050781 367.925781 482.335938 C 366.207031 483.203125 365.152344 485.339844 364.753906 488.640625 C 364.699219 489.152344 364.433594 489.605469 364.035156 489.925781 C 363.640625 490.230469 363.113281 490.359375 362.621094 490.304688 C 361.261719 490.117188 357.257812 490.039062 355.238281 492.042969 C 354.066406 493.191406 353.613281 495.007812 353.914062 497.441406 C 353.972656 497.96875 353.820312 498.5 353.480469 498.894531 C 353.140625 499.292969 352.648438 499.539062 352.121094 499.558594 C 350.835938 499.613281 347.171875 500.273438 345.71875 502.539062 C 344.738281 504.070312 344.8125 506.261719 345.925781 509.035156 C 346.117188 509.507812 346.097656 510.035156 345.886719 510.507812 C 345.679688 510.980469 345.285156 511.339844 344.8125 511.507812 C 343.566406 511.960938 340.148438 513.738281 339.242188 516.382812 C 338.730469 517.855469 339.050781 519.476562 340.203125 521.328125 C 340.621094 522.007812 340.582031 522.878906 340.089844 523.5 C 340.070312 523.519531 337.390625 527.050781 338.824219 529.996094 C 339.921875 532.222656 343.148438 538.832031 336.085938 544.933594 L 336.085938 656.605469 Z M 336.070312 656.605469 " fill-opacity="1" fill-rule="nonzero"/><path fill="#000000" d="M 459.933594 485.113281 C 453.644531 485.113281 448.527344 479.996094 448.527344 473.707031 C 448.527344 467.417969 453.644531 462.300781 459.933594 462.300781 C 466.222656 462.300781 471.339844 467.417969 471.339844 473.707031 C 471.339844 479.996094 466.222656 485.113281 459.933594 485.113281 Z M 459.933594 466.097656 C 455.722656 466.097656 452.304688 469.515625 452.304688 473.726562 C 452.304688 477.9375 455.722656 481.355469 459.933594 481.355469 C 464.144531 481.355469 467.5625 477.9375 467.5625 473.726562 C 467.5625 469.515625 464.144531 466.097656 459.933594 466.097656 Z M 459.933594 466.097656 " fill-opacity="1" fill-rule="nonzero"/><path fill="#000000" d="M 477.269531 459.375 L 328.777344 459.375 C 327.742188 459.375 326.890625 458.523438 326.890625 457.484375 C 326.890625 456.449219 327.742188 455.597656 328.777344 455.597656 L 477.269531 455.597656 C 478.308594 455.597656 479.15625 456.449219 479.15625 457.484375 C 479.15625 458.523438 478.308594 459.375 477.269531 459.375 Z M 477.269531 459.375 " fill-opacity="1" fill-rule="nonzero"/><path fill="#000000" d="M 479.234375 640.933594 C 478.195312 640.933594 477.34375 640.082031 477.34375 639.042969 L 477.34375 451.066406 C 477.34375 450.027344 478.195312 449.175781 479.234375 449.175781 C 480.273438 449.175781 481.121094 450.027344 481.121094 451.066406 L 481.121094 639.0625 C 481.121094 640.101562 480.273438 640.953125 479.234375 640.953125 Z M 479.234375 640.933594 " fill-opacity="1" fill-rule="nonzero"/><path fill="#000000" d="M 488.882812 640.933594 C 487.84375 640.933594 486.996094 640.082031 486.996094 639.042969 L 486.996094 451.066406 C 486.996094 450.027344 487.84375 449.175781 488.882812 449.175781 C 489.921875 449.175781 490.773438 450.027344 490.773438 451.066406 L 490.773438 639.0625 C 490.773438 640.101562 489.921875 640.953125 488.882812 640.953125 Z M 488.882812 640.933594 " fill-opacity="1" fill-rule="nonzero"/><path fill="#000000" d="M 503.574219 640.933594 C 502.535156 640.933594 501.6875 640.082031 501.6875 639.042969 L 501.6875 451.066406 C 501.6875 450.027344 502.535156 449.175781 503.574219 449.175781 C 504.613281 449.175781 505.464844 450.027344 505.464844 451.066406 L 505.464844 639.0625 C 505.464844 640.101562 504.613281 640.953125 503.574219 640.953125 Z M 503.574219 640.933594 " fill-opacity="1" fill-rule="nonzero"/><path fill="#000000" d="M 512.394531 640.933594 C 511.355469 640.933594 510.507812 640.082031 510.507812 639.042969 L 510.507812 451.066406 C 510.507812 450.027344 511.355469 449.175781 512.394531 449.175781 C 513.433594 449.175781 514.28125 450.027344 514.28125 451.066406 L 514.28125 639.0625 C 514.28125 640.101562 513.433594 640.953125 512.394531 640.953125 Z M 512.394531 640.933594 " fill-opacity="1" fill-rule="nonzero"/><path fill="#000000" d="M 516.019531 660.382812 L 475.457031 660.382812 C 474.417969 660.382812 473.566406 659.53125 473.566406 658.492188 L 473.566406 639.042969 C 473.566406 638.003906 474.417969 637.15625 475.457031 637.15625 L 516.019531 637.15625 C 517.058594 637.15625 517.910156 638.003906 517.910156 639.042969 L 517.910156 658.492188 C 517.910156 659.53125 517.058594 660.382812 516.019531 660.382812 Z M 477.34375 656.605469 L 514.132812 656.605469 L 514.132812 640.933594 L 477.34375 640.933594 Z M 477.34375 656.605469 " fill-opacity="1" fill-rule="nonzero"/><path fill="#000000" d="M 604.777344 660.382812 L 571.863281 660.382812 C 570.824219 660.382812 569.972656 659.53125 569.972656 658.492188 L 569.972656 641.253906 C 569.972656 640.214844 570.824219 639.363281 571.863281 639.363281 L 604.777344 639.363281 C 605.816406 639.363281 606.667969 640.214844 606.667969 641.253906 L 606.667969 658.492188 C 606.667969 659.53125 605.816406 660.382812 604.777344 660.382812 Z M 573.769531 656.605469 L 602.910156 656.605469 L 602.910156 643.140625 L 573.769531 643.140625 Z M 573.769531 656.605469 " fill-opacity="1" fill-rule="nonzero"/><path fill="#000000" d="M 532.808594 447.761719 L 273.257812 447.761719 C 272.410156 447.761719 271.671875 447.195312 271.445312 446.382812 C 271.21875 445.570312 271.558594 444.703125 272.296875 444.269531 L 290.347656 433.355469 C 290.652344 433.183594 290.972656 433.089844 291.332031 433.089844 L 514.792969 433.089844 C 515.132812 433.089844 515.472656 433.183594 515.773438 433.355469 L 533.828125 444.269531 C 534.546875 444.703125 534.90625 445.570312 534.679688 446.382812 C 534.453125 447.195312 533.714844 447.761719 532.867188 447.761719 Z M 280.019531 443.984375 L 526.027344 443.984375 L 514.226562 436.847656 L 291.804688 436.847656 L 280 443.984375 Z M 280.019531 443.984375 " fill-opacity="1" fill-rule="nonzero"/><path fill="#000000" d="M 616.75 485.113281 L 517.71875 485.113281 C 516.679688 485.113281 515.832031 484.261719 515.832031 483.222656 C 515.832031 482.183594 516.679688 481.335938 517.71875 481.335938 L 608.761719 481.335938 L 602.039062 477.972656 L 517.71875 477.972656 C 516.679688 477.972656 515.832031 477.125 515.832031 476.085938 C 515.832031 475.046875 516.679688 474.195312 517.71875 474.195312 L 602.492188 474.195312 C 602.796875 474.195312 603.078125 474.273438 603.34375 474.40625 L 617.621094 481.542969 C 618.414062 481.9375 618.808594 482.808594 618.621094 483.65625 C 618.414062 484.507812 617.65625 485.113281 616.789062 485.113281 Z M 616.75 485.113281 " fill-opacity="1" fill-rule="nonzero"/><path fill="#000000" d="M 574.769531 459.375 L 517.699219 459.375 C 516.664062 459.375 515.8125 458.523438 515.8125 457.484375 C 515.8125 456.449219 516.664062 455.597656 517.699219 455.597656 L 574.769531 455.597656 C 575.808594 455.597656 576.660156 456.449219 576.660156 457.484375 C 576.660156 458.523438 575.808594 459.375 574.769531 459.375 Z M 574.769531 459.375 " fill-opacity="1" fill-rule="nonzero"/><path fill="#000000" d="M 599.960938 476.726562 L 576.035156 476.726562 C 574.996094 476.726562 574.148438 475.878906 574.148438 474.839844 C 574.148438 474.652344 574.183594 474.460938 574.222656 474.273438 C 574.164062 474.101562 574.148438 473.914062 574.148438 473.707031 L 574.148438 441.472656 C 574.148438 440.433594 574.996094 439.585938 576.035156 439.585938 L 599.960938 439.585938 C 601 439.585938 601.851562 440.433594 601.851562 441.472656 L 601.851562 474.839844 C 601.851562 475.878906 601 476.726562 599.960938 476.726562 Z M 577.925781 472.949219 L 598.074219 472.949219 L 598.074219 443.363281 L 577.925781 443.363281 Z M 577.925781 472.949219 " fill-opacity="1" fill-rule="nonzero"/><path fill="#000000" d="M 595.015625 468.417969 L 580.964844 468.417969 C 579.925781 468.417969 579.074219 467.570312 579.074219 466.53125 L 579.074219 456.804688 C 579.074219 451.898438 583.078125 447.894531 587.988281 447.894531 C 592.898438 447.894531 596.902344 451.898438 596.902344 456.804688 L 596.902344 466.53125 C 596.902344 467.570312 596.054688 468.417969 595.015625 468.417969 Z M 582.871094 464.640625 L 593.144531 464.640625 L 593.144531 456.804688 C 593.144531 453.972656 590.839844 451.671875 588.007812 451.671875 C 585.175781 451.671875 582.871094 453.972656 582.871094 456.804688 Z M 582.871094 464.640625 " fill-opacity="1" fill-rule="nonzero"/><path fill="#000000" d="M 610.160156 443.363281 L 567.214844 443.363281 C 566.441406 443.363281 565.761719 442.890625 565.460938 442.191406 C 565.175781 441.472656 565.347656 440.660156 565.894531 440.132812 L 574.714844 431.523438 C 575.074219 431.183594 575.542969 430.992188 576.035156 430.992188 L 599.960938 430.992188 C 600.414062 430.992188 600.832031 431.144531 601.171875 431.445312 L 611.386719 440.058594 C 611.992188 440.566406 612.21875 441.398438 611.933594 442.152344 C 611.671875 442.890625 610.953125 443.398438 610.160156 443.398438 Z M 571.863281 439.585938 L 605.003906 439.585938 L 599.28125 434.75 L 576.828125 434.75 L 571.882812 439.585938 Z M 571.863281 439.585938 " fill-opacity="1" fill-rule="nonzero"/><path fill="#000000" d="M 599.019531 434.035156 L 576.5625 434.035156 C 575.527344 434.035156 574.675781 433.183594 574.675781 432.144531 L 574.675781 422.816406 C 574.675781 421.777344 575.527344 420.929688 576.5625 420.929688 L 599.019531 420.929688 C 600.058594 420.929688 600.90625 421.777344 600.90625 422.816406 L 600.90625 432.144531 C 600.90625 433.183594 600.058594 434.035156 599.019531 434.035156 Z M 578.453125 430.257812 L 597.128906 430.257812 L 597.128906 424.707031 L 578.453125 424.707031 Z M 578.453125 430.257812 " fill-opacity="1" fill-rule="nonzero"/><path fill="#000000" d="M 599.019531 424.6875 L 576.789062 424.6875 C 575.753906 424.6875 574.902344 423.835938 574.902344 422.796875 L 574.902344 421.742188 C 574.902344 414.566406 580.738281 408.730469 587.914062 408.730469 C 595.089844 408.730469 600.925781 414.566406 600.925781 421.742188 L 600.925781 422.796875 C 600.925781 423.835938 600.074219 424.6875 599.039062 424.6875 Z M 578.699219 420.910156 L 597.074219 420.910156 C 596.65625 416.207031 592.691406 412.527344 587.875 412.527344 C 583.0625 412.527344 579.113281 416.226562 578.679688 420.910156 Z M 578.699219 420.910156 " fill-opacity="1" fill-rule="nonzero"/><path fill="#000000" d="M 587.894531 412.527344 C 586.855469 412.527344 586.007812 411.675781 586.007812 410.636719 L 586.007812 399.421875 C 586.007812 398.382812 586.855469 397.53125 587.894531 397.53125 C 588.933594 397.53125 589.785156 398.382812 589.785156 399.421875 L 589.785156 410.636719 C 589.785156 411.675781 588.933594 412.527344 587.894531 412.527344 Z M 587.894531 412.527344 " fill-opacity="1" fill-rule="nonzero"/><path fill="#000000" d="M 512.90625 436.921875 L 480.953125 436.921875 C 479.914062 436.921875 479.0625 436.074219 479.0625 435.035156 C 479.0625 434.789062 479.121094 434.542969 479.195312 434.316406 C 479.101562 434.089844 479.0625 433.863281 479.0625 433.597656 L 479.0625 392.660156 C 479.0625 391.621094 479.914062 390.773438 480.953125 390.773438 L 512.90625 390.773438 C 513.941406 390.773438 514.792969 391.621094 514.792969 392.660156 L 514.792969 435.015625 C 514.792969 436.054688 513.941406 436.902344 512.90625 436.902344 Z M 482.839844 433.144531 L 511.015625 433.144531 L 511.015625 394.570312 L 482.839844 394.570312 Z M 482.839844 433.144531 " fill-opacity="1" fill-rule="nonzero"/><path fill="#000000" d="M 506.085938 428.273438 L 487.789062 428.273438 C 486.617188 428.273438 485.671875 427.332031 485.671875 426.160156 L 485.671875 414.507812 C 485.671875 408.296875 490.734375 403.234375 496.945312 403.234375 C 503.160156 403.234375 508.222656 408.296875 508.222656 414.507812 L 508.222656 426.160156 C 508.222656 427.332031 507.277344 428.273438 506.105469 428.273438 Z M 489.449219 424.496094 L 504.425781 424.496094 L 504.425781 414.488281 C 504.425781 410.355469 501.0625 406.992188 496.929688 406.992188 C 492.792969 406.992188 489.429688 410.355469 489.429688 414.488281 L 489.429688 424.496094 Z M 489.449219 424.496094 " fill-opacity="1" fill-rule="nonzero"/><path fill="#000000" d="M 339.523438 429.351562 L 330.367188 429.351562 C 329.648438 429.351562 329.042969 428.765625 329.042969 428.027344 L 329.042969 422.324219 C 329.042969 419.378906 331.441406 417 334.367188 417 L 335.503906 417 C 338.449219 417 340.828125 419.398438 340.828125 422.324219 L 340.828125 428.027344 C 340.828125 428.746094 340.242188 429.351562 339.503906 429.351562 Z M 330.933594 427.460938 L 338.9375 427.460938 L 338.9375 422.324219 C 338.9375 420.4375 337.390625 418.890625 335.503906 418.890625 L 334.367188 418.890625 C 332.480469 418.890625 330.933594 420.4375 330.933594 422.324219 Z M 330.933594 427.460938 " fill-opacity="1" fill-rule="nonzero"/><path fill="#000000" d="M 354.765625 429.351562 L 345.605469 429.351562 C 344.886719 429.351562 344.285156 428.765625 344.285156 428.027344 L 344.285156 422.324219 C 344.285156 419.378906 346.683594 417 349.609375 417 L 350.742188 417 C 353.6875 417 356.066406 419.398438 356.066406 422.324219 L 356.066406 428.027344 C 356.066406 428.746094 355.480469 429.351562 354.746094 429.351562 Z M 346.191406 427.460938 L 354.199219 427.460938 L 354.199219 422.324219 C 354.199219 420.4375 352.648438 418.890625 350.761719 418.890625 L 349.628906 418.890625 C 347.738281 418.890625 346.191406 420.4375 346.191406 422.324219 Z M 346.191406 427.460938 " fill-opacity="1" fill-rule="nonzero"/><path fill="#000000" d="M 370.003906 429.351562 L 360.84375 429.351562 C 360.128906 429.351562 359.523438 428.765625 359.523438 428.027344 L 359.523438 422.324219 C 359.523438 419.378906 361.921875 417 364.847656 417 L 365.980469 417 C 368.929688 417 371.308594 419.398438 371.308594 422.324219 L 371.308594 428.027344 C 371.308594 428.746094 370.722656 429.351562 369.984375 429.351562 Z M 361.429688 427.460938 L 369.4375 427.460938 L 369.4375 422.324219 C 369.4375 420.4375 367.890625 418.890625 366 418.890625 L 364.867188 418.890625 C 362.980469 418.890625 361.429688 420.4375 361.429688 422.324219 Z M 361.429688 427.460938 " fill-opacity="1" fill-rule="nonzero"/><path fill="#000000" d="M 385.261719 429.351562 L 376.105469 429.351562 C 375.386719 429.351562 374.78125 428.765625 374.78125 428.027344 L 374.78125 422.324219 C 374.78125 419.378906 377.179688 417 380.109375 417 L 381.242188 417 C 384.1875 417 386.566406 419.398438 386.566406 422.324219 L 386.566406 428.027344 C 386.566406 428.746094 385.980469 429.351562 385.246094 429.351562 Z M 376.671875 427.460938 L 384.679688 427.460938 L 384.679688 422.324219 C 384.679688 420.4375 383.128906 418.890625 381.242188 418.890625 L 380.109375 418.890625 C 378.21875 418.890625 376.671875 420.4375 376.671875 422.324219 Z M 376.671875 427.460938 " fill-opacity="1" fill-rule="nonzero"/><path fill="#000000" d="M 475.191406 429.351562 L 466.03125 429.351562 C 465.316406 429.351562 464.710938 428.765625 464.710938 428.027344 L 464.710938 422.324219 C 464.710938 419.378906 467.109375 417 470.035156 417 L 471.167969 417 C 474.117188 417 476.496094 419.398438 476.496094 422.324219 L 476.496094 428.027344 C 476.496094 428.746094 475.910156 429.351562 475.171875 429.351562 Z M 466.617188 427.460938 L 474.625 427.460938 L 474.625 422.324219 C 474.625 420.4375 473.078125 418.890625 471.1875 418.890625 L 470.054688 418.890625 C 468.167969 418.890625 466.617188 420.4375 466.617188 422.324219 Z M 466.617188 427.460938 " fill-opacity="1" fill-rule="nonzero"/><path fill="#000000" d="M 459.953125 429.351562 L 450.792969 429.351562 C 450.074219 429.351562 449.472656 428.765625 449.472656 428.027344 L 449.472656 422.324219 C 449.472656 419.378906 451.871094 417 454.796875 417 L 455.929688 417 C 458.875 417 461.253906 419.398438 461.253906 422.324219 L 461.253906 428.027344 C 461.253906 428.746094 460.667969 429.351562 459.933594 429.351562 Z M 451.378906 427.460938 L 459.386719 427.460938 L 459.386719 422.324219 C 459.386719 420.4375 457.835938 418.890625 455.949219 418.890625 L 454.816406 418.890625 C 452.925781 418.890625 451.378906 420.4375 451.378906 422.324219 Z M 451.378906 427.460938 " fill-opacity="1" fill-rule="nonzero"/><path fill="#000000" d="M 444.710938 429.351562 L 435.554688 429.351562 C 434.835938 429.351562 434.230469 428.765625 434.230469 428.027344 L 434.230469 422.324219 C 434.230469 419.378906 436.628906 417 439.554688 417 L 440.691406 417 C 443.636719 417 446.015625 419.398438 446.015625 422.324219 L 446.015625 428.027344 C 446.015625 428.746094 445.429688 429.351562 444.691406 429.351562 Z M 436.121094 427.460938 L 444.125 427.460938 L 444.125 422.324219 C 444.125 420.4375 442.578125 418.890625 440.691406 418.890625 L 439.554688 418.890625 C 437.667969 418.890625 436.121094 420.4375 436.121094 422.324219 Z M 436.121094 427.460938 " fill-opacity="1" fill-rule="nonzero"/><path fill="#000000" d="M 429.453125 429.351562 L 420.292969 429.351562 C 419.578125 429.351562 418.972656 428.765625 418.972656 428.027344 L 418.972656 422.324219 C 418.972656 419.378906 421.371094 417 424.296875 417 L 425.429688 417 C 428.375 417 430.757812 419.398438 430.757812 422.324219 L 430.757812 428.027344 C 430.757812 428.746094 430.171875 429.351562 429.433594 429.351562 Z M 420.878906 427.460938 L 428.886719 427.460938 L 428.886719 422.324219 C 428.886719 420.4375 427.339844 418.890625 425.449219 418.890625 L 424.316406 418.890625 C 422.429688 418.890625 420.878906 420.4375 420.878906 422.324219 Z M 420.878906 427.460938 " fill-opacity="1" fill-rule="nonzero"/><path fill="#000000" d="M 410.34375 427.460938 L 395.726562 427.460938 L 395.726562 409.996094 C 395.726562 405.972656 399.011719 402.6875 403.035156 402.6875 C 407.054688 402.6875 410.34375 405.972656 410.34375 409.996094 Z M 397.613281 425.574219 L 408.453125 425.574219 L 408.453125 409.996094 C 408.453125 407.011719 406.015625 404.578125 403.035156 404.578125 C 400.050781 404.578125 397.613281 407.011719 397.613281 409.996094 Z M 397.613281 425.574219 " fill-opacity="1" fill-rule="nonzero"/><path fill="#000000" d="M 526.558594 394.570312 L 469.1875 394.570312 C 468.414062 394.570312 467.714844 394.097656 467.429688 393.378906 C 467.148438 392.660156 467.335938 391.832031 467.902344 391.300781 L 479.667969 380.386719 C 480.027344 380.066406 480.480469 379.878906 480.953125 379.878906 L 512.902344 379.878906 C 513.339844 379.878906 513.753906 380.027344 514.074219 380.292969 L 527.710938 391.207031 C 528.332031 391.71875 528.578125 392.546875 528.3125 393.304688 C 528.050781 394.058594 527.332031 394.570312 526.539062 394.570312 Z M 474.003906 390.792969 L 521.175781 390.792969 L 512.242188 383.652344 L 481.6875 383.652344 L 473.984375 390.792969 Z M 474.003906 390.792969 " fill-opacity="1" fill-rule="nonzero"/><path fill="#000000" d="M 511.640625 382.710938 L 481.648438 382.710938 C 480.613281 382.710938 479.761719 381.859375 479.761719 380.820312 L 479.761719 368.964844 C 479.761719 367.925781 480.613281 367.074219 481.648438 367.074219 L 511.640625 367.074219 C 512.675781 367.074219 513.527344 367.925781 513.527344 368.964844 L 513.527344 380.820312 C 513.527344 381.859375 512.675781 382.710938 511.640625 382.710938 Z M 483.539062 378.933594 L 509.75 378.933594 L 509.75 370.851562 L 483.539062 370.851562 Z M 483.539062 378.933594 " fill-opacity="1" fill-rule="nonzero"/><path fill="#000000" d="M 511.640625 370.851562 L 481.933594 370.851562 C 480.894531 370.851562 480.046875 370 480.046875 368.964844 L 480.046875 367.980469 C 480.046875 358.957031 487.390625 351.609375 496.417969 351.609375 L 497.15625 351.609375 C 506.179688 351.609375 513.527344 358.957031 513.527344 367.980469 L 513.527344 368.964844 C 513.527344 370 512.675781 370.851562 511.640625 370.851562 Z M 483.859375 367.074219 L 509.710938 367.074219 C 509.242188 360.558594 503.78125 355.40625 497.15625 355.40625 L 496.417969 355.40625 C 489.789062 355.40625 484.332031 360.558594 483.859375 367.074219 Z M 483.859375 367.074219 " fill-opacity="1" fill-rule="nonzero"/><path fill="#000000" d="M 496.796875 355.40625 C 495.757812 355.40625 494.90625 354.554688 494.90625 353.515625 L 494.90625 339.261719 C 494.90625 338.222656 495.757812 337.371094 496.796875 337.371094 C 497.835938 337.371094 498.683594 338.222656 498.683594 339.261719 L 498.683594 353.515625 C 498.683594 354.554688 497.835938 355.40625 496.796875 355.40625 Z M 496.796875 355.40625 " fill-opacity="1" fill-rule="nonzero"/><path fill="#000000" d="M 571.882812 494.796875 L 517.71875 494.796875 C 516.679688 494.796875 515.832031 493.949219 515.832031 492.910156 C 515.832031 491.871094 516.679688 491.023438 517.71875 491.023438 L 571.882812 491.023438 C 572.917969 491.023438 573.769531 491.871094 573.769531 492.910156 C 573.769531 493.949219 572.917969 494.796875 571.882812 494.796875 Z M 571.882812 494.796875 " fill-opacity="1" fill-rule="nonzero"/><path fill="#000000" d="M 573.449219 643.140625 C 572.410156 643.140625 571.558594 642.292969 571.558594 641.253906 L 571.558594 489.417969 C 571.558594 488.378906 572.410156 487.527344 573.449219 487.527344 C 574.488281 487.527344 575.335938 488.378906 575.335938 489.417969 L 575.335938 641.253906 C 575.335938 642.292969 574.488281 643.140625 573.449219 643.140625 Z M 573.449219 643.140625 " fill-opacity="1" fill-rule="nonzero"/><path fill="#000000" d="M 580.984375 643.140625 C 579.945312 643.140625 579.09375 642.292969 579.09375 641.253906 L 579.09375 489.417969 C 579.09375 488.378906 579.945312 487.527344 580.984375 487.527344 C 582.023438 487.527344 582.871094 488.378906 582.871094 489.417969 L 582.871094 641.253906 C 582.871094 642.292969 582.023438 643.140625 580.984375 643.140625 Z M 580.984375 643.140625 " fill-opacity="1" fill-rule="nonzero"/><path fill="#000000" d="M 593.863281 643.140625 C 592.824219 643.140625 591.972656 642.292969 591.972656 641.253906 L 591.972656 489.417969 C 591.972656 488.378906 592.824219 487.527344 593.863281 487.527344 C 594.902344 487.527344 595.75 488.378906 595.75 489.417969 L 595.75 641.253906 C 595.75 642.292969 594.902344 643.140625 593.863281 643.140625 Z M 593.863281 643.140625 " fill-opacity="1" fill-rule="nonzero"/><path fill="#000000" d="M 601.699219 643.140625 C 600.660156 643.140625 599.8125 642.292969 599.8125 641.253906 L 599.8125 489.417969 C 599.8125 488.378906 600.660156 487.527344 601.699219 487.527344 C 602.738281 487.527344 603.589844 488.378906 603.589844 489.417969 L 603.589844 641.253906 C 603.589844 642.292969 602.738281 643.140625 601.699219 643.140625 Z M 601.699219 643.140625 " fill-opacity="1" fill-rule="nonzero"/><path fill="#000000" d="M 731.417969 660.382812 L 469.449219 660.382812 C 468.414062 660.382812 467.5625 659.53125 467.5625 658.492188 C 467.5625 657.453125 468.414062 656.605469 469.449219 656.605469 L 731.417969 656.605469 C 732.457031 656.605469 733.308594 657.453125 733.308594 658.492188 C 733.308594 659.53125 732.457031 660.382812 731.417969 660.382812 Z M 731.417969 660.382812 " fill-opacity="1" fill-rule="nonzero"/><path fill="#000000" d="M 720.144531 589.082031 L 603.589844 589.082031 C 602.550781 589.082031 601.699219 588.230469 601.699219 587.191406 C 601.699219 586.152344 602.550781 585.304688 603.589844 585.304688 L 720.144531 585.304688 C 721.183594 585.304688 722.03125 586.152344 722.03125 587.191406 C 722.03125 588.230469 721.183594 589.082031 720.144531 589.082031 Z M 720.144531 589.082031 " fill-opacity="1" fill-rule="nonzero"/><path fill="#000000" d="M 720.144531 596.632812 L 603.589844 596.632812 C 602.550781 596.632812 601.699219 595.785156 601.699219 594.746094 C 601.699219 593.707031 602.550781 592.855469 603.589844 592.855469 L 720.144531 592.855469 C 721.183594 592.855469 722.03125 593.707031 722.03125 594.746094 C 722.03125 595.785156 721.183594 596.632812 720.144531 596.632812 Z M 720.144531 596.632812 " fill-opacity="1" fill-rule="nonzero"/><path fill="#000000" d="M 720.144531 604.1875 L 603.589844 604.1875 C 602.550781 604.1875 601.699219 603.335938 601.699219 602.296875 C 601.699219 601.257812 602.550781 600.410156 603.589844 600.410156 L 720.144531 600.410156 C 721.183594 600.410156 722.03125 601.257812 722.03125 602.296875 C 722.03125 603.335938 721.183594 604.1875 720.144531 604.1875 Z M 720.144531 604.1875 " fill-opacity="1" fill-rule="nonzero"/><path fill="#000000" d="M 710.984375 589.082031 C 709.945312 589.082031 709.097656 588.230469 709.097656 587.191406 L 709.097656 579.507812 C 709.097656 578.46875 709.945312 577.617188 710.984375 577.617188 C 712.023438 577.617188 712.875 578.46875 712.875 579.507812 L 712.875 587.191406 C 712.875 588.230469 712.023438 589.082031 710.984375 589.082031 Z M 710.984375 589.082031 " fill-opacity="1" fill-rule="nonzero"/><path fill="#000000" d="M 697.144531 589.082031 C 696.105469 589.082031 695.253906 588.230469 695.253906 587.191406 L 695.253906 579.507812 C 695.253906 578.46875 696.105469 577.617188 697.144531 577.617188 C 698.179688 577.617188 699.03125 578.46875 699.03125 579.507812 L 699.03125 587.191406 C 699.03125 588.230469 698.179688 589.082031 697.144531 589.082031 Z M 697.144531 589.082031 " fill-opacity="1" fill-rule="nonzero"/><path fill="#000000" d="M 683.300781 589.082031 C 682.261719 589.082031 681.410156 588.230469 681.410156 587.191406 L 681.410156 579.507812 C 681.410156 578.46875 682.261719 577.617188 683.300781 577.617188 C 684.339844 577.617188 685.1875 578.46875 685.1875 579.507812 L 685.1875 587.191406 C 685.1875 588.230469 684.339844 589.082031 683.300781 589.082031 Z M 683.300781 589.082031 " fill-opacity="1" fill-rule="nonzero"/><path fill="#000000" d="M 669.4375 589.082031 C 668.398438 589.082031 667.550781 588.230469 667.550781 587.191406 L 667.550781 579.507812 C 667.550781 578.46875 668.398438 577.617188 669.4375 577.617188 C 670.476562 577.617188 671.328125 578.46875 671.328125 579.507812 L 671.328125 587.191406 C 671.328125 588.230469 670.476562 589.082031 669.4375 589.082031 Z M 669.4375 589.082031 " fill-opacity="1" fill-rule="nonzero"/><path fill="#000000" d="M 655.597656 589.082031 C 654.558594 589.082031 653.707031 588.230469 653.707031 587.191406 L 653.707031 579.507812 C 653.707031 578.46875 654.558594 577.617188 655.597656 577.617188 C 656.636719 577.617188 657.484375 578.46875 657.484375 579.507812 L 657.484375 587.191406 C 657.484375 588.230469 656.636719 589.082031 655.597656 589.082031 Z M 655.597656 589.082031 " fill-opacity="1" fill-rule="nonzero"/><path fill="#000000" d="M 641.753906 589.082031 C 640.714844 589.082031 639.867188 588.230469 639.867188 587.191406 L 639.867188 579.507812 C 639.867188 578.46875 640.714844 577.617188 641.753906 577.617188 C 642.792969 577.617188 643.640625 578.46875 643.640625 579.507812 L 643.640625 587.191406 C 643.640625 588.230469 642.792969 589.082031 641.753906 589.082031 Z M 641.753906 589.082031 " fill-opacity="1" fill-rule="nonzero"/><path fill="#000000" d="M 627.894531 589.082031 C 626.855469 589.082031 626.003906 588.230469 626.003906 587.191406 L 626.003906 579.507812 C 626.003906 578.46875 626.855469 577.617188 627.894531 577.617188 C 628.929688 577.617188 629.78125 578.46875 629.78125 579.507812 L 629.78125 587.191406 C 629.78125 588.230469 628.929688 589.082031 627.894531 589.082031 Z M 627.894531 589.082031 " fill-opacity="1" fill-rule="nonzero"/><path fill="#000000" d="M 614.050781 589.082031 C 613.011719 589.082031 612.160156 588.230469 612.160156 587.191406 L 612.160156 579.507812 C 612.160156 578.46875 613.011719 577.617188 614.050781 577.617188 C 615.089844 577.617188 615.9375 578.46875 615.9375 579.507812 L 615.9375 587.191406 C 615.9375 588.230469 615.089844 589.082031 614.050781 589.082031 Z M 614.050781 589.082031 " fill-opacity="1" fill-rule="nonzero"/><path fill="#000000" d="M 565.421875 567.214844 L 520.402344 567.214844 C 518.53125 567.214844 517.019531 565.703125 517.019531 563.832031 L 517.019531 524.351562 C 517.019531 510.074219 528.636719 498.460938 542.910156 498.460938 C 557.1875 498.460938 568.804688 510.074219 568.804688 524.351562 L 568.804688 563.832031 C 568.804688 565.703125 567.292969 567.214844 565.421875 567.214844 Z M 520.796875 563.4375 L 565.042969 563.4375 L 565.042969 524.351562 C 565.042969 512.152344 555.128906 502.238281 542.929688 502.238281 C 530.730469 502.238281 520.816406 512.152344 520.816406 524.351562 L 520.816406 563.4375 Z M 520.796875 563.4375 " fill-opacity="1" fill-rule="nonzero"/><path fill="#000000" d="M 562.191406 660.136719 L 525.6875 660.136719 C 523.96875 660.136719 522.59375 658.738281 522.59375 657.039062 L 522.59375 606.660156 C 522.59375 594.894531 532.167969 585.304688 543.949219 585.304688 C 555.734375 585.304688 565.308594 594.878906 565.308594 606.660156 L 565.308594 657.039062 C 565.308594 658.738281 563.910156 660.136719 562.210938 660.136719 Z M 526.367188 656.359375 L 561.511719 656.359375 L 561.511719 606.660156 C 561.511719 596.972656 553.636719 589.082031 543.933594 589.082031 C 534.226562 589.082031 526.351562 596.953125 526.351562 606.660156 L 526.351562 656.359375 Z M 526.367188 656.359375 " fill-opacity="1" fill-rule="nonzero"/><path fill="#000000" d="M 720.636719 660.136719 L 689.25 660.136719 C 687.738281 660.136719 686.511719 658.910156 686.511719 657.398438 L 686.511719 626.542969 C 686.511719 616.421875 694.746094 608.207031 704.847656 608.207031 C 714.949219 608.207031 723.355469 616.441406 723.355469 626.542969 L 723.355469 657.398438 C 723.355469 658.910156 722.125 660.136719 720.617188 660.136719 Z M 690.289062 656.359375 L 719.597656 656.359375 L 719.597656 626.542969 C 719.597656 618.519531 713.0625 611.984375 705.035156 611.984375 C 697.011719 611.984375 690.304688 618.519531 690.304688 626.542969 L 690.304688 656.359375 Z M 690.289062 656.359375 " fill-opacity="1" fill-rule="nonzero"/><path fill="#000000" d="M 681.316406 660.382812 L 649.929688 660.382812 C 648.421875 660.382812 647.191406 659.15625 647.191406 657.644531 L 647.191406 626.394531 C 647.191406 616.234375 655.464844 607.964844 665.625 607.964844 C 675.785156 607.964844 684.054688 616.234375 684.054688 626.394531 L 684.054688 657.644531 C 684.054688 659.15625 682.828125 660.382812 681.316406 660.382812 Z M 650.96875 656.605469 L 680.277344 656.605469 L 680.277344 626.394531 C 680.277344 618.3125 673.707031 611.738281 665.625 611.738281 C 657.542969 611.738281 650.96875 618.3125 650.96875 626.394531 Z M 650.96875 656.605469 " fill-opacity="1" fill-rule="nonzero"/><path fill="#000000" d="M 642.113281 660.136719 L 610.726562 660.136719 C 609.214844 660.136719 607.988281 658.910156 607.988281 657.398438 L 607.988281 626.355469 C 607.988281 616.214844 616.242188 607.964844 626.382812 607.964844 C 636.523438 607.964844 644.851562 616.214844 644.851562 626.355469 L 644.851562 657.398438 C 644.851562 658.910156 643.625 660.136719 642.113281 660.136719 Z M 611.785156 656.359375 L 641.09375 656.359375 L 641.09375 626.355469 C 641.09375 618.292969 634.539062 611.738281 626.476562 611.738281 C 618.414062 611.738281 611.785156 618.292969 611.785156 626.355469 Z M 611.785156 656.359375 " fill-opacity="1" fill-rule="nonzero"/><path fill="#000000" d="M 573.449219 576.691406 L 512.394531 576.691406 C 511.355469 576.691406 510.507812 575.84375 510.507812 574.804688 C 510.507812 573.765625 511.355469 572.917969 512.394531 572.917969 L 573.449219 572.917969 C 574.488281 572.917969 575.335938 573.765625 575.335938 574.804688 C 575.335938 575.84375 574.488281 576.691406 573.449219 576.691406 Z M 573.449219 576.691406 " fill-opacity="1" fill-rule="nonzero"/><path fill="#000000" d="M 409.890625 398.570312 L 396.460938 398.570312 C 395.421875 398.570312 394.574219 397.722656 394.574219 396.683594 L 394.574219 390.414062 C 394.574219 389.375 395.421875 388.527344 396.460938 388.527344 L 409.890625 388.527344 C 410.925781 388.527344 411.777344 389.375 411.777344 390.414062 L 411.777344 396.683594 C 411.777344 397.722656 410.925781 398.570312 409.890625 398.570312 Z M 398.351562 394.796875 L 408 394.796875 L 408 392.300781 L 398.351562 392.300781 Z M 398.351562 394.796875 " fill-opacity="1" fill-rule="nonzero"/><path fill="#000000" d="M 413.875 436.695312 L 392.195312 436.695312 C 391.15625 436.695312 390.304688 435.847656 390.304688 434.808594 L 390.304688 396.683594 C 390.304688 395.644531 391.15625 394.796875 392.195312 394.796875 L 413.875 394.796875 C 414.910156 394.796875 415.761719 395.644531 415.761719 396.683594 L 415.761719 434.808594 C 415.761719 435.847656 414.910156 436.695312 413.875 436.695312 Z M 394.082031 432.917969 L 411.984375 432.917969 L 411.984375 398.570312 L 394.082031 398.570312 Z M 394.082031 432.917969 " fill-opacity="1" fill-rule="nonzero"/><g clip-path="url(#d0cab1097e)"><path fill="#000000" d="M 735.042969 674.46875 L 74.648438 674.46875 C 73.609375 674.46875 72.761719 673.617188 72.761719 672.578125 C 72.761719 671.542969 73.609375 670.691406 74.648438 670.691406 L 735.042969 670.691406 C 736.082031 670.691406 736.933594 671.542969 736.933594 672.578125 C 736.933594 673.617188 736.082031 674.46875 735.042969 674.46875 Z M 735.042969 674.46875 " fill-opacity="1" fill-rule="nonzero"/></g></svg>