<svg xmlns="http://www.w3.org/2000/svg" xmlns:xlink="http://www.w3.org/1999/xlink" width="1080" zoomAndPan="magnify" viewBox="0 0 810 1012.49997" height="1350" preserveAspectRatio="xMidYMid meet" version="1.0"><defs><clipPath id="3065c3ea5d"><path d="M 0.199219 0 L 809.800781 0 L 809.800781 1012 L 0.199219 1012 Z M 0.199219 0 " clip-rule="nonzero"/></clipPath><clipPath id="129d7d536d"><path d="M 159 579 L 361 579 L 361 650.539062 L 159 650.539062 Z M 159 579 " clip-rule="nonzero"/></clipPath><clipPath id="d87570e890"><path d="M 93 547 L 153 547 L 153 650.539062 L 93 650.539062 Z M 93 547 " clip-rule="nonzero"/></clipPath><clipPath id="11d8ed2cfc"><path d="M 389 361.183594 L 431 361.183594 L 431 412 L 389 412 Z M 389 361.183594 " clip-rule="nonzero"/></clipPath><clipPath id="86d433dcd6"><path d="M 460 579 L 662 579 L 662 650.539062 L 460 650.539062 Z M 460 579 " clip-rule="nonzero"/></clipPath><clipPath id="a7baede186"><path d="M 668 547 L 728 547 L 728 650.539062 L 668 650.539062 Z M 668 547 " clip-rule="nonzero"/></clipPath><clipPath id="7f14d48a92"><path d="M 369 456 L 451 456 L 451 650.539062 L 369 650.539062 Z M 369 456 " clip-rule="nonzero"/></clipPath></defs><g clip-path="url(#3065c3ea5d)"><path fill="#ffffff" d="M 0.199219 0 L 809.800781 0 L 809.800781 1012 L 0.199219 1012 Z M 0.199219 0 " fill-opacity="1" fill-rule="nonzero"/><path fill="#ffffff" d="M 0.199219 0 L 809.800781 0 L 809.800781 1012 L 0.199219 1012 Z M 0.199219 0 " fill-opacity="1" fill-rule="nonzero"/></g><path fill="#000000" d="M 159.121094 574.363281 L 360.464844 574.363281 L 360.464844 552.394531 L 159.121094 552.394531 Z M 161.238281 554.507812 L 358.351562 554.507812 L 358.351562 572.25 L 161.238281 572.25 Z M 161.238281 554.507812 " fill-opacity="1" fill-rule="nonzero"/><g clip-path="url(#129d7d536d)"><path fill="#000000" d="M 159.121094 650.398438 L 360.464844 650.398438 L 360.464844 579.515625 L 159.121094 579.515625 Z M 187.414062 648.285156 L 187.414062 632.796875 C 187.414062 627.324219 191.867188 622.875 197.34375 622.875 C 202.820312 622.875 207.273438 627.324219 207.273438 632.796875 L 207.273438 648.285156 Z M 250.347656 648.285156 L 250.347656 632.796875 C 250.347656 627.324219 254.804688 622.875 260.277344 622.875 C 265.753906 622.875 270.210938 627.324219 270.210938 632.796875 L 270.210938 648.285156 Z M 312.71875 648.285156 L 312.71875 632.796875 C 312.71875 627.324219 317.175781 622.875 322.648438 622.875 C 328.125 622.875 332.582031 627.324219 332.582031 632.796875 L 332.582031 648.285156 Z M 161.238281 581.625 L 358.351562 581.625 L 358.351562 648.285156 L 334.695312 648.285156 L 334.695312 632.796875 C 334.695312 626.160156 329.292969 620.761719 322.648438 620.761719 C 316.007812 620.761719 310.605469 626.160156 310.605469 632.796875 L 310.605469 648.285156 L 272.324219 648.285156 L 272.324219 632.796875 C 272.324219 626.160156 266.921875 620.761719 260.277344 620.761719 C 253.636719 620.761719 248.234375 626.160156 248.234375 632.796875 L 248.234375 648.285156 L 209.386719 648.285156 L 209.386719 632.796875 C 209.386719 626.160156 203.984375 620.761719 197.34375 620.761719 C 190.703125 620.761719 185.296875 626.160156 185.296875 632.796875 L 185.296875 648.285156 L 161.238281 648.285156 Z M 161.238281 581.625 " fill-opacity="1" fill-rule="nonzero"/></g><path fill="#000000" d="M 201.605469 521.398438 L 174.957031 521.398438 L 165.441406 546.757812 L 212.179688 546.757812 Z M 176.425781 523.511719 L 200.195312 523.511719 L 209.007812 544.644531 L 168.492188 544.644531 Z M 176.425781 523.511719 " fill-opacity="1" fill-rule="nonzero"/><path fill="#000000" d="M 107.636719 514.132812 L 92.601562 546.757812 L 115.015625 546.757812 L 123.824219 538.886719 L 132.628906 546.757812 L 152.574219 546.757812 L 138.578125 514.132812 Z M 133.4375 544.644531 L 123.824219 536.050781 L 114.210938 544.644531 L 95.90625 544.644531 L 108.988281 516.246094 L 137.183594 516.246094 L 149.367188 544.644531 Z M 133.4375 544.644531 " fill-opacity="1" fill-rule="nonzero"/><g clip-path="url(#d87570e890)"><path fill="#000000" d="M 131.667969 547.550781 L 115.496094 547.550781 L 115.496094 552.394531 L 93.195312 552.394531 L 93.195312 650.398438 L 152.027344 650.398438 L 152.027344 552.394531 L 131.667969 552.394531 Z M 117.609375 549.664062 L 129.554688 549.664062 L 129.554688 559.660156 L 117.609375 559.660156 Z M 109.949219 648.285156 C 109.828125 648.285156 109.730469 648.1875 109.730469 648.070312 L 109.730469 635.882812 C 109.730469 628.710938 115.574219 622.875 122.753906 622.875 C 129.933594 622.875 135.773438 628.710938 135.773438 635.882812 L 135.773438 648.070312 C 135.773438 648.1875 135.675781 648.285156 135.558594 648.285156 Z M 149.914062 554.507812 L 149.914062 648.285156 L 137.84375 648.285156 C 137.851562 648.210938 137.886719 648.148438 137.886719 648.070312 L 137.886719 635.882812 C 137.886719 627.546875 131.097656 620.761719 122.753906 620.761719 C 114.40625 620.761719 107.617188 627.546875 107.617188 635.882812 L 107.617188 648.070312 C 107.617188 648.148438 107.65625 648.210938 107.660156 648.285156 L 95.3125 648.285156 L 95.3125 554.507812 L 115.496094 554.507812 L 115.496094 561.769531 L 131.667969 561.769531 L 131.667969 554.507812 Z M 149.914062 554.507812 " fill-opacity="1" fill-rule="nonzero"/></g><path fill="#000000" d="M 139.421875 501.058594 L 136.351562 501.058594 L 136.351562 492.589844 L 134.238281 492.589844 L 134.238281 501.058594 L 124.878906 501.058594 L 124.878906 484.757812 L 122.765625 484.757812 L 122.765625 501.058594 L 113.703125 501.058594 C 113.8125 499.996094 113.792969 497.738281 113.652344 492.558594 L 111.535156 492.617188 C 111.640625 496.308594 111.6875 500.464844 111.59375 501.027344 L 111.707031 501.058594 L 109.679688 501.058594 L 109.679688 509.949219 L 139.421875 509.949219 Z M 137.308594 507.839844 L 111.792969 507.839844 L 111.792969 503.171875 L 137.308594 503.171875 Z M 137.308594 507.839844 " fill-opacity="1" fill-rule="nonzero"/><path fill="#000000" d="M 201.46875 508.085938 L 201.46875 504.535156 L 199.355469 504.535156 L 199.355469 507.839844 L 191.453125 507.839844 L 191.453125 497.109375 L 189.339844 497.109375 L 189.339844 507.839844 L 181.113281 507.839844 L 181.113281 504.535156 L 178.996094 504.535156 L 178.996094 518.667969 L 201.46875 518.667969 Z M 199.355469 516.554688 L 181.113281 516.554688 L 181.113281 509.949219 L 199.355469 509.949219 Z M 199.355469 516.554688 " fill-opacity="1" fill-rule="nonzero"/><path fill="#000000" d="M 351.742188 600.339844 L 343.449219 600.339844 L 343.449219 593.484375 C 343.449219 590.957031 341.398438 588.898438 339.082031 588.898438 C 339.070312 588.898438 339.058594 588.898438 339.046875 588.898438 C 338.195312 588.730469 337.28125 588.929688 336.488281 589.472656 C 335.351562 590.25 334.511719 591.671875 334.222656 593.457031 L 334.222656 600.339844 L 333.050781 600.339844 L 333.050781 593.484375 C 333.050781 590.957031 331 588.898438 328.683594 588.898438 C 328.671875 588.898438 328.660156 588.898438 328.648438 588.898438 C 327.792969 588.730469 326.882812 588.929688 326.089844 589.472656 C 324.953125 590.25 324.113281 591.671875 323.828125 593.457031 L 323.828125 600.339844 L 307.628906 600.339844 L 307.628906 593.484375 C 307.628906 590.957031 305.582031 588.898438 303.261719 588.898438 C 303.253906 588.898438 303.238281 588.898438 303.226562 588.898438 C 302.375 588.730469 301.464844 588.929688 300.667969 589.472656 C 299.535156 590.25 298.695312 591.671875 298.40625 593.457031 L 298.40625 600.339844 L 297.230469 600.339844 L 297.230469 593.484375 C 297.230469 590.957031 295.183594 588.898438 292.867188 588.898438 C 292.855469 588.898438 292.84375 588.898438 292.832031 588.898438 C 291.976562 588.730469 291.066406 588.929688 290.269531 589.472656 C 289.136719 590.25 288.296875 591.671875 288.007812 593.457031 L 288.007812 600.339844 L 269.605469 600.339844 L 269.605469 593.484375 C 269.605469 590.945312 267.554688 588.894531 265.203125 588.898438 C 264.351562 588.730469 263.441406 588.929688 262.644531 589.472656 C 261.511719 590.25 260.671875 591.671875 260.382812 593.457031 L 260.382812 600.339844 L 259.207031 600.339844 L 259.207031 593.484375 C 259.207031 590.945312 257.179688 588.894531 254.804688 588.898438 C 253.953125 588.730469 253.042969 588.929688 252.25 589.472656 C 251.113281 590.25 250.273438 591.671875 249.984375 593.457031 L 249.984375 600.339844 L 234.636719 600.339844 L 234.636719 593.484375 C 234.636719 590.945312 232.609375 588.894531 230.234375 588.898438 C 229.382812 588.730469 228.472656 588.929688 227.675781 589.472656 C 226.542969 590.25 225.703125 591.671875 225.414062 593.457031 L 225.414062 600.339844 L 224.238281 600.339844 L 224.238281 593.484375 C 224.242188 590.945312 222.230469 588.894531 219.839844 588.898438 C 218.988281 588.730469 218.074219 588.929688 217.277344 589.472656 C 216.144531 590.25 215.304688 591.671875 215.015625 593.457031 L 215.015625 600.339844 L 198.402344 600.339844 L 198.402344 592.859375 C 198.402344 590.355469 196.386719 588.308594 193.890625 588.253906 C 193.0625 588.113281 192.203125 588.328125 191.445312 588.84375 C 190.308594 589.621094 189.464844 591.046875 189.175781 592.832031 L 189.175781 600.339844 L 187.414062 600.339844 L 187.414062 592.839844 C 187.414062 590.300781 185.34375 588.234375 182.800781 588.234375 C 180.257812 588.234375 178.1875 590.300781 178.1875 592.839844 L 178.1875 600.339844 L 169.785156 600.339844 L 169.785156 613.109375 L 351.742188 613.109375 Z M 337.683594 591.214844 C 337.910156 591.0625 338.25 590.890625 338.835938 590.992188 C 340.214844 590.992188 341.332031 592.109375 341.332031 593.484375 L 341.332031 600.335938 L 336.335938 600.3125 L 336.324219 593.632812 C 336.5 592.59375 337.019531 591.667969 337.683594 591.214844 Z M 327.285156 591.214844 C 327.511719 591.0625 327.851562 590.890625 328.4375 590.992188 C 329.816406 590.992188 330.9375 592.109375 330.9375 593.484375 L 330.9375 600.335938 L 325.9375 600.3125 L 325.925781 593.632812 C 326.101562 592.59375 326.625 591.667969 327.285156 591.214844 Z M 301.863281 591.214844 C 302.089844 591.0625 302.429688 590.890625 303.019531 590.992188 C 304.394531 590.992188 305.515625 592.109375 305.515625 593.484375 L 305.515625 600.335938 L 300.519531 600.3125 L 300.503906 593.632812 C 300.683594 592.59375 301.203125 591.667969 301.863281 591.214844 Z M 291.46875 591.214844 C 291.691406 591.0625 292.03125 590.890625 292.621094 590.992188 C 293.996094 590.992188 295.117188 592.109375 295.117188 593.484375 L 295.117188 600.335938 L 290.121094 600.3125 L 290.109375 593.632812 C 290.285156 592.59375 290.804688 591.667969 291.46875 591.214844 Z M 263.839844 591.214844 C 264.066406 591.0625 264.410156 590.890625 264.992188 590.992188 C 266.371094 590.992188 267.492188 592.109375 267.492188 593.484375 L 267.492188 600.335938 L 262.492188 600.3125 L 262.480469 593.632812 C 262.65625 592.59375 263.179688 591.667969 263.839844 591.214844 Z M 253.441406 591.214844 C 253.667969 591.0625 254.011719 590.890625 254.59375 590.992188 C 255.972656 590.992188 257.09375 592.109375 257.09375 593.484375 L 257.09375 600.335938 L 252.09375 600.3125 L 252.082031 593.632812 C 252.257812 592.59375 252.78125 591.667969 253.441406 591.214844 Z M 228.871094 591.214844 C 229.097656 591.0625 229.441406 590.890625 230.023438 590.992188 C 231.402344 590.992188 232.523438 592.109375 232.523438 593.484375 L 232.523438 600.335938 L 227.527344 600.3125 L 227.515625 593.632812 C 227.691406 592.59375 228.210938 591.667969 228.871094 591.214844 Z M 218.472656 591.214844 C 218.699219 591.0625 219.042969 590.890625 219.628906 590.992188 C 221.003906 590.992188 222.125 592.109375 222.125 593.484375 L 222.125 600.335938 L 217.128906 600.3125 L 217.117188 593.632812 C 217.292969 592.59375 217.8125 591.667969 218.472656 591.214844 Z M 192.636719 590.589844 C 192.960938 590.367188 193.277344 590.273438 193.578125 590.34375 L 193.789062 590.367188 C 195.164062 590.367188 196.285156 591.484375 196.285156 592.859375 L 196.285156 599.710938 L 191.289062 599.6875 L 191.273438 593.007812 C 191.453125 591.96875 191.976562 591.042969 192.636719 590.589844 Z M 180.304688 592.839844 C 180.304688 591.464844 181.425781 590.34375 182.800781 590.34375 C 184.179688 590.34375 185.296875 591.464844 185.296875 592.839844 L 185.296875 599.695312 L 180.304688 599.695312 Z M 349.628906 610.996094 L 171.902344 610.996094 L 171.902344 602.453125 L 223.269531 602.453125 L 224.238281 602.457031 L 224.238281 602.453125 L 233.667969 602.453125 L 234.636719 602.457031 L 234.636719 602.453125 L 258.238281 602.453125 L 259.207031 602.457031 L 259.207031 602.453125 L 268.632812 602.453125 L 269.605469 602.457031 L 269.605469 602.453125 L 296.261719 602.453125 L 297.230469 602.457031 L 297.230469 602.453125 L 306.65625 602.453125 L 307.628906 602.457031 L 307.628906 602.453125 L 332.078125 602.453125 L 333.050781 602.457031 L 333.050781 602.453125 L 342.476562 602.453125 L 343.449219 602.457031 L 343.449219 602.453125 L 349.628906 602.453125 Z M 349.628906 610.996094 " fill-opacity="1" fill-rule="nonzero"/><path fill="#000000" d="M 123.28125 579.152344 C 122.433594 576.828125 120.21875 575.15625 117.601562 575.15625 C 114.257812 575.15625 111.535156 577.875 111.535156 581.21875 L 111.535156 593.558594 L 107.617188 593.558594 L 107.617188 600.878906 L 139.421875 600.878906 L 139.421875 593.558594 L 135.121094 593.558594 L 135.121094 580.914062 C 135.121094 577.570312 132.398438 574.851562 129.054688 574.851562 C 126.328125 574.851562 124.042969 576.671875 123.28125 579.152344 Z M 113.652344 581.21875 C 113.652344 579.039062 115.425781 577.269531 117.601562 577.269531 C 119.78125 577.269531 121.554688 579.039062 121.554688 581.21875 L 121.554688 593.558594 L 113.652344 593.558594 Z M 137.308594 598.765625 L 109.730469 598.765625 L 109.730469 595.671875 L 137.308594 595.671875 Z M 133.007812 580.914062 L 133.007812 593.257812 L 125.101562 593.257812 L 125.101562 580.914062 C 125.101562 578.738281 126.875 576.964844 129.054688 576.964844 C 131.234375 576.964844 133.007812 578.738281 133.007812 580.914062 Z M 133.007812 580.914062 " fill-opacity="1" fill-rule="nonzero"/><path fill="#000000" d="M 410.242188 416.304688 L 386.792969 416.304688 L 369.515625 462.003906 L 395.824219 462.003906 L 406.972656 446.507812 L 413.507812 446.507812 L 424.65625 462.003906 L 450.96875 462.003906 L 433.6875 416.304688 Z M 425.742188 459.890625 L 414.59375 444.394531 L 405.886719 444.394531 L 394.738281 459.890625 L 372.570312 459.890625 L 388.253906 418.417969 L 432.226562 418.417969 L 447.90625 459.890625 Z M 425.742188 459.890625 " fill-opacity="1" fill-rule="nonzero"/><g clip-path="url(#11d8ed2cfc)"><path fill="#000000" d="M 430.898438 411.394531 L 430.898438 395.238281 L 412.441406 395.238281 L 412.441406 361.183594 L 410.328125 361.183594 L 410.328125 397.351562 L 428.78125 397.351562 L 428.78125 409.28125 L 391.699219 409.28125 L 391.699219 397.351562 L 410.152344 397.351562 L 410.152344 361.183594 L 408.039062 361.183594 L 408.039062 395.238281 L 389.585938 395.238281 L 389.585938 411.394531 Z M 430.898438 411.394531 " fill-opacity="1" fill-rule="nonzero"/></g><path fill="#000000" d="M 460.015625 574.363281 L 661.359375 574.363281 L 661.359375 552.394531 L 460.015625 552.394531 Z M 462.128906 554.507812 L 659.246094 554.507812 L 659.246094 572.25 L 462.128906 572.25 Z M 462.128906 554.507812 " fill-opacity="1" fill-rule="nonzero"/><g clip-path="url(#86d433dcd6)"><path fill="#000000" d="M 460.015625 650.398438 L 661.359375 650.398438 L 661.359375 579.515625 L 460.015625 579.515625 Z M 487.902344 648.285156 L 487.902344 632.796875 C 487.902344 627.324219 492.355469 622.875 497.832031 622.875 C 503.304688 622.875 507.761719 627.324219 507.761719 632.796875 L 507.761719 648.285156 Z M 550.269531 648.285156 L 550.269531 632.796875 C 550.269531 627.324219 554.726562 622.875 560.199219 622.875 C 565.679688 622.875 570.132812 627.324219 570.132812 632.796875 L 570.132812 648.285156 Z M 613.207031 648.285156 L 613.207031 632.796875 C 613.207031 627.324219 617.660156 622.875 623.136719 622.875 C 628.613281 622.875 633.070312 627.324219 633.070312 632.796875 L 633.070312 648.285156 Z M 462.128906 581.625 L 659.246094 581.625 L 659.246094 648.285156 L 635.183594 648.285156 L 635.183594 632.796875 C 635.183594 626.160156 629.78125 620.761719 623.136719 620.761719 C 616.496094 620.761719 611.09375 626.160156 611.09375 632.796875 L 611.09375 648.285156 L 572.246094 648.285156 L 572.246094 632.796875 C 572.246094 626.160156 566.84375 620.761719 560.199219 620.761719 C 553.558594 620.761719 548.15625 626.160156 548.15625 632.796875 L 548.15625 648.285156 L 509.875 648.285156 L 509.875 632.796875 C 509.875 626.160156 504.472656 620.761719 497.832031 620.761719 C 491.191406 620.761719 485.785156 626.160156 485.785156 632.796875 L 485.785156 648.285156 L 462.128906 648.285156 Z M 462.128906 581.625 " fill-opacity="1" fill-rule="nonzero"/></g><path fill="#000000" d="M 645.523438 521.398438 L 618.878906 521.398438 L 608.304688 546.757812 L 655.039062 546.757812 Z M 620.289062 523.511719 L 644.054688 523.511719 L 651.988281 544.644531 L 611.472656 544.644531 Z M 620.289062 523.511719 " fill-opacity="1" fill-rule="nonzero"/><path fill="#000000" d="M 696.65625 538.886719 L 705.464844 546.757812 L 727.875 546.757812 L 712.847656 514.132812 L 681.902344 514.132812 L 667.910156 546.757812 L 687.851562 546.757812 Z M 671.113281 544.644531 L 683.296875 516.246094 L 711.492188 516.246094 L 724.578125 544.644531 L 706.273438 544.644531 L 696.65625 536.050781 L 687.042969 544.644531 Z M 671.113281 544.644531 " fill-opacity="1" fill-rule="nonzero"/><g clip-path="url(#a7baede186)"><path fill="#000000" d="M 704.984375 547.550781 L 688.8125 547.550781 L 688.8125 552.394531 L 668.453125 552.394531 L 668.453125 650.398438 L 727.28125 650.398438 L 727.28125 552.394531 L 704.984375 552.394531 Z M 690.929688 549.664062 L 702.871094 549.664062 L 702.871094 559.660156 L 690.929688 559.660156 Z M 684.921875 648.285156 C 684.804688 648.285156 684.707031 648.1875 684.707031 648.070312 L 684.707031 635.882812 C 684.707031 628.710938 690.546875 622.875 697.726562 622.875 C 704.910156 622.875 710.75 628.710938 710.75 635.882812 L 710.75 648.070312 C 710.75 648.1875 710.652344 648.285156 710.535156 648.285156 Z M 725.167969 554.507812 L 725.167969 648.285156 L 712.820312 648.285156 C 712.828125 648.210938 712.863281 648.148438 712.863281 648.070312 L 712.863281 635.882812 C 712.863281 627.546875 706.074219 620.761719 697.726562 620.761719 C 689.382812 620.761719 682.59375 627.546875 682.59375 635.882812 L 682.59375 648.070312 C 682.59375 648.148438 682.628906 648.210938 682.636719 648.285156 L 670.566406 648.285156 L 670.566406 554.507812 L 688.8125 554.507812 L 688.8125 561.769531 L 704.984375 561.769531 L 704.984375 554.507812 Z M 725.167969 554.507812 " fill-opacity="1" fill-rule="nonzero"/></g><path fill="#000000" d="M 710.800781 501.058594 L 708.769531 501.058594 L 708.886719 501.027344 C 708.792969 500.464844 708.84375 496.3125 708.945312 492.617188 L 706.832031 492.558594 C 706.6875 497.738281 706.667969 499.996094 706.777344 501.058594 L 697.714844 501.058594 L 697.714844 484.757812 L 695.601562 484.757812 L 695.601562 501.058594 L 686.242188 501.058594 L 686.242188 492.589844 L 684.128906 492.589844 L 684.128906 501.058594 L 681.058594 501.058594 L 681.058594 509.949219 L 710.800781 509.949219 Z M 708.6875 507.839844 L 683.171875 507.839844 L 683.171875 503.171875 L 708.6875 503.171875 Z M 708.6875 507.839844 " fill-opacity="1" fill-rule="nonzero"/><path fill="#000000" d="M 641.484375 508.085938 L 641.484375 504.535156 L 639.371094 504.535156 L 639.371094 507.839844 L 630.8125 507.839844 L 630.8125 497.351562 L 628.699219 497.351562 L 628.699219 507.839844 L 621.125 507.839844 L 621.125 504.535156 L 619.011719 504.535156 L 619.011719 518.667969 L 641.484375 518.667969 Z M 639.371094 516.554688 L 621.125 516.554688 L 621.125 509.949219 L 639.371094 509.949219 Z M 639.371094 516.554688 " fill-opacity="1" fill-rule="nonzero"/><path fill="#000000" d="M 650.691406 600.339844 L 642.292969 600.339844 L 642.292969 592.839844 C 642.292969 590.300781 640.222656 588.234375 637.679688 588.234375 C 635.136719 588.234375 633.070312 590.300781 633.070312 592.839844 L 633.070312 600.339844 L 631.300781 600.339844 L 631.289062 592.652344 C 631.015625 591.046875 630.175781 589.621094 629.039062 588.84375 C 628.277344 588.328125 627.40625 588.113281 626.59375 588.253906 C 624.097656 588.308594 622.082031 590.355469 622.082031 592.859375 L 622.082031 600.339844 L 605.460938 600.339844 L 605.449219 593.277344 C 605.175781 591.671875 604.335938 590.25 603.199219 589.472656 C 602.40625 588.925781 601.488281 588.726562 600.851562 588.878906 C 598.308594 588.878906 596.242188 590.945312 596.242188 593.484375 L 596.242188 600.339844 L 595.066406 600.339844 L 595.054688 593.277344 C 594.777344 591.671875 593.9375 590.25 592.804688 589.472656 C 592.011719 588.925781 591.089844 588.726562 590.457031 588.878906 C 587.914062 588.878906 585.84375 590.945312 585.84375 593.484375 L 585.84375 600.339844 L 570.492188 600.339844 L 570.480469 593.277344 C 570.210938 591.671875 569.371094 590.253906 568.234375 589.472656 C 567.441406 588.933594 566.53125 588.722656 565.882812 588.878906 C 563.34375 588.878906 561.273438 590.945312 561.273438 593.484375 L 561.273438 600.339844 L 560.097656 600.339844 L 560.085938 593.277344 C 559.8125 591.671875 558.96875 590.25 557.835938 589.472656 C 557.042969 588.925781 556.121094 588.726562 555.488281 588.878906 C 552.945312 588.878906 550.875 590.945312 550.875 593.484375 L 550.875 600.339844 L 532.46875 600.339844 L 532.457031 593.277344 C 532.183594 591.671875 531.34375 590.25 530.207031 589.472656 C 529.414062 588.925781 528.496094 588.726562 527.859375 588.878906 C 525.316406 588.878906 523.25 590.945312 523.25 593.484375 L 523.25 600.339844 L 522.074219 600.339844 L 522.0625 593.277344 C 521.789062 591.671875 520.945312 590.25 519.8125 589.472656 C 519.019531 588.925781 518.101562 588.726562 517.464844 588.878906 C 514.921875 588.878906 512.851562 590.945312 512.851562 593.484375 L 512.851562 600.339844 L 496.652344 600.339844 L 496.640625 593.277344 C 496.367188 591.671875 495.523438 590.25 494.390625 589.472656 C 493.597656 588.925781 492.679688 588.726562 492.042969 588.878906 C 489.5 588.878906 487.429688 590.945312 487.429688 593.484375 L 487.429688 600.339844 L 486.253906 600.339844 L 486.242188 593.277344 C 485.96875 591.671875 485.128906 590.25 483.992188 589.472656 C 483.199219 588.925781 482.285156 588.726562 481.644531 588.878906 C 479.101562 588.878906 477.035156 590.945312 477.035156 593.484375 L 477.035156 600.339844 L 468.742188 600.339844 L 468.742188 613.109375 L 650.691406 613.109375 Z M 635.183594 592.839844 C 635.183594 591.464844 636.304688 590.34375 637.679688 590.34375 C 639.058594 590.34375 640.179688 591.464844 640.179688 592.839844 L 640.179688 599.695312 L 635.183594 599.695312 Z M 624.195312 592.859375 C 624.195312 591.484375 625.316406 590.367188 626.695312 590.367188 L 626.902344 590.34375 C 627.28125 590.265625 627.621094 590.4375 627.84375 590.589844 C 628.507812 591.042969 629.027344 591.96875 629.191406 592.832031 L 629.191406 599.6875 L 624.195312 599.710938 Z M 598.355469 593.484375 C 598.355469 592.109375 599.476562 590.992188 601.0625 590.96875 C 601.128906 590.957031 601.1875 590.949219 601.25 590.949219 C 601.550781 590.949219 601.820312 591.085938 602.003906 591.214844 C 602.667969 591.667969 603.1875 592.59375 603.351562 593.457031 L 603.351562 600.3125 L 598.355469 600.335938 Z M 587.957031 593.484375 C 587.957031 592.109375 589.078125 590.992188 590.667969 590.96875 C 590.730469 590.957031 590.792969 590.949219 590.855469 590.949219 C 591.152344 590.949219 591.421875 591.085938 591.609375 591.214844 C 592.269531 591.667969 592.789062 592.59375 592.953125 593.457031 L 592.953125 600.3125 L 587.957031 600.335938 Z M 563.386719 593.484375 C 563.386719 592.109375 564.507812 590.992188 566.09375 590.96875 C 566.160156 590.957031 566.222656 590.949219 566.28125 590.949219 C 566.582031 590.949219 566.851562 591.085938 567.039062 591.214844 C 567.703125 591.667969 568.222656 592.59375 568.382812 593.457031 L 568.382812 600.3125 L 563.386719 600.335938 Z M 552.988281 593.484375 C 552.988281 592.109375 554.109375 590.992188 555.699219 590.96875 C 555.761719 590.957031 555.824219 590.949219 555.886719 590.949219 C 556.1875 590.949219 556.453125 591.085938 556.640625 591.214844 C 557.300781 591.667969 557.824219 592.59375 557.984375 593.457031 L 557.984375 600.3125 L 552.988281 600.335938 Z M 525.363281 593.484375 C 525.363281 592.109375 526.484375 590.992188 528.070312 590.96875 C 528.136719 590.957031 528.199219 590.949219 528.257812 590.949219 C 528.558594 590.949219 528.828125 591.085938 529.011719 591.214844 C 529.675781 591.667969 530.195312 592.59375 530.359375 593.457031 L 530.359375 600.3125 L 525.363281 600.335938 Z M 514.964844 593.484375 C 514.964844 592.109375 516.085938 590.992188 517.675781 590.96875 C 517.738281 590.957031 517.800781 590.949219 517.863281 590.949219 C 518.160156 590.949219 518.429688 591.085938 518.617188 591.214844 C 519.277344 591.667969 519.800781 592.59375 519.960938 593.457031 L 519.960938 600.3125 L 514.964844 600.335938 Z M 489.542969 593.484375 C 489.542969 592.109375 490.664062 590.992188 492.253906 590.96875 C 492.316406 590.957031 492.378906 590.949219 492.441406 590.949219 C 492.738281 590.949219 493.007812 591.085938 493.195312 591.214844 C 493.855469 591.667969 494.378906 592.59375 494.539062 593.457031 L 494.539062 600.3125 L 489.542969 600.335938 Z M 479.148438 593.484375 C 479.148438 592.109375 480.269531 590.992188 481.855469 590.96875 C 481.921875 590.957031 481.980469 590.949219 482.042969 590.949219 C 482.34375 590.949219 482.613281 591.085938 482.796875 591.214844 C 483.460938 591.667969 483.980469 592.59375 484.144531 593.457031 L 484.144531 600.3125 L 479.148438 600.335938 Z M 648.578125 610.996094 L 470.855469 610.996094 L 470.855469 602.453125 L 477.035156 602.453125 L 477.035156 602.457031 L 478.003906 602.453125 L 487.429688 602.453125 L 487.429688 602.457031 L 488.402344 602.453125 L 512.851562 602.453125 L 512.851562 602.457031 L 513.824219 602.453125 L 523.25 602.453125 L 523.25 602.457031 L 524.21875 602.453125 L 550.875 602.453125 L 550.875 602.457031 L 551.847656 602.453125 L 561.273438 602.453125 L 561.273438 602.457031 L 562.246094 602.453125 L 585.84375 602.453125 L 585.84375 602.457031 L 586.816406 602.453125 L 596.242188 602.453125 L 596.242188 602.457031 L 597.210938 602.453125 L 648.578125 602.453125 Z M 648.578125 610.996094 " fill-opacity="1" fill-rule="nonzero"/><path fill="#000000" d="M 697.199219 579.148438 C 696.4375 576.671875 694.152344 574.851562 691.425781 574.851562 C 688.082031 574.851562 685.359375 577.570312 685.359375 580.914062 L 685.359375 593.558594 L 681.058594 593.558594 L 681.058594 600.878906 L 712.863281 600.878906 L 712.863281 593.558594 L 708.945312 593.558594 L 708.945312 581.21875 C 708.945312 577.875 706.222656 575.15625 702.878906 575.15625 C 700.261719 575.15625 698.050781 576.824219 697.199219 579.148438 Z M 687.472656 580.914062 C 687.472656 578.738281 689.246094 576.964844 691.425781 576.964844 C 693.605469 576.964844 695.378906 578.738281 695.378906 580.914062 L 695.378906 593.257812 L 687.472656 593.257812 Z M 710.75 595.671875 L 710.75 598.765625 L 683.171875 598.765625 L 683.171875 595.671875 Z M 706.832031 581.21875 L 706.832031 593.558594 L 698.925781 593.558594 L 698.925781 581.21875 C 698.925781 579.039062 700.699219 577.269531 702.878906 577.269531 C 705.058594 577.269531 706.832031 579.039062 706.832031 581.21875 Z M 706.832031 581.21875 " fill-opacity="1" fill-rule="nonzero"/><path fill="#000000" d="M 430.863281 504.535156 C 430.863281 498.878906 426.253906 494.277344 420.59375 494.277344 C 414.933594 494.277344 410.328125 498.878906 410.328125 504.535156 L 410.328125 528.664062 L 408.632812 528.664062 L 408.632812 504.535156 C 408.632812 498.878906 404.027344 494.277344 398.363281 494.277344 C 392.703125 494.277344 388.097656 498.878906 388.097656 504.535156 L 388.097656 528.664062 L 383.25 528.664062 L 383.25 544.820312 L 437.230469 544.820312 L 437.230469 528.664062 L 430.863281 528.664062 Z M 412.441406 504.535156 C 412.441406 500.042969 416.097656 496.390625 420.59375 496.390625 C 425.089844 496.390625 428.746094 500.042969 428.746094 504.535156 L 428.746094 528.664062 L 412.441406 528.664062 Z M 390.210938 504.535156 C 390.210938 500.042969 393.867188 496.390625 398.363281 496.390625 C 402.859375 496.390625 406.515625 500.042969 406.515625 504.535156 L 406.515625 528.664062 L 390.210938 528.664062 Z M 435.117188 530.773438 L 435.117188 542.707031 L 385.363281 542.707031 L 385.363281 530.773438 Z M 435.117188 530.773438 " fill-opacity="1" fill-rule="nonzero"/><g clip-path="url(#7f14d48a92)"><path fill="#000000" d="M 449.828125 464.492188 L 424.539062 464.492188 L 424.539062 466.289062 C 422.238281 460.53125 416.378906 456.421875 409.511719 456.421875 C 403.402344 456.421875 398.078125 459.675781 395.355469 464.449219 C 393.386719 464.089844 387.667969 464.0625 370.214844 464.492188 L 369.179688 464.519531 L 369.183594 465.554688 C 369.503906 525.941406 369.929688 639.816406 369.292969 648.597656 L 369.03125 648.707031 L 369.203125 649.558594 C 369.273438 649.90625 369.320312 650.140625 370.648438 650.300781 L 370.652344 650.316406 C 370.664062 650.3125 370.671875 650.308594 370.683594 650.304688 C 372.574219 650.523438 377 650.589844 387.550781 650.589844 C 393.144531 650.589844 400.457031 650.574219 410.027344 650.546875 C 429.894531 650.496094 449.753906 650.398438 449.753906 650.398438 L 450.8125 650.390625 L 449.835938 465.542969 Z M 409.511719 458.535156 C 417.214844 458.535156 423.484375 464.433594 423.484375 471.683594 C 423.484375 478.933594 417.214844 484.832031 409.511719 484.832031 C 401.808594 484.832031 395.542969 478.933594 395.542969 471.683594 C 395.542969 464.433594 401.808594 458.535156 409.511719 458.535156 Z M 391.179688 648.285156 L 391.179688 614.230469 C 391.179688 603.996094 399.511719 595.671875 409.753906 595.671875 L 409.996094 595.671875 C 420.238281 595.671875 428.570312 603.996094 428.570312 614.230469 L 428.570312 648.285156 Z M 430.6875 648.371094 L 430.6875 614.230469 C 430.6875 602.832031 421.40625 593.558594 409.996094 593.558594 L 409.753906 593.558594 C 398.347656 593.558594 389.066406 602.832031 389.066406 614.230469 L 389.066406 648.464844 C 380.34375 648.464844 373.617188 648.433594 371.28125 648.363281 C 371.738281 643.441406 371.847656 625.425781 371.664062 557.292969 C 371.554688 515.4375 371.339844 473.625 371.300781 466.578125 C 379.445312 466.386719 391.386719 466.207031 394.441406 466.40625 C 393.796875 468.054688 393.429688 469.828125 393.429688 471.683594 C 393.429688 480.097656 400.644531 486.945312 409.511719 486.945312 C 418.382812 486.945312 425.597656 480.097656 425.597656 471.683594 C 425.597656 469.902344 425.257812 468.195312 424.664062 466.605469 L 447.726562 466.605469 L 448.683594 648.292969 C 443.90625 648.316406 437.617188 648.34375 430.6875 648.371094 Z M 430.6875 648.371094 " fill-opacity="1" fill-rule="nonzero"/></g><path fill="#000000" d="M 416.191406 479.222656 L 410.789062 471.652344 L 416.21875 463.214844 L 414.441406 462.070312 L 408.238281 471.714844 L 414.46875 480.449219 Z M 416.191406 479.222656 " fill-opacity="1" fill-rule="nonzero"/></svg>