<svg xmlns="http://www.w3.org/2000/svg" xmlns:xlink="http://www.w3.org/1999/xlink" width="1080" zoomAndPan="magnify" viewBox="0 0 810 1012.49997" height="1350" preserveAspectRatio="xMidYMid meet" version="1.0"><defs><clipPath id="f29a123354"><path d="M 0.199219 0 L 809.800781 0 L 809.800781 1012 L 0.199219 1012 Z M 0.199219 0 " clip-rule="nonzero"/></clipPath><clipPath id="0b8dcb103f"><path d="M 474 806 L 510 806 L 510 833.457031 L 474 833.457031 Z M 474 806 " clip-rule="nonzero"/></clipPath><clipPath id="b8a6132648"><path d="M 299 806 L 336 806 L 336 833.457031 L 299 833.457031 Z M 299 806 " clip-rule="nonzero"/></clipPath><clipPath id="0484fb4175"><path d="M 492 815 L 671 815 L 671 833.457031 L 492 833.457031 Z M 492 815 " clip-rule="nonzero"/></clipPath><clipPath id="71a5fd304f"><path d="M 523 814 L 641 814 L 641 833.457031 L 523 833.457031 Z M 523 814 " clip-rule="nonzero"/></clipPath><clipPath id="aef1253d42"><path d="M 139 815 L 317 815 L 317 833.457031 L 139 833.457031 Z M 139 815 " clip-rule="nonzero"/></clipPath><clipPath id="cb44bed5ba"><path d="M 169 814 L 287 814 L 287 833.457031 L 169 833.457031 Z M 169 814 " clip-rule="nonzero"/></clipPath><clipPath id="af5a49ce62"><path d="M 322 178.277344 L 488 178.277344 L 488 217 L 322 217 Z M 322 178.277344 " clip-rule="nonzero"/></clipPath><clipPath id="13e6b9bc49"><path d="M 130.535156 325 L 679.261719 325 L 679.261719 351 L 130.535156 351 Z M 130.535156 325 " clip-rule="nonzero"/></clipPath></defs><g clip-path="url(#f29a123354)"><path fill="#ffffff" d="M 0.199219 0 L 809.800781 0 L 809.800781 1012 L 0.199219 1012 Z M 0.199219 0 " fill-opacity="1" fill-rule="nonzero"/><path fill="#ffffff" d="M 0.199219 0 L 809.800781 0 L 809.800781 1012 L 0.199219 1012 Z M 0.199219 0 " fill-opacity="1" fill-rule="nonzero"/></g><path fill="#ffffff" d="M 302.417969 571.335938 L 314.125 571.335938 C 314.335938 521.648438 354.679688 481.4375 404.417969 481.4375 C 454.15625 481.4375 494.496094 521.648438 494.710938 571.335938 L 507.328125 571.335938 L 507.328125 440.75 L 302.417969 440.75 Z M 302.417969 571.335938 " fill-opacity="1" fill-rule="nonzero"/><path fill="#414042" d="M 299.617188 574.140625 L 316.914062 574.140625 L 316.925781 571.351562 C 317.132812 523.316406 356.378906 484.238281 404.417969 484.238281 C 452.453125 484.238281 491.703125 523.316406 491.90625 571.351562 L 491.917969 574.140625 L 510.132812 574.140625 L 510.132812 437.949219 L 299.617188 437.949219 Z M 305.222656 443.554688 L 504.527344 443.554688 L 504.527344 568.535156 L 497.457031 568.535156 C 495.765625 518.710938 454.597656 478.632812 404.417969 478.632812 C 354.234375 478.632812 313.066406 518.710938 311.375 568.535156 L 305.222656 568.535156 Z M 305.222656 443.554688 " fill-opacity="1" fill-rule="nonzero"/><path fill="#ffffff" d="M 404.417969 481.4375 C 354.679688 481.4375 314.335938 521.648438 314.125 571.335938 L 326.601562 571.335938 C 326.8125 528.539062 361.570312 493.914062 404.417969 493.914062 C 447.265625 493.914062 482.019531 528.539062 482.234375 571.335938 L 494.710938 571.335938 C 494.496094 521.652344 454.15625 481.4375 404.417969 481.4375 Z M 404.417969 481.4375 " fill-opacity="1" fill-rule="nonzero"/><path fill="#414042" d="M 404.417969 478.632812 C 353.304688 478.632812 311.539062 520.214844 311.320312 571.328125 L 311.308594 574.140625 L 329.390625 574.140625 L 329.402344 571.351562 C 329.605469 530.199219 363.257812 496.71875 404.417969 496.71875 C 445.574219 496.71875 479.226562 530.199219 479.429688 571.351562 L 479.445312 574.140625 L 497.523438 574.140625 L 497.511719 571.328125 C 497.292969 520.214844 455.53125 478.632812 404.417969 478.632812 Z M 484.976562 568.535156 C 483.285156 525.59375 447.71875 491.109375 404.417969 491.109375 C 361.117188 491.109375 325.550781 525.59375 323.859375 568.535156 L 316.984375 568.535156 C 318.675781 521.796875 357.320312 484.238281 404.417969 484.238281 C 451.515625 484.238281 490.160156 521.796875 491.851562 568.535156 Z M 484.976562 568.535156 " fill-opacity="1" fill-rule="nonzero"/><path fill="#ffffff" d="M 404.417969 468.417969 C 347.472656 468.417969 301.289062 514.457031 301.046875 571.339844 L 315.328125 571.339844 C 315.574219 522.34375 355.363281 482.699219 404.417969 482.699219 C 453.46875 482.699219 493.261719 522.34375 493.503906 571.339844 L 507.789062 571.339844 C 507.542969 514.453125 461.359375 468.417969 404.417969 468.417969 Z M 404.417969 468.417969 " fill-opacity="1" fill-rule="nonzero"/><path fill="#414042" d="M 404.417969 465.613281 C 346.125 465.613281 298.492188 513.035156 298.246094 571.324219 L 298.234375 574.140625 L 318.121094 574.140625 L 318.132812 571.351562 C 318.367188 524.015625 357.074219 485.5 404.417969 485.5 C 451.761719 485.5 490.46875 524.015625 490.703125 571.351562 L 490.714844 574.140625 L 510.601562 574.140625 L 510.589844 571.324219 C 510.339844 513.035156 462.710938 465.613281 404.417969 465.613281 Z M 496.253906 568.535156 C 494.53125 519.40625 453.902344 479.894531 404.417969 479.894531 C 354.929688 479.894531 314.304688 519.40625 312.582031 568.535156 L 303.902344 568.535156 C 305.625 514.617188 350.140625 471.21875 404.417969 471.21875 C 458.695312 471.21875 503.207031 514.617188 504.933594 568.535156 Z M 496.253906 568.535156 " fill-opacity="1" fill-rule="nonzero"/><path fill="#ffffff" d="M 482.238281 594.355469 L 507.191406 594.355469 L 507.191406 809.132812 L 482.238281 809.132812 Z M 482.238281 594.355469 " fill-opacity="1" fill-rule="nonzero"/><path fill="#414042" d="M 479.4375 811.9375 L 509.996094 811.9375 L 509.996094 591.554688 L 479.4375 591.554688 Z M 485.042969 597.15625 L 504.390625 597.15625 L 504.390625 806.332031 L 485.042969 806.332031 Z M 485.042969 597.15625 " fill-opacity="1" fill-rule="nonzero"/><path fill="#ffffff" d="M 472.953125 582.445312 L 507.191406 582.445312 L 507.191406 594.355469 L 472.953125 594.355469 Z M 472.953125 582.445312 " fill-opacity="1" fill-rule="nonzero"/><path fill="#414042" d="M 470.148438 597.15625 L 509.992188 597.15625 L 509.992188 579.644531 L 470.148438 579.644531 Z M 475.753906 585.25 L 504.386719 585.25 L 504.386719 591.554688 L 475.753906 591.554688 Z M 475.753906 585.25 " fill-opacity="1" fill-rule="nonzero"/><path fill="#ffffff" d="M 472.953125 571.335938 L 507.191406 571.335938 L 507.191406 582.445312 L 472.953125 582.445312 Z M 472.953125 571.335938 " fill-opacity="1" fill-rule="nonzero"/><path fill="#414042" d="M 470.148438 585.25 L 509.992188 585.25 L 509.992188 568.535156 L 470.148438 568.535156 Z M 475.753906 574.140625 L 504.386719 574.140625 L 504.386719 579.644531 L 475.753906 579.644531 Z M 475.753906 574.140625 " fill-opacity="1" fill-rule="nonzero"/><path fill="#ffffff" d="M 476.816406 809.132812 L 507.191406 809.132812 L 507.191406 830.351562 L 476.816406 830.351562 Z M 476.816406 809.132812 " fill-opacity="1" fill-rule="nonzero"/><g clip-path="url(#0b8dcb103f)"><path fill="#414042" d="M 474.011719 833.152344 L 509.992188 833.152344 L 509.992188 806.332031 L 474.011719 806.332031 Z M 479.617188 811.9375 L 504.386719 811.9375 L 504.386719 827.546875 L 479.617188 827.546875 Z M 479.617188 811.9375 " fill-opacity="1" fill-rule="nonzero"/></g><path fill="#ffffff" d="M 302.558594 594.355469 L 327.507812 594.355469 L 327.507812 809.132812 L 302.558594 809.132812 Z M 302.558594 594.355469 " fill-opacity="1" fill-rule="nonzero"/><path fill="#414042" d="M 299.753906 811.9375 L 330.3125 811.9375 L 330.3125 591.554688 L 299.753906 591.554688 Z M 305.359375 597.15625 L 324.707031 597.15625 L 324.707031 806.332031 L 305.359375 806.332031 Z M 305.359375 597.15625 " fill-opacity="1" fill-rule="nonzero"/><path fill="#ffffff" d="M 302.558594 582.445312 L 336.796875 582.445312 L 336.796875 594.355469 L 302.558594 594.355469 Z M 302.558594 582.445312 " fill-opacity="1" fill-rule="nonzero"/><path fill="#414042" d="M 299.753906 597.15625 L 339.597656 597.15625 L 339.597656 579.644531 L 299.753906 579.644531 Z M 305.359375 585.25 L 333.992188 585.25 L 333.992188 591.554688 L 305.359375 591.554688 Z M 305.359375 585.25 " fill-opacity="1" fill-rule="nonzero"/><path fill="#ffffff" d="M 302.558594 571.335938 L 336.796875 571.335938 L 336.796875 582.445312 L 302.558594 582.445312 Z M 302.558594 571.335938 " fill-opacity="1" fill-rule="nonzero"/><path fill="#414042" d="M 299.753906 585.25 L 339.597656 585.25 L 339.597656 568.535156 L 299.753906 568.535156 Z M 305.359375 574.140625 L 333.992188 574.140625 L 333.992188 579.644531 L 305.359375 579.644531 Z M 305.359375 574.140625 " fill-opacity="1" fill-rule="nonzero"/><path fill="#ffffff" d="M 302.558594 809.132812 L 332.933594 809.132812 L 332.933594 830.351562 L 302.558594 830.351562 Z M 302.558594 809.132812 " fill-opacity="1" fill-rule="nonzero"/><g clip-path="url(#b8a6132648)"><path fill="#414042" d="M 299.753906 833.152344 L 335.738281 833.152344 L 335.738281 806.332031 L 299.753906 806.332031 Z M 305.359375 811.9375 L 330.132812 811.9375 L 330.132812 827.546875 L 305.359375 827.546875 Z M 305.359375 811.9375 " fill-opacity="1" fill-rule="nonzero"/></g><path fill="#ffffff" d="M 502.214844 754.457031 L 661.386719 754.457031 L 661.386719 800.636719 L 502.214844 800.636719 Z M 502.214844 754.457031 " fill-opacity="1" fill-rule="nonzero"/><path fill="#414042" d="M 499.414062 803.441406 L 664.191406 803.441406 L 664.191406 751.652344 L 499.414062 751.652344 Z M 505.019531 757.257812 L 658.585938 757.257812 L 658.585938 797.835938 L 505.019531 797.835938 Z M 505.019531 757.257812 " fill-opacity="1" fill-rule="nonzero"/><path fill="#ffffff" d="M 505.136719 742.285156 L 658.464844 742.285156 L 658.464844 754.457031 L 505.136719 754.457031 Z M 505.136719 742.285156 " fill-opacity="1" fill-rule="nonzero"/><path fill="#414042" d="M 502.335938 757.257812 L 661.265625 757.257812 L 661.265625 739.480469 L 502.335938 739.480469 Z M 507.941406 745.085938 L 655.660156 745.085938 L 655.660156 751.652344 L 507.941406 751.652344 Z M 507.941406 745.085938 " fill-opacity="1" fill-rule="nonzero"/><path fill="#ffffff" d="M 507.328125 732.28125 L 656.273438 732.28125 L 656.273438 742.285156 L 507.328125 742.285156 Z M 507.328125 732.28125 " fill-opacity="1" fill-rule="nonzero"/><path fill="#414042" d="M 504.527344 745.085938 L 659.078125 745.085938 L 659.078125 729.480469 L 504.527344 729.480469 Z M 510.132812 735.082031 L 653.472656 735.082031 L 653.472656 739.480469 L 510.132812 739.480469 Z M 510.132812 735.082031 " fill-opacity="1" fill-rule="nonzero"/><path fill="#ffffff" d="M 507.328125 596.386719 L 656.273438 596.386719 L 656.273438 732.28125 L 507.328125 732.28125 Z M 507.328125 596.386719 " fill-opacity="1" fill-rule="nonzero"/><path fill="#414042" d="M 504.527344 735.082031 L 659.078125 735.082031 L 659.078125 593.585938 L 504.527344 593.585938 Z M 510.132812 599.191406 L 653.472656 599.191406 L 653.472656 729.480469 L 510.132812 729.480469 Z M 510.132812 599.191406 " fill-opacity="1" fill-rule="nonzero"/><path fill="#ffffff" d="M 499.433594 800.636719 L 664.171875 800.636719 L 664.171875 810.09375 L 499.433594 810.09375 Z M 499.433594 800.636719 " fill-opacity="1" fill-rule="nonzero"/><path fill="#414042" d="M 496.628906 812.898438 L 666.972656 812.898438 L 666.972656 797.835938 L 496.628906 797.835938 Z M 502.234375 803.441406 L 661.367188 803.441406 L 661.367188 807.292969 L 502.234375 807.292969 Z M 502.234375 803.441406 " fill-opacity="1" fill-rule="nonzero"/><path fill="#ffffff" d="M 497.246094 810.09375 L 666.355469 810.09375 L 666.355469 818.195312 L 497.246094 818.195312 Z M 497.246094 810.09375 " fill-opacity="1" fill-rule="nonzero"/><path fill="#414042" d="M 494.445312 820.996094 L 669.160156 820.996094 L 669.160156 807.292969 L 494.445312 807.292969 Z M 500.046875 812.898438 L 663.554688 812.898438 L 663.554688 815.390625 L 500.046875 815.390625 Z M 500.046875 812.898438 " fill-opacity="1" fill-rule="nonzero"/><path fill="#ffffff" d="M 495.789062 818.195312 L 667.816406 818.195312 L 667.816406 830.351562 L 495.789062 830.351562 Z M 495.789062 818.195312 " fill-opacity="1" fill-rule="nonzero"/><g clip-path="url(#0484fb4175)"><path fill="#414042" d="M 492.984375 833.152344 L 670.617188 833.152344 L 670.617188 815.390625 L 492.984375 815.390625 Z M 498.589844 820.996094 L 665.011719 820.996094 L 665.011719 827.546875 L 498.589844 827.546875 Z M 498.589844 820.996094 " fill-opacity="1" fill-rule="nonzero"/></g><path fill="#ffffff" d="M 532.878906 750.859375 L 630.726562 750.859375 L 630.726562 799.230469 L 532.878906 799.230469 Z M 532.878906 750.859375 " fill-opacity="1" fill-rule="nonzero"/><path fill="#414042" d="M 530.074219 802.03125 L 633.527344 802.03125 L 633.527344 748.058594 L 530.074219 748.058594 Z M 535.679688 753.664062 L 627.921875 753.664062 L 627.921875 796.425781 L 535.679688 796.425781 Z M 535.679688 753.664062 " fill-opacity="1" fill-rule="nonzero"/><path fill="#ffffff" d="M 535.878906 738.113281 L 627.722656 738.113281 L 627.722656 750.859375 L 535.878906 750.859375 Z M 535.878906 738.113281 " fill-opacity="1" fill-rule="nonzero"/><path fill="#414042" d="M 533.078125 753.664062 L 630.523438 753.664062 L 630.523438 735.308594 L 533.078125 735.308594 Z M 538.683594 740.914062 L 624.917969 740.914062 L 624.917969 748.058594 L 538.683594 748.058594 Z M 538.683594 740.914062 " fill-opacity="1" fill-rule="nonzero"/><path fill="#ffffff" d="M 538.132812 727.632812 L 625.472656 727.632812 L 625.472656 738.113281 L 538.132812 738.113281 Z M 538.132812 727.632812 " fill-opacity="1" fill-rule="nonzero"/><path fill="#414042" d="M 535.328125 740.914062 L 628.273438 740.914062 L 628.273438 724.832031 L 535.328125 724.832031 Z M 540.933594 730.4375 L 622.667969 730.4375 L 622.667969 735.308594 L 540.933594 735.308594 Z M 540.933594 730.4375 " fill-opacity="1" fill-rule="nonzero"/><path fill="#ffffff" d="M 538.132812 596.386719 L 625.472656 596.386719 L 625.472656 727.632812 L 538.132812 727.632812 Z M 538.132812 596.386719 " fill-opacity="1" fill-rule="nonzero"/><path fill="#414042" d="M 535.328125 730.4375 L 628.273438 730.4375 L 628.273438 593.585938 L 535.328125 593.585938 Z M 540.933594 599.191406 L 622.667969 599.191406 L 622.667969 724.832031 L 540.933594 724.832031 Z M 540.933594 599.191406 " fill-opacity="1" fill-rule="nonzero"/><path fill="#ffffff" d="M 530.019531 799.230469 L 633.585938 799.230469 L 633.585938 809.132812 L 530.019531 809.132812 Z M 530.019531 799.230469 " fill-opacity="1" fill-rule="nonzero"/><path fill="#414042" d="M 527.214844 811.9375 L 636.386719 811.9375 L 636.386719 796.425781 L 527.214844 796.425781 Z M 532.820312 802.03125 L 630.78125 802.03125 L 630.78125 806.332031 L 532.820312 806.332031 Z M 532.820312 802.03125 " fill-opacity="1" fill-rule="nonzero"/><path fill="#ffffff" d="M 527.773438 809.132812 L 635.828125 809.132812 L 635.828125 817.617188 L 527.773438 817.617188 Z M 527.773438 809.132812 " fill-opacity="1" fill-rule="nonzero"/><path fill="#414042" d="M 524.96875 820.417969 L 638.632812 820.417969 L 638.632812 806.332031 L 524.96875 806.332031 Z M 530.574219 811.9375 L 633.027344 811.9375 L 633.027344 814.816406 L 530.574219 814.816406 Z M 530.574219 811.9375 " fill-opacity="1" fill-rule="nonzero"/><path fill="#ffffff" d="M 526.277344 817.617188 L 637.324219 817.617188 L 637.324219 830.351562 L 526.277344 830.351562 Z M 526.277344 817.617188 " fill-opacity="1" fill-rule="nonzero"/><g clip-path="url(#71a5fd304f)"><path fill="#414042" d="M 523.472656 833.152344 L 640.128906 833.152344 L 640.128906 814.816406 L 523.472656 814.816406 Z M 529.078125 820.417969 L 634.523438 820.417969 L 634.523438 827.546875 L 529.078125 827.546875 Z M 529.078125 820.417969 " fill-opacity="1" fill-rule="nonzero"/></g><path fill="#ffffff" d="M 507.191406 581.773438 L 656.410156 581.773438 L 656.410156 596.386719 L 507.191406 596.386719 Z M 507.191406 581.773438 " fill-opacity="1" fill-rule="nonzero"/><path fill="#414042" d="M 504.386719 599.191406 L 659.214844 599.191406 L 659.214844 578.972656 L 504.386719 578.972656 Z M 509.996094 584.574219 L 653.609375 584.574219 L 653.609375 593.585938 L 509.996094 593.585938 Z M 509.996094 584.574219 " fill-opacity="1" fill-rule="nonzero"/><path fill="#ffffff" d="M 499.210938 569.445312 L 664.394531 569.445312 L 664.394531 581.773438 L 499.210938 581.773438 Z M 499.210938 569.445312 " fill-opacity="1" fill-rule="nonzero"/><path fill="#414042" d="M 496.40625 584.574219 L 667.195312 584.574219 L 667.195312 566.644531 L 496.40625 566.644531 Z M 502.011719 572.25 L 661.589844 572.25 L 661.589844 578.96875 L 502.011719 578.96875 Z M 502.011719 572.25 " fill-opacity="1" fill-rule="nonzero"/><path fill="#ffffff" d="M 549.851562 607.988281 L 613.753906 607.988281 L 613.753906 716.035156 L 549.851562 716.035156 Z M 549.851562 607.988281 " fill-opacity="1" fill-rule="nonzero"/><path fill="#414042" d="M 547.046875 718.835938 L 616.554688 718.835938 L 616.554688 605.1875 L 547.046875 605.1875 Z M 552.652344 610.789062 L 610.949219 610.789062 L 610.949219 713.230469 L 552.652344 713.230469 Z M 552.652344 610.789062 " fill-opacity="1" fill-rule="nonzero"/><path fill="#ffffff" d="M 507.328125 440.75 L 656.273438 440.75 L 656.273438 569.445312 L 507.328125 569.445312 Z M 507.328125 440.75 " fill-opacity="1" fill-rule="nonzero"/><path fill="#414042" d="M 504.527344 572.25 L 659.078125 572.25 L 659.078125 437.949219 L 504.527344 437.949219 Z M 510.132812 443.554688 L 653.472656 443.554688 L 653.472656 566.644531 L 510.132812 566.644531 Z M 510.132812 443.554688 " fill-opacity="1" fill-rule="nonzero"/><path fill="#ffffff" d="M 538.132812 530.191406 L 625.472656 530.191406 L 625.472656 569.445312 L 538.132812 569.445312 Z M 538.132812 530.191406 " fill-opacity="1" fill-rule="nonzero"/><path fill="#414042" d="M 535.328125 572.25 L 628.273438 572.25 L 628.273438 527.386719 L 535.328125 527.386719 Z M 540.933594 532.992188 L 622.667969 532.992188 L 622.667969 566.644531 L 540.933594 566.644531 Z M 540.933594 532.992188 " fill-opacity="1" fill-rule="nonzero"/><path fill="#ffffff" d="M 549.851562 517.433594 L 613.753906 517.433594 L 613.753906 530.191406 L 549.851562 530.191406 Z M 549.851562 517.433594 " fill-opacity="1" fill-rule="nonzero"/><path fill="#414042" d="M 547.046875 532.992188 L 616.554688 532.992188 L 616.554688 514.632812 L 547.046875 514.632812 Z M 552.652344 520.238281 L 610.949219 520.238281 L 610.949219 527.386719 L 552.652344 527.386719 Z M 552.652344 520.238281 " fill-opacity="1" fill-rule="nonzero"/><path fill="#ffffff" d="M 549.851562 541.007812 L 613.753906 541.007812 L 613.753906 558.628906 L 549.851562 558.628906 Z M 549.851562 541.007812 " fill-opacity="1" fill-rule="nonzero"/><path fill="#414042" d="M 547.046875 561.433594 L 616.554688 561.433594 L 616.554688 538.207031 L 547.046875 538.207031 Z M 552.652344 543.8125 L 610.949219 543.8125 L 610.949219 555.828125 L 552.652344 555.828125 Z M 552.652344 543.8125 " fill-opacity="1" fill-rule="nonzero"/><path fill="#ffffff" d="M 601.414062 479.734375 C 601.539062 480.378906 601.628906 481.023438 601.691406 481.675781 C 601.75 482.324219 601.777344 482.976562 601.773438 483.632812 C 601.769531 484.285156 601.734375 484.9375 601.667969 485.585938 C 601.597656 486.238281 601.5 486.882812 601.367188 487.523438 C 601.234375 488.164062 601.074219 488.792969 600.878906 489.417969 C 600.6875 490.042969 600.460938 490.65625 600.207031 491.257812 C 599.957031 491.859375 599.671875 492.449219 599.359375 493.023438 C 599.050781 493.597656 598.710938 494.15625 598.34375 494.695312 C 597.976562 495.238281 597.585938 495.761719 597.167969 496.261719 C 596.75 496.765625 596.308594 497.246094 595.84375 497.707031 C 595.378906 498.164062 594.890625 498.601562 594.382812 499.011719 C 593.875 499.421875 593.351562 499.808594 592.804688 500.167969 C 592.257812 500.527344 591.695312 500.859375 591.117188 501.164062 C 590.539062 501.46875 589.949219 501.746094 589.34375 501.992188 C 588.738281 502.238281 588.121094 502.453125 587.496094 502.640625 C 586.867188 502.828125 586.234375 502.980469 585.59375 503.105469 C 584.949219 503.226562 584.304688 503.320312 583.652344 503.378906 C 583.003906 503.441406 582.351562 503.46875 581.695312 503.464844 C 581.042969 503.460938 580.390625 503.425781 579.742188 503.355469 C 579.089844 503.289062 578.445312 503.1875 577.804688 503.058594 C 577.164062 502.925781 576.535156 502.761719 575.910156 502.570312 C 575.285156 502.375 574.671875 502.152344 574.070312 501.898438 C 573.46875 501.644531 572.878906 501.363281 572.304688 501.050781 C 571.730469 500.738281 571.171875 500.398438 570.628906 500.035156 C 570.089844 499.667969 569.566406 499.273438 569.066406 498.859375 C 568.5625 498.441406 568.082031 498 567.621094 497.535156 C 567.164062 497.070312 566.726562 496.582031 566.316406 496.074219 C 565.902344 495.566406 565.519531 495.039062 565.160156 494.496094 C 564.800781 493.949219 564.464844 493.386719 564.164062 492.808594 C 563.859375 492.230469 563.582031 491.636719 563.335938 491.03125 C 563.089844 490.429688 562.875 489.8125 562.6875 489.183594 C 562.5 488.558594 562.347656 487.925781 562.222656 487.28125 C 562.097656 486.640625 562.007812 485.996094 561.949219 485.34375 C 561.886719 484.691406 561.859375 484.039062 561.863281 483.386719 C 561.867188 482.734375 561.902344 482.082031 561.972656 481.433594 C 562.039062 480.78125 562.140625 480.136719 562.269531 479.496094 C 562.402344 478.855469 562.566406 478.222656 562.757812 477.601562 C 562.953125 476.976562 563.175781 476.363281 563.429688 475.761719 C 563.683594 475.15625 563.964844 474.570312 564.277344 473.996094 C 564.589844 473.421875 564.929688 472.863281 565.292969 472.320312 C 565.660156 471.78125 566.054688 471.257812 566.46875 470.753906 C 566.886719 470.253906 567.328125 469.773438 567.792969 469.3125 C 568.257812 468.851562 568.746094 468.417969 569.253906 468.007812 C 569.761719 467.59375 570.289062 467.210938 570.832031 466.847656 C 571.378906 466.488281 571.941406 466.15625 572.519531 465.851562 C 573.097656 465.546875 573.691406 465.273438 574.296875 465.027344 C 574.898438 464.78125 575.515625 464.5625 576.144531 464.378906 C 576.769531 464.191406 577.402344 464.039062 578.046875 463.914062 C 578.6875 463.789062 579.332031 463.699219 579.984375 463.636719 C 580.636719 463.578125 581.289062 463.550781 581.941406 463.554688 C 582.59375 463.558594 583.246094 463.59375 583.894531 463.664062 C 584.546875 463.730469 585.191406 463.832031 585.832031 463.960938 C 586.472656 464.09375 587.105469 464.253906 587.730469 464.449219 C 588.351562 464.640625 588.964844 464.867188 589.570312 465.121094 C 590.171875 465.375 590.757812 465.65625 591.332031 465.96875 C 591.90625 466.28125 592.464844 466.617188 593.007812 466.984375 C 593.546875 467.351562 594.070312 467.742188 594.574219 468.160156 C 595.074219 468.578125 595.558594 469.019531 596.015625 469.484375 C 596.476562 469.949219 596.910156 470.4375 597.324219 470.945312 C 597.734375 471.453125 598.121094 471.980469 598.480469 472.523438 C 598.839844 473.070312 599.171875 473.632812 599.476562 474.210938 C 599.78125 474.789062 600.054688 475.378906 600.300781 475.984375 C 600.546875 476.589844 600.765625 477.207031 600.949219 477.832031 C 601.136719 478.460938 601.292969 479.09375 601.414062 479.734375 Z M 601.414062 479.734375 " fill-opacity="1" fill-rule="nonzero"/><path fill="#414042" d="M 581.800781 460.734375 C 569.253906 460.734375 559.042969 470.945312 559.042969 483.492188 C 559.042969 496.039062 569.253906 506.25 581.800781 506.25 C 594.351562 506.25 604.558594 496.042969 604.558594 483.492188 C 604.558594 470.945312 594.351562 460.734375 581.800781 460.734375 Z M 581.800781 500.644531 C 572.34375 500.644531 564.648438 492.949219 564.648438 483.492188 C 564.648438 474.035156 572.34375 466.339844 581.800781 466.339844 C 591.261719 466.339844 598.953125 474.035156 598.953125 483.492188 C 598.953125 492.949219 591.257812 500.644531 581.800781 500.644531 Z M 581.800781 500.644531 " fill-opacity="1" fill-rule="nonzero"/><path fill="#ffffff" d="M 148.359375 754.457031 L 307.535156 754.457031 L 307.535156 800.636719 L 148.359375 800.636719 Z M 148.359375 754.457031 " fill-opacity="1" fill-rule="nonzero"/><path fill="#414042" d="M 145.558594 803.441406 L 310.335938 803.441406 L 310.335938 751.652344 L 145.558594 751.652344 Z M 151.164062 757.257812 L 304.734375 757.257812 L 304.734375 797.835938 L 151.164062 797.835938 Z M 151.164062 757.257812 " fill-opacity="1" fill-rule="nonzero"/><path fill="#ffffff" d="M 151.285156 742.285156 L 304.613281 742.285156 L 304.613281 754.457031 L 151.285156 754.457031 Z M 151.285156 742.285156 " fill-opacity="1" fill-rule="nonzero"/><path fill="#414042" d="M 148.480469 757.257812 L 307.414062 757.257812 L 307.414062 739.480469 L 148.480469 739.480469 Z M 154.085938 745.085938 L 301.808594 745.085938 L 301.808594 751.652344 L 154.085938 751.652344 Z M 154.085938 745.085938 " fill-opacity="1" fill-rule="nonzero"/><path fill="#ffffff" d="M 153.476562 732.28125 L 302.421875 732.28125 L 302.421875 742.285156 L 153.476562 742.285156 Z M 153.476562 732.28125 " fill-opacity="1" fill-rule="nonzero"/><path fill="#414042" d="M 150.671875 745.085938 L 305.222656 745.085938 L 305.222656 729.480469 L 150.671875 729.480469 Z M 156.277344 735.082031 L 299.617188 735.082031 L 299.617188 739.480469 L 156.277344 739.480469 Z M 156.277344 735.082031 " fill-opacity="1" fill-rule="nonzero"/><path fill="#ffffff" d="M 153.476562 596.386719 L 302.421875 596.386719 L 302.421875 732.28125 L 153.476562 732.28125 Z M 153.476562 596.386719 " fill-opacity="1" fill-rule="nonzero"/><path fill="#414042" d="M 150.671875 735.082031 L 305.222656 735.082031 L 305.222656 593.585938 L 150.671875 593.585938 Z M 156.277344 599.191406 L 299.617188 599.191406 L 299.617188 729.480469 L 156.277344 729.480469 Z M 156.277344 599.191406 " fill-opacity="1" fill-rule="nonzero"/><path fill="#ffffff" d="M 145.578125 800.636719 L 310.316406 800.636719 L 310.316406 810.09375 L 145.578125 810.09375 Z M 145.578125 800.636719 " fill-opacity="1" fill-rule="nonzero"/><path fill="#414042" d="M 142.773438 812.898438 L 313.121094 812.898438 L 313.121094 797.835938 L 142.773438 797.835938 Z M 148.378906 803.441406 L 307.515625 803.441406 L 307.515625 807.292969 L 148.378906 807.292969 Z M 148.378906 803.441406 " fill-opacity="1" fill-rule="nonzero"/><path fill="#ffffff" d="M 143.390625 810.09375 L 312.503906 810.09375 L 312.503906 818.195312 L 143.390625 818.195312 Z M 143.390625 810.09375 " fill-opacity="1" fill-rule="nonzero"/><path fill="#414042" d="M 140.589844 820.996094 L 315.304688 820.996094 L 315.304688 807.292969 L 140.589844 807.292969 Z M 146.195312 812.898438 L 309.699219 812.898438 L 309.699219 815.390625 L 146.195312 815.390625 Z M 146.195312 812.898438 " fill-opacity="1" fill-rule="nonzero"/><path fill="#ffffff" d="M 141.9375 818.195312 L 313.960938 818.195312 L 313.960938 830.351562 L 141.9375 830.351562 Z M 141.9375 818.195312 " fill-opacity="1" fill-rule="nonzero"/><g clip-path="url(#aef1253d42)"><path fill="#414042" d="M 139.132812 833.152344 L 316.761719 833.152344 L 316.761719 815.390625 L 139.132812 815.390625 Z M 144.738281 820.996094 L 311.15625 820.996094 L 311.15625 827.546875 L 144.738281 827.546875 Z M 144.738281 820.996094 " fill-opacity="1" fill-rule="nonzero"/></g><path fill="#ffffff" d="M 179.023438 750.859375 L 276.871094 750.859375 L 276.871094 799.230469 L 179.023438 799.230469 Z M 179.023438 750.859375 " fill-opacity="1" fill-rule="nonzero"/><path fill="#414042" d="M 176.222656 802.03125 L 279.675781 802.03125 L 279.675781 748.058594 L 176.222656 748.058594 Z M 181.828125 753.664062 L 274.070312 753.664062 L 274.070312 796.425781 L 181.828125 796.425781 Z M 181.828125 753.664062 " fill-opacity="1" fill-rule="nonzero"/><path fill="#ffffff" d="M 182.027344 738.113281 L 273.867188 738.113281 L 273.867188 750.859375 L 182.027344 750.859375 Z M 182.027344 738.113281 " fill-opacity="1" fill-rule="nonzero"/><path fill="#414042" d="M 179.222656 753.664062 L 276.671875 753.664062 L 276.671875 735.308594 L 179.222656 735.308594 Z M 184.828125 740.914062 L 271.066406 740.914062 L 271.066406 748.058594 L 184.828125 748.058594 Z M 184.828125 740.914062 " fill-opacity="1" fill-rule="nonzero"/><path fill="#ffffff" d="M 184.277344 727.632812 L 271.617188 727.632812 L 271.617188 738.113281 L 184.277344 738.113281 Z M 184.277344 727.632812 " fill-opacity="1" fill-rule="nonzero"/><path fill="#414042" d="M 181.476562 740.914062 L 274.421875 740.914062 L 274.421875 724.832031 L 181.476562 724.832031 Z M 187.082031 730.4375 L 268.816406 730.4375 L 268.816406 735.308594 L 187.082031 735.308594 Z M 187.082031 730.4375 " fill-opacity="1" fill-rule="nonzero"/><path fill="#ffffff" d="M 184.277344 596.386719 L 271.617188 596.386719 L 271.617188 727.632812 L 184.277344 727.632812 Z M 184.277344 596.386719 " fill-opacity="1" fill-rule="nonzero"/><path fill="#414042" d="M 181.476562 730.4375 L 274.421875 730.4375 L 274.421875 593.585938 L 181.476562 593.585938 Z M 187.082031 599.191406 L 268.816406 599.191406 L 268.816406 724.832031 L 187.082031 724.832031 Z M 187.082031 599.191406 " fill-opacity="1" fill-rule="nonzero"/><path fill="#ffffff" d="M 176.164062 799.230469 L 279.730469 799.230469 L 279.730469 809.132812 L 176.164062 809.132812 Z M 176.164062 799.230469 " fill-opacity="1" fill-rule="nonzero"/><path fill="#414042" d="M 173.363281 811.9375 L 282.535156 811.9375 L 282.535156 796.425781 L 173.363281 796.425781 Z M 178.96875 802.03125 L 276.929688 802.03125 L 276.929688 806.332031 L 178.96875 806.332031 Z M 178.96875 802.03125 " fill-opacity="1" fill-rule="nonzero"/><path fill="#ffffff" d="M 173.917969 809.132812 L 281.976562 809.132812 L 281.976562 817.617188 L 173.917969 817.617188 Z M 173.917969 809.132812 " fill-opacity="1" fill-rule="nonzero"/><path fill="#414042" d="M 171.117188 820.417969 L 284.78125 820.417969 L 284.78125 806.332031 L 171.117188 806.332031 Z M 176.722656 811.9375 L 279.171875 811.9375 L 279.171875 814.816406 L 176.722656 814.816406 Z M 176.722656 811.9375 " fill-opacity="1" fill-rule="nonzero"/><path fill="#ffffff" d="M 172.421875 817.617188 L 283.472656 817.617188 L 283.472656 830.351562 L 172.421875 830.351562 Z M 172.421875 817.617188 " fill-opacity="1" fill-rule="nonzero"/><g clip-path="url(#cb44bed5ba)"><path fill="#414042" d="M 169.621094 833.152344 L 286.273438 833.152344 L 286.273438 814.816406 L 169.621094 814.816406 Z M 175.226562 820.417969 L 280.671875 820.417969 L 280.671875 827.546875 L 175.226562 827.546875 Z M 175.226562 820.417969 " fill-opacity="1" fill-rule="nonzero"/></g><path fill="#ffffff" d="M 153.339844 581.773438 L 302.558594 581.773438 L 302.558594 596.386719 L 153.339844 596.386719 Z M 153.339844 581.773438 " fill-opacity="1" fill-rule="nonzero"/><path fill="#414042" d="M 150.535156 599.191406 L 305.359375 599.191406 L 305.359375 578.972656 L 150.535156 578.972656 Z M 156.140625 584.574219 L 299.753906 584.574219 L 299.753906 593.585938 L 156.140625 593.585938 Z M 156.140625 584.574219 " fill-opacity="1" fill-rule="nonzero"/><path fill="#ffffff" d="M 145.355469 569.445312 L 310.542969 569.445312 L 310.542969 581.773438 L 145.355469 581.773438 Z M 145.355469 569.445312 " fill-opacity="1" fill-rule="nonzero"/><path fill="#414042" d="M 142.550781 584.574219 L 313.34375 584.574219 L 313.34375 566.644531 L 142.550781 566.644531 Z M 148.15625 572.25 L 307.738281 572.25 L 307.738281 578.96875 L 148.15625 578.96875 Z M 148.15625 572.25 " fill-opacity="1" fill-rule="nonzero"/><path fill="#ffffff" d="M 195.996094 607.988281 L 259.898438 607.988281 L 259.898438 716.035156 L 195.996094 716.035156 Z M 195.996094 607.988281 " fill-opacity="1" fill-rule="nonzero"/><path fill="#414042" d="M 193.195312 718.835938 L 262.699219 718.835938 L 262.699219 605.1875 L 193.195312 605.1875 Z M 198.800781 610.789062 L 257.09375 610.789062 L 257.09375 713.230469 L 198.800781 713.230469 Z M 198.800781 610.789062 " fill-opacity="1" fill-rule="nonzero"/><path fill="#ffffff" d="M 153.476562 440.75 L 302.421875 440.75 L 302.421875 569.445312 L 153.476562 569.445312 Z M 153.476562 440.75 " fill-opacity="1" fill-rule="nonzero"/><path fill="#414042" d="M 150.671875 572.25 L 305.222656 572.25 L 305.222656 437.949219 L 150.671875 437.949219 Z M 156.277344 443.554688 L 299.617188 443.554688 L 299.617188 566.644531 L 156.277344 566.644531 Z M 156.277344 443.554688 " fill-opacity="1" fill-rule="nonzero"/><path fill="#ffffff" d="M 184.277344 530.191406 L 271.617188 530.191406 L 271.617188 569.445312 L 184.277344 569.445312 Z M 184.277344 530.191406 " fill-opacity="1" fill-rule="nonzero"/><path fill="#414042" d="M 181.476562 572.25 L 274.421875 572.25 L 274.421875 527.386719 L 181.476562 527.386719 Z M 187.082031 532.992188 L 268.816406 532.992188 L 268.816406 566.644531 L 187.082031 566.644531 Z M 187.082031 532.992188 " fill-opacity="1" fill-rule="nonzero"/><path fill="#ffffff" d="M 195.996094 517.433594 L 259.898438 517.433594 L 259.898438 530.191406 L 195.996094 530.191406 Z M 195.996094 517.433594 " fill-opacity="1" fill-rule="nonzero"/><path fill="#414042" d="M 193.195312 532.992188 L 262.699219 532.992188 L 262.699219 514.632812 L 193.195312 514.632812 Z M 198.800781 520.238281 L 257.09375 520.238281 L 257.09375 527.386719 L 198.800781 527.386719 Z M 198.800781 520.238281 " fill-opacity="1" fill-rule="nonzero"/><path fill="#ffffff" d="M 195.996094 541.007812 L 259.898438 541.007812 L 259.898438 558.628906 L 195.996094 558.628906 Z M 195.996094 541.007812 " fill-opacity="1" fill-rule="nonzero"/><path fill="#414042" d="M 193.195312 561.433594 L 262.699219 561.433594 L 262.699219 538.207031 L 193.195312 538.207031 Z M 198.800781 543.8125 L 257.09375 543.8125 L 257.09375 555.828125 L 198.800781 555.828125 Z M 198.800781 543.8125 " fill-opacity="1" fill-rule="nonzero"/><path fill="#ffffff" d="M 238.34375 466.464844 C 238.902344 466.804688 239.441406 467.171875 239.964844 467.566406 C 240.488281 467.957031 240.988281 468.378906 241.46875 468.820312 C 241.949219 469.261719 242.40625 469.726562 242.84375 470.214844 C 243.277344 470.703125 243.6875 471.210938 244.074219 471.738281 C 244.457031 472.265625 244.816406 472.8125 245.148438 473.375 C 245.480469 473.9375 245.78125 474.515625 246.058594 475.109375 C 246.332031 475.703125 246.578125 476.308594 246.792969 476.925781 C 247.007812 477.542969 247.191406 478.167969 247.347656 478.804688 C 247.5 479.4375 247.625 480.078125 247.714844 480.726562 C 247.804688 481.375 247.863281 482.023438 247.890625 482.675781 C 247.917969 483.328125 247.914062 483.984375 247.875 484.636719 C 247.839844 485.289062 247.769531 485.9375 247.667969 486.582031 C 247.566406 487.226562 247.433594 487.867188 247.269531 488.5 C 247.105469 489.132812 246.914062 489.753906 246.6875 490.371094 C 246.464844 490.984375 246.207031 491.585938 245.925781 492.171875 C 245.640625 492.761719 245.328125 493.335938 244.988281 493.890625 C 244.648438 494.449219 244.28125 494.992188 243.886719 495.511719 C 243.492188 496.035156 243.074219 496.535156 242.632812 497.015625 C 242.191406 497.496094 241.726562 497.953125 241.238281 498.390625 C 240.75 498.824219 240.242188 499.234375 239.714844 499.621094 C 239.1875 500.003906 238.640625 500.363281 238.078125 500.695312 C 237.515625 501.027344 236.9375 501.332031 236.34375 501.605469 C 235.75 501.878906 235.144531 502.125 234.527344 502.339844 C 233.910156 502.554688 233.285156 502.742188 232.648438 502.894531 C 232.015625 503.046875 231.371094 503.171875 230.726562 503.261719 C 230.078125 503.351562 229.429688 503.410156 228.773438 503.4375 C 228.121094 503.464844 227.46875 503.460938 226.816406 503.421875 C 226.164062 503.386719 225.515625 503.316406 224.871094 503.214844 C 224.222656 503.113281 223.585938 502.980469 222.953125 502.820312 C 222.320312 502.65625 221.695312 502.460938 221.082031 502.234375 C 220.46875 502.011719 219.867188 501.757812 219.277344 501.472656 C 218.691406 501.1875 218.117188 500.875 217.558594 500.535156 C 217 500.195312 216.460938 499.828125 215.941406 499.433594 C 215.417969 499.042969 214.917969 498.625 214.433594 498.179688 C 213.953125 497.738281 213.496094 497.273438 213.0625 496.785156 C 212.625 496.296875 212.214844 495.789062 211.832031 495.261719 C 211.445312 494.734375 211.085938 494.1875 210.757812 493.625 C 210.425781 493.0625 210.121094 492.484375 209.847656 491.890625 C 209.570312 491.296875 209.328125 490.691406 209.109375 490.074219 C 208.894531 489.457031 208.710938 488.832031 208.558594 488.199219 C 208.402344 487.5625 208.28125 486.921875 208.191406 486.273438 C 208.097656 485.625 208.039062 484.976562 208.011719 484.324219 C 207.988281 483.671875 207.992188 483.019531 208.027344 482.367188 C 208.066406 481.710938 208.136719 481.0625 208.234375 480.417969 C 208.335938 479.773438 208.46875 479.132812 208.632812 478.5 C 208.796875 477.867188 208.992188 477.246094 209.214844 476.628906 C 209.441406 476.015625 209.695312 475.417969 209.980469 474.828125 C 210.265625 474.238281 210.574219 473.664062 210.917969 473.109375 C 211.257812 472.550781 211.625 472.011719 212.015625 471.488281 C 212.410156 470.964844 212.828125 470.464844 213.269531 469.984375 C 213.714844 469.503906 214.179688 469.046875 214.667969 468.609375 C 215.15625 468.175781 215.664062 467.765625 216.191406 467.378906 C 216.71875 466.996094 217.265625 466.636719 217.828125 466.304688 C 218.390625 465.972656 218.96875 465.667969 219.5625 465.394531 C 220.152344 465.121094 220.757812 464.875 221.375 464.660156 C 221.992188 464.445312 222.621094 464.257812 223.253906 464.105469 C 223.890625 463.953125 224.53125 463.828125 225.179688 463.738281 C 225.824219 463.648438 226.476562 463.589844 227.128906 463.5625 C 227.78125 463.535156 228.433594 463.539062 229.085938 463.578125 C 229.738281 463.613281 230.386719 463.683594 231.035156 463.785156 C 231.679688 463.886719 232.320312 464.019531 232.953125 464.183594 C 233.585938 464.34375 234.207031 464.539062 234.820312 464.765625 C 235.433594 464.988281 236.035156 465.246094 236.625 465.527344 C 237.214844 465.8125 237.785156 466.125 238.34375 466.464844 Z M 238.34375 466.464844 " fill-opacity="1" fill-rule="nonzero"/><path fill="#414042" d="M 227.945312 460.734375 C 215.398438 460.734375 205.191406 470.945312 205.191406 483.492188 C 205.191406 496.039062 215.398438 506.25 227.945312 506.25 C 240.496094 506.25 250.703125 496.042969 250.703125 483.492188 C 250.707031 470.945312 240.496094 460.734375 227.945312 460.734375 Z M 227.945312 500.644531 C 218.492188 500.644531 210.796875 492.949219 210.796875 483.492188 C 210.796875 474.035156 218.492188 466.339844 227.945312 466.339844 C 237.40625 466.339844 245.097656 474.035156 245.097656 483.492188 C 245.101562 492.949219 237.40625 500.644531 227.945312 500.644531 Z M 227.945312 500.644531 " fill-opacity="1" fill-rule="nonzero"/><path fill="#ffffff" d="M 228.78125 230.023438 L 580.96875 230.023438 L 580.96875 263.433594 L 228.78125 263.433594 Z M 228.78125 230.023438 " fill-opacity="1" fill-rule="nonzero"/><path fill="#414042" d="M 225.976562 266.234375 L 583.769531 266.234375 L 583.769531 227.21875 L 225.976562 227.21875 Z M 231.582031 232.824219 L 578.167969 232.824219 L 578.167969 260.628906 L 231.582031 260.628906 Z M 231.582031 232.824219 " fill-opacity="1" fill-rule="nonzero"/><path fill="#ffffff" d="M 311.183594 213.699219 L 311.183594 230.023438 L 498.5625 230.023438 L 498.5625 213.699219 Z M 311.183594 213.699219 " fill-opacity="1" fill-rule="nonzero"/><path fill="#414042" d="M 308.382812 232.824219 L 501.367188 232.824219 L 501.367188 210.898438 L 308.382812 210.898438 Z M 313.988281 216.503906 L 495.761719 216.503906 L 495.761719 227.21875 L 313.988281 227.21875 Z M 313.988281 216.503906 " fill-opacity="1" fill-rule="nonzero"/><path fill="#ffffff" d="M 335.359375 213.699219 L 474.386719 213.699219 L 404.875 181.667969 Z M 335.359375 213.699219 " fill-opacity="1" fill-rule="nonzero"/><g clip-path="url(#af5a49ce62)"><path fill="#414042" d="M 322.582031 216.503906 L 487.164062 216.503906 L 404.875 178.582031 Z M 348.136719 210.898438 L 404.875 184.753906 L 461.609375 210.898438 Z M 348.136719 210.898438 " fill-opacity="1" fill-rule="nonzero"/></g><path fill="#ffffff" d="M 155.191406 263.433594 L 654.558594 263.433594 L 654.558594 328.445312 L 155.191406 328.445312 Z M 155.191406 263.433594 " fill-opacity="1" fill-rule="nonzero"/><path fill="#414042" d="M 152.386719 331.246094 L 657.363281 331.246094 L 657.363281 260.628906 L 152.386719 260.628906 Z M 157.992188 266.234375 L 651.757812 266.234375 L 651.757812 325.640625 L 157.992188 325.640625 Z M 157.992188 266.234375 " fill-opacity="1" fill-rule="nonzero"/><path fill="#ffffff" d="M 150.398438 437.589844 L 150.398438 440.75 L 659.351562 440.75 L 659.351562 423.359375 L 150.398438 423.359375 Z M 150.398438 437.589844 " fill-opacity="1" fill-rule="nonzero"/><path fill="#414042" d="M 147.597656 443.554688 L 662.152344 443.554688 L 662.152344 420.554688 L 147.597656 420.554688 Z M 153.203125 426.160156 L 656.546875 426.160156 L 656.546875 437.949219 L 153.203125 437.949219 Z M 153.203125 426.160156 " fill-opacity="1" fill-rule="nonzero"/><path fill="#ffffff" d="M 147.074219 402.144531 L 662.671875 402.144531 L 662.671875 423.359375 L 147.074219 423.359375 Z M 147.074219 402.144531 " fill-opacity="1" fill-rule="nonzero"/><path fill="#414042" d="M 144.273438 426.160156 L 665.476562 426.160156 L 665.476562 399.339844 L 144.273438 399.339844 Z M 149.878906 404.945312 L 659.871094 404.945312 L 659.871094 420.554688 L 149.878906 420.554688 Z M 149.878906 404.945312 " fill-opacity="1" fill-rule="nonzero"/><path fill="#ffffff" d="M 144.746094 375.832031 L 665.003906 375.832031 L 665.003906 402.144531 L 144.746094 402.144531 Z M 144.746094 375.832031 " fill-opacity="1" fill-rule="nonzero"/><path fill="#414042" d="M 141.941406 404.945312 L 667.808594 404.945312 L 667.808594 373.027344 L 141.941406 373.027344 Z M 147.546875 378.632812 L 662.203125 378.632812 L 662.203125 399.339844 L 147.546875 399.339844 Z M 147.546875 378.632812 " fill-opacity="1" fill-rule="nonzero"/><path fill="#ffffff" d="M 361.558594 375.832031 L 371.746094 375.832031 L 371.746094 391.894531 L 361.558594 391.894531 Z M 361.558594 375.832031 " fill-opacity="1" fill-rule="nonzero"/><path fill="#414042" d="M 358.753906 394.699219 L 374.546875 394.699219 L 374.546875 373.027344 L 358.753906 373.027344 Z M 364.359375 378.632812 L 368.941406 378.632812 L 368.941406 389.09375 L 364.359375 389.09375 Z M 364.359375 378.632812 " fill-opacity="1" fill-rule="nonzero"/><path fill="#ffffff" d="M 387.039062 375.832031 L 397.226562 375.832031 L 397.226562 391.894531 L 387.039062 391.894531 Z M 387.039062 375.832031 " fill-opacity="1" fill-rule="nonzero"/><path fill="#414042" d="M 384.238281 394.699219 L 400.03125 394.699219 L 400.03125 373.027344 L 384.238281 373.027344 Z M 389.84375 378.632812 L 394.425781 378.632812 L 394.425781 389.09375 L 389.84375 389.09375 Z M 389.84375 378.632812 " fill-opacity="1" fill-rule="nonzero"/><path fill="#ffffff" d="M 412.523438 375.832031 L 422.710938 375.832031 L 422.710938 391.894531 L 412.523438 391.894531 Z M 412.523438 375.832031 " fill-opacity="1" fill-rule="nonzero"/><path fill="#414042" d="M 409.71875 394.699219 L 425.511719 394.699219 L 425.511719 373.027344 L 409.71875 373.027344 Z M 415.324219 378.632812 L 419.90625 378.632812 L 419.90625 389.09375 L 415.324219 389.09375 Z M 415.324219 378.632812 " fill-opacity="1" fill-rule="nonzero"/><path fill="#ffffff" d="M 463.488281 375.832031 L 473.675781 375.832031 L 473.675781 391.894531 L 463.488281 391.894531 Z M 463.488281 375.832031 " fill-opacity="1" fill-rule="nonzero"/><path fill="#414042" d="M 460.683594 394.699219 L 476.476562 394.699219 L 476.476562 373.027344 L 460.683594 373.027344 Z M 466.289062 378.632812 L 470.871094 378.632812 L 470.871094 389.09375 L 466.289062 389.09375 Z M 466.289062 378.632812 " fill-opacity="1" fill-rule="nonzero"/><path fill="#ffffff" d="M 565.417969 375.832031 L 575.605469 375.832031 L 575.605469 391.894531 L 565.417969 391.894531 Z M 565.417969 375.832031 " fill-opacity="1" fill-rule="nonzero"/><path fill="#414042" d="M 562.613281 394.699219 L 578.40625 394.699219 L 578.40625 373.027344 L 562.613281 373.027344 Z M 568.21875 378.632812 L 572.800781 378.632812 L 572.800781 389.09375 L 568.21875 389.09375 Z M 568.21875 378.632812 " fill-opacity="1" fill-rule="nonzero"/><path fill="#ffffff" d="M 590.898438 375.832031 L 601.085938 375.832031 L 601.085938 391.894531 L 590.898438 391.894531 Z M 590.898438 375.832031 " fill-opacity="1" fill-rule="nonzero"/><path fill="#414042" d="M 588.097656 394.699219 L 603.890625 394.699219 L 603.890625 373.027344 L 588.097656 373.027344 Z M 593.703125 378.632812 L 598.285156 378.632812 L 598.285156 389.09375 L 593.703125 389.09375 Z M 593.703125 378.632812 " fill-opacity="1" fill-rule="nonzero"/><path fill="#ffffff" d="M 616.382812 375.832031 L 626.570312 375.832031 L 626.570312 391.894531 L 616.382812 391.894531 Z M 616.382812 375.832031 " fill-opacity="1" fill-rule="nonzero"/><path fill="#414042" d="M 613.578125 394.699219 L 629.371094 394.699219 L 629.371094 373.027344 L 613.578125 373.027344 Z M 619.183594 378.632812 L 623.765625 378.632812 L 623.765625 389.09375 L 619.183594 389.09375 Z M 619.183594 378.632812 " fill-opacity="1" fill-rule="nonzero"/><path fill="#ffffff" d="M 641.863281 375.832031 L 652.050781 375.832031 L 652.050781 391.894531 L 641.863281 391.894531 Z M 641.863281 375.832031 " fill-opacity="1" fill-rule="nonzero"/><path fill="#414042" d="M 639.0625 394.699219 L 654.855469 394.699219 L 654.855469 373.027344 L 639.0625 373.027344 Z M 644.667969 378.632812 L 649.25 378.632812 L 649.25 389.09375 L 644.667969 389.09375 Z M 644.667969 378.632812 " fill-opacity="1" fill-rule="nonzero"/><path fill="#ffffff" d="M 438.003906 375.832031 L 448.191406 375.832031 L 448.191406 391.894531 L 438.003906 391.894531 Z M 438.003906 375.832031 " fill-opacity="1" fill-rule="nonzero"/><path fill="#414042" d="M 435.203125 394.699219 L 450.996094 394.699219 L 450.996094 373.027344 L 435.203125 373.027344 Z M 440.808594 378.632812 L 445.390625 378.632812 L 445.390625 389.09375 L 440.808594 389.09375 Z M 440.808594 378.632812 " fill-opacity="1" fill-rule="nonzero"/><path fill="#ffffff" d="M 488.96875 375.832031 L 499.15625 375.832031 L 499.15625 391.894531 L 488.96875 391.894531 Z M 488.96875 375.832031 " fill-opacity="1" fill-rule="nonzero"/><path fill="#414042" d="M 486.167969 394.699219 L 501.960938 394.699219 L 501.960938 373.027344 L 486.167969 373.027344 Z M 491.773438 378.632812 L 496.355469 378.632812 L 496.355469 389.09375 L 491.773438 389.09375 Z M 491.773438 378.632812 " fill-opacity="1" fill-rule="nonzero"/><path fill="#ffffff" d="M 514.453125 375.832031 L 524.640625 375.832031 L 524.640625 391.894531 L 514.453125 391.894531 Z M 514.453125 375.832031 " fill-opacity="1" fill-rule="nonzero"/><path fill="#414042" d="M 511.648438 394.699219 L 527.441406 394.699219 L 527.441406 373.027344 L 511.648438 373.027344 Z M 517.253906 378.632812 L 521.835938 378.632812 L 521.835938 389.09375 L 517.253906 389.09375 Z M 517.253906 378.632812 " fill-opacity="1" fill-rule="nonzero"/><path fill="#ffffff" d="M 539.933594 375.832031 L 550.121094 375.832031 L 550.121094 391.894531 L 539.933594 391.894531 Z M 539.933594 375.832031 " fill-opacity="1" fill-rule="nonzero"/><path fill="#414042" d="M 537.132812 394.699219 L 552.925781 394.699219 L 552.925781 373.027344 L 537.132812 373.027344 Z M 542.738281 378.632812 L 547.320312 378.632812 L 547.320312 389.09375 L 542.738281 389.09375 Z M 542.738281 378.632812 " fill-opacity="1" fill-rule="nonzero"/><path fill="#ffffff" d="M 259.628906 375.832031 L 269.816406 375.832031 L 269.816406 391.894531 L 259.628906 391.894531 Z M 259.628906 375.832031 " fill-opacity="1" fill-rule="nonzero"/><path fill="#414042" d="M 256.824219 394.699219 L 272.617188 394.699219 L 272.617188 373.027344 L 256.824219 373.027344 Z M 262.429688 378.632812 L 267.011719 378.632812 L 267.011719 389.09375 L 262.429688 389.09375 Z M 262.429688 378.632812 " fill-opacity="1" fill-rule="nonzero"/><path fill="#ffffff" d="M 285.109375 375.832031 L 295.296875 375.832031 L 295.296875 391.894531 L 285.109375 391.894531 Z M 285.109375 375.832031 " fill-opacity="1" fill-rule="nonzero"/><path fill="#414042" d="M 282.308594 394.699219 L 298.101562 394.699219 L 298.101562 373.027344 L 282.308594 373.027344 Z M 287.914062 378.632812 L 292.496094 378.632812 L 292.496094 389.09375 L 287.914062 389.09375 Z M 287.914062 378.632812 " fill-opacity="1" fill-rule="nonzero"/><path fill="#ffffff" d="M 310.59375 375.832031 L 320.78125 375.832031 L 320.78125 391.894531 L 310.59375 391.894531 Z M 310.59375 375.832031 " fill-opacity="1" fill-rule="nonzero"/><path fill="#414042" d="M 307.789062 394.699219 L 323.582031 394.699219 L 323.582031 373.027344 L 307.789062 373.027344 Z M 313.394531 378.632812 L 317.976562 378.632812 L 317.976562 389.09375 L 313.394531 389.09375 Z M 313.394531 378.632812 " fill-opacity="1" fill-rule="nonzero"/><path fill="#ffffff" d="M 336.074219 375.832031 L 346.261719 375.832031 L 346.261719 391.894531 L 336.074219 391.894531 Z M 336.074219 375.832031 " fill-opacity="1" fill-rule="nonzero"/><path fill="#414042" d="M 333.273438 394.699219 L 349.0625 394.699219 L 349.0625 373.027344 L 333.273438 373.027344 Z M 338.878906 378.632812 L 343.460938 378.632812 L 343.460938 389.09375 L 338.878906 389.09375 Z M 338.878906 378.632812 " fill-opacity="1" fill-rule="nonzero"/><path fill="#ffffff" d="M 157.695312 375.832031 L 167.882812 375.832031 L 167.882812 391.894531 L 157.695312 391.894531 Z M 157.695312 375.832031 " fill-opacity="1" fill-rule="nonzero"/><path fill="#414042" d="M 154.894531 394.699219 L 170.6875 394.699219 L 170.6875 373.027344 L 154.894531 373.027344 Z M 160.5 378.632812 L 165.082031 378.632812 L 165.082031 389.09375 L 160.5 389.09375 Z M 160.5 378.632812 " fill-opacity="1" fill-rule="nonzero"/><path fill="#ffffff" d="M 183.179688 375.832031 L 193.367188 375.832031 L 193.367188 391.894531 L 183.179688 391.894531 Z M 183.179688 375.832031 " fill-opacity="1" fill-rule="nonzero"/><path fill="#414042" d="M 180.378906 394.699219 L 196.167969 394.699219 L 196.167969 373.027344 L 180.378906 373.027344 Z M 185.980469 378.632812 L 190.566406 378.632812 L 190.566406 389.09375 L 185.980469 389.09375 Z M 185.980469 378.632812 " fill-opacity="1" fill-rule="nonzero"/><path fill="#ffffff" d="M 208.664062 375.832031 L 218.851562 375.832031 L 218.851562 391.894531 L 208.664062 391.894531 Z M 208.664062 375.832031 " fill-opacity="1" fill-rule="nonzero"/><path fill="#414042" d="M 205.859375 394.699219 L 221.652344 394.699219 L 221.652344 373.027344 L 205.859375 373.027344 Z M 211.464844 378.632812 L 216.046875 378.632812 L 216.046875 389.09375 L 211.464844 389.09375 Z M 211.464844 378.632812 " fill-opacity="1" fill-rule="nonzero"/><path fill="#ffffff" d="M 234.144531 375.832031 L 244.332031 375.832031 L 244.332031 391.894531 L 234.144531 391.894531 Z M 234.144531 375.832031 " fill-opacity="1" fill-rule="nonzero"/><path fill="#414042" d="M 231.34375 394.699219 L 247.136719 394.699219 L 247.136719 373.027344 L 231.34375 373.027344 Z M 236.949219 378.632812 L 241.53125 378.632812 L 241.53125 389.09375 L 236.949219 389.09375 Z M 236.949219 378.632812 " fill-opacity="1" fill-rule="nonzero"/><path fill="#ffffff" d="M 137.421875 361.222656 L 672.324219 361.222656 L 672.324219 375.832031 L 137.421875 375.832031 Z M 137.421875 361.222656 " fill-opacity="1" fill-rule="nonzero"/><path fill="#414042" d="M 134.621094 378.632812 L 675.128906 378.632812 L 675.128906 358.421875 L 134.621094 358.421875 Z M 140.226562 364.027344 L 669.523438 364.027344 L 669.523438 373.027344 L 140.226562 373.027344 Z M 140.226562 364.027344 " fill-opacity="1" fill-rule="nonzero"/><path fill="#ffffff" d="M 148.316406 347.972656 L 661.433594 347.972656 L 661.433594 361.222656 L 148.316406 361.222656 Z M 148.316406 347.972656 " fill-opacity="1" fill-rule="nonzero"/><path fill="#414042" d="M 145.511719 364.027344 L 664.234375 364.027344 L 664.234375 345.167969 L 145.511719 345.167969 Z M 151.117188 350.773438 L 658.628906 350.773438 L 658.628906 358.421875 L 151.117188 358.421875 Z M 151.117188 350.773438 " fill-opacity="1" fill-rule="nonzero"/><path fill="#ffffff" d="M 133.335938 328.445312 L 676.414062 328.445312 L 676.414062 347.972656 L 133.335938 347.972656 Z M 133.335938 328.445312 " fill-opacity="1" fill-rule="nonzero"/><g clip-path="url(#13e6b9bc49)"><path fill="#414042" d="M 130.535156 350.773438 L 679.214844 350.773438 L 679.214844 325.640625 L 130.535156 325.640625 Z M 136.140625 331.246094 L 673.613281 331.246094 L 673.613281 345.167969 L 136.140625 345.167969 Z M 136.140625 331.246094 " fill-opacity="1" fill-rule="nonzero"/></g></svg>