<svg xmlns="http://www.w3.org/2000/svg" xmlns:xlink="http://www.w3.org/1999/xlink" width="1080" zoomAndPan="magnify" viewBox="0 0 810 1012.49997" height="1350" preserveAspectRatio="xMidYMid meet" version="1.0"><defs><clipPath id="a59946c7e8"><path d="M 0.199219 0 L 809.800781 0 L 809.800781 1012 L 0.199219 1012 Z M 0.199219 0 " clip-rule="nonzero"/></clipPath><clipPath id="1ef6b3ff61"><path d="M 81.160156 269 L 728.839844 269 L 728.839844 679.035156 L 81.160156 679.035156 Z M 81.160156 269 " clip-rule="nonzero"/></clipPath></defs><g clip-path="url(#a59946c7e8)"><path fill="#ffffff" d="M 0.199219 0 L 809.800781 0 L 809.800781 1012 L 0.199219 1012 Z M 0.199219 0 " fill-opacity="1" fill-rule="nonzero"/><path fill="#ffffff" d="M 0.199219 0 L 809.800781 0 L 809.800781 1012 L 0.199219 1012 Z M 0.199219 0 " fill-opacity="1" fill-rule="nonzero"/></g><g clip-path="url(#1ef6b3ff61)"><path fill="#000000" d="M 700.613281 497.777344 L 728.929688 468.15625 L 700.609375 468.15625 L 700.609375 430.640625 L 698.570312 430.640625 L 698.570312 468.15625 L 647.941406 468.15625 L 647.941406 430.410156 L 708.242188 430.410156 L 708.242188 422.742188 L 697.964844 416.425781 L 697.957031 407.082031 L 549.117188 408.246094 C 547.675781 405.402344 544.753906 403.425781 541.351562 403.425781 L 539.722656 403.425781 L 539.722656 367.949219 C 542.277344 367.226562 544.164062 364.898438 544.164062 362.117188 C 544.164062 358.757812 541.4375 356.027344 538.082031 356.027344 L 536.222656 356.027344 C 537.371094 354.835938 538.089844 353.21875 538.089844 351.433594 C 538.089844 349.34375 537.09375 347.496094 535.574219 346.277344 L 535.574219 318.308594 L 535.824219 318.308594 C 538.667969 318.308594 540.734375 316.046875 540.734375 312.925781 C 540.734375 309.804688 538.667969 307.539062 535.824219 307.539062 L 535.574219 307.539062 L 535.574219 289.039062 C 535.574219 287.464844 534.292969 286.179688 532.714844 286.179688 L 528.148438 286.179688 C 529.378906 284.9375 530.140625 283.234375 530.140625 281.351562 C 530.140625 277.566406 527.0625 274.484375 523.277344 274.484375 L 522.304688 274.484375 C 522.609375 273.957031 522.796875 273.351562 522.796875 272.699219 C 522.796875 270.71875 521.1875 269.105469 519.207031 269.105469 C 517.226562 269.105469 515.617188 270.71875 515.617188 272.699219 C 515.617188 273.351562 515.804688 273.957031 516.109375 274.484375 L 515.136719 274.484375 C 511.351562 274.484375 508.273438 277.566406 508.273438 281.351562 C 508.273438 283.234375 509.035156 284.9375 510.265625 286.179688 L 505.867188 286.179688 C 503.949219 286.179688 502.390625 287.738281 502.390625 289.65625 L 502.390625 307.539062 L 501.542969 307.539062 C 498.574219 307.539062 496.15625 309.957031 496.15625 312.925781 C 496.15625 314.726562 497.054688 316.3125 498.414062 317.289062 L 498.347656 317.289062 L 498.339844 337.320312 L 311.75 337.320312 L 311.746094 317.289062 L 311.675781 317.289062 C 313.039062 316.3125 313.933594 314.726562 313.933594 312.925781 C 313.933594 309.957031 311.519531 307.539062 308.550781 307.539062 L 307.699219 307.539062 L 307.699219 289.65625 C 307.699219 287.738281 306.140625 286.179688 304.226562 286.179688 L 299.828125 286.179688 C 301.054688 284.9375 301.816406 283.234375 301.816406 281.351562 C 301.816406 277.566406 298.738281 274.484375 294.957031 274.484375 L 293.980469 274.484375 C 294.285156 273.957031 294.476562 273.351562 294.476562 272.699219 C 294.476562 270.71875 292.863281 269.105469 290.882812 269.105469 C 288.90625 269.105469 287.292969 270.71875 287.292969 272.699219 C 287.292969 273.351562 287.480469 273.957031 287.789062 274.484375 L 286.8125 274.484375 C 283.03125 274.484375 279.953125 277.566406 279.953125 281.351562 C 279.953125 283.234375 280.714844 284.9375 281.941406 286.179688 L 277.375 286.179688 C 275.800781 286.179688 274.515625 287.464844 274.515625 289.039062 L 274.515625 307.539062 L 274.269531 307.539062 C 271.421875 307.539062 269.355469 309.804688 269.355469 312.925781 C 269.355469 316.046875 271.421875 318.308594 274.269531 318.308594 L 274.515625 318.308594 L 274.515625 346.277344 C 272.996094 347.492188 272.003906 349.339844 272.003906 351.433594 C 272.003906 353.21875 272.71875 354.835938 273.867188 356.027344 L 272.011719 356.027344 C 268.65625 356.027344 265.925781 358.757812 265.925781 362.117188 C 265.925781 364.898438 267.816406 367.226562 270.367188 367.949219 L 270.367188 403.425781 L 268.738281 403.425781 C 265.335938 403.425781 262.414062 405.402344 260.976562 408.246094 L 112.132812 407.082031 L 112.128906 416.425781 L 101.847656 422.742188 L 101.847656 430.410156 L 162.152344 430.410156 L 162.152344 468.15625 L 111.523438 468.15625 L 111.523438 430.640625 L 109.484375 430.640625 L 109.484375 468.15625 L 81.160156 468.15625 L 109.480469 497.777344 L 107.78125 657.566406 L 85.9375 657.566406 L 86.28125 678.316406 L 405.042969 679.019531 L 405.046875 677.996094 L 405.046875 679.019531 L 723.808594 678.316406 L 724.15625 657.566406 L 702.3125 657.566406 Z M 587.328125 657.566406 L 587.328125 576.660156 L 625.332031 576.660156 L 625.332031 657.566406 Z M 585.289062 574.621094 L 585.289062 657.808594 L 574.667969 657.832031 L 574.667969 566.582031 L 636.085938 566.582031 L 636.085938 657.703125 L 627.371094 657.722656 L 627.371094 574.621094 Z M 572.628906 564.542969 L 572.628906 657.835938 L 561.617188 657.859375 L 561.617188 642.636719 L 561.597656 642.636719 L 561.519531 565.695312 L 561.605469 565.710938 C 565.410156 539.703125 578.425781 520.492188 600.300781 508.59375 C 624.042969 515.070312 634.671875 533.644531 645.832031 565.539062 L 645.902344 657.683594 L 638.125 657.699219 L 638.125 564.542969 Z M 470.773438 658.050781 L 470.773438 479.980469 L 339.316406 479.980469 L 339.316406 658.050781 L 333.253906 658.039062 L 333.253906 642.636719 L 329.203125 642.636719 L 329.203125 472.703125 L 480.886719 472.703125 L 480.886719 642.636719 L 476.835938 642.636719 L 476.835938 658.039062 Z M 405.046875 658.191406 L 341.355469 658.054688 L 341.355469 565.652344 C 346.691406 530.03125 367.542969 504.917969 405.046875 488.882812 C 442.546875 504.914062 463.398438 530.027344 468.734375 565.648438 L 468.734375 658.054688 Z M 468.734375 555.34375 C 461.0625 524.113281 440.289062 501.617188 405.457031 486.832031 L 405.328125 486.523438 C 405.230469 486.566406 405.140625 486.609375 405.046875 486.648438 C 404.949219 486.609375 404.863281 486.566406 404.765625 486.523438 L 404.636719 486.832031 C 369.804688 501.617188 349.03125 524.109375 341.355469 555.339844 L 341.355469 482.019531 L 468.734375 482.019531 Z M 184.757812 657.566406 L 184.757812 576.660156 L 222.765625 576.660156 L 222.765625 657.566406 Z M 182.71875 574.621094 L 182.71875 657.722656 L 174.007812 657.703125 L 174.007812 566.582031 L 235.425781 566.582031 L 235.425781 657.832031 L 224.804688 657.808594 L 224.804688 574.621094 Z M 171.96875 564.542969 L 171.96875 657.699219 L 164.191406 657.683594 L 164.261719 565.539062 C 175.421875 533.644531 186.050781 515.070312 209.789062 508.59375 C 231.664062 520.492188 244.683594 539.703125 248.484375 565.710938 L 248.570312 565.695312 L 248.492188 642.636719 L 248.476562 642.636719 L 248.476562 657.859375 L 237.464844 657.835938 L 237.464844 564.542969 Z M 258.171875 468.15625 L 252.226562 468.15625 L 252.226562 430.410156 L 265.925781 430.410156 L 265.925781 461.972656 L 265.710938 461.972656 C 261.984375 461.972656 258.875 464.636719 258.171875 468.15625 Z M 267.964844 420.824219 C 268.222656 420.847656 268.472656 420.902344 268.738281 420.902344 L 283.570312 420.902344 L 283.570312 461.972656 L 267.964844 461.972656 Z M 298.117188 368.203125 L 298.601562 403.425781 L 285.609375 403.425781 L 285.609375 368.203125 Z M 312.476562 354.015625 L 497.617188 354.015625 C 497.933594 354.769531 498.398438 355.445312 498.960938 356.027344 L 497.566406 356.027344 C 495.769531 356.027344 494.167969 356.828125 493.054688 358.070312 L 317.035156 358.070312 C 315.921875 356.828125 314.320312 356.027344 312.523438 356.027344 L 311.132812 356.027344 C 311.695312 355.445312 312.15625 354.769531 312.476562 354.015625 Z M 318.242188 360.109375 L 491.851562 360.109375 C 491.628906 360.742188 491.484375 361.410156 491.484375 362.117188 C 491.484375 365.117188 493.671875 367.601562 496.53125 368.097656 L 496.519531 368.847656 C 488.9375 368.949219 435.582031 368.902344 405.703125 368.855469 C 405.488281 368.855469 405.253906 368.855469 405.035156 368.855469 C 404.824219 368.855469 404.597656 368.855469 404.390625 368.855469 C 374.511719 368.898438 321.152344 368.949219 313.574219 368.847656 L 313.558594 368.097656 C 316.421875 367.601562 318.605469 365.117188 318.605469 362.117188 C 318.605469 361.410156 318.464844 360.742188 318.242188 360.109375 Z M 551.917969 468.15625 C 551.214844 464.636719 548.105469 461.972656 544.382812 461.972656 L 544.164062 461.972656 L 544.164062 430.410156 L 557.863281 430.410156 L 557.863281 468.15625 Z M 698.667969 506.484375 L 695.894531 506.484375 L 696.230469 496.921875 L 698.671875 496.859375 L 698.566406 496.96875 Z M 700.671875 494.761719 L 696.300781 494.878906 L 696.785156 481.226562 L 713.457031 481.394531 Z M 693.851562 506.484375 L 686.039062 506.484375 L 686.039062 481.121094 L 694.742188 481.207031 Z M 677.625 496.832031 L 684 496.832031 L 684 506.484375 L 677.625 506.484375 Z M 684 494.792969 L 677.625 494.792969 L 677.625 481.039062 L 684 481.101562 Z M 675.585938 506.484375 L 668.074219 506.484375 C 668.191406 504.011719 668.191406 497.691406 668.046875 480.941406 L 675.585938 481.015625 Z M 659.394531 496.859375 C 661.746094 496.917969 663.453125 496.949219 664.640625 496.949219 C 665.25 496.949219 665.714844 496.9375 666.101562 496.921875 C 666.113281 501.289062 666.105469 504.90625 666.066406 506.484375 L 659.394531 506.484375 Z M 666.007812 480.921875 C 666.042969 485.191406 666.078125 490.289062 666.09375 494.878906 C 664.839844 494.910156 662.109375 494.878906 659.394531 494.816406 L 659.394531 480.855469 Z M 657.355469 506.484375 L 651.449219 506.484375 L 651.449219 480.777344 L 657.355469 480.835938 Z M 482.925781 640.34375 L 482.925781 627.683594 L 555.527344 627.683594 L 555.527344 642.636719 L 482.925781 642.636719 Z M 327.164062 625.640625 L 324.371094 625.640625 L 324.371094 610.695312 L 317.96875 610.695312 L 315.617188 481.398438 L 315.707031 481.398438 C 319.949219 481.398438 323.398438 477.945312 323.398438 473.703125 L 323.398438 469.667969 C 323.398438 465.425781 319.949219 461.972656 315.707031 461.972656 L 315.265625 461.972656 L 315.214844 459.183594 L 494.875 459.183594 L 494.824219 461.972656 L 494.382812 461.972656 C 490.140625 461.972656 486.695312 465.425781 486.695312 469.667969 L 486.695312 473.703125 C 486.695312 477.945312 490.140625 481.398438 494.382812 481.398438 L 494.472656 481.398438 L 492.121094 610.695312 L 485.71875 610.695312 L 485.71875 625.640625 L 482.925781 625.640625 L 482.925781 470.664062 L 327.164062 470.664062 Z M 327.164062 640.34375 L 327.164062 642.636719 L 254.566406 642.636719 L 254.566406 627.683594 L 327.164062 627.683594 Z M 160.683594 496.933594 L 165.890625 496.933594 L 165.890625 506.484375 L 160.683594 506.484375 Z M 203.59375 508.523438 C 184.1875 516.027344 174.085938 532.707031 164.265625 559.472656 L 164.304688 508.523438 Z M 177.664062 496.832031 L 186.070312 496.832031 L 186.070312 506.484375 L 177.664062 506.484375 Z M 197.144531 496.933594 L 204.691406 496.933594 L 204.691406 506.484375 L 197.144531 506.484375 Z M 215.375 496.84375 L 222.765625 496.925781 L 222.765625 506.484375 L 215.375 506.484375 Z M 248.628906 508.523438 L 248.582031 555.675781 C 243.378906 535.027344 231.683594 519.214844 213.746094 508.523438 Z M 232.90625 496.84375 L 239.984375 496.921875 L 239.984375 506.484375 L 232.90625 506.484375 Z M 250.667969 508.523438 L 265.976562 508.523438 L 266.160156 610.695312 L 255.175781 610.695312 L 255.175781 625.640625 L 252.527344 625.640625 L 252.527344 642.636719 L 250.53125 642.636719 Z M 250.667969 496.832031 L 265.957031 496.832031 L 265.972656 506.484375 L 250.667969 506.484375 Z M 405.046875 370.894531 C 408.972656 370.902344 429.953125 370.929688 450.949219 370.941406 C 456.132812 370.945312 461.3125 370.945312 466.242188 370.945312 C 472.378906 370.945312 478.117188 370.945312 482.960938 370.9375 C 490.671875 370.925781 494.53125 370.921875 496.480469 370.800781 L 495.886719 403.582031 C 492.132812 404.25 489.234375 407.316406 488.785156 411.144531 L 321.308594 411.144531 C 320.855469 407.316406 317.960938 404.25 314.207031 403.582031 L 313.609375 370.800781 C 315.558594 370.921875 319.417969 370.925781 327.128906 370.9375 C 331.972656 370.945312 337.710938 370.945312 343.847656 370.945312 C 348.777344 370.945312 353.960938 370.945312 359.144531 370.941406 C 380.136719 370.929688 401.121094 370.902344 405.046875 370.894531 Z M 559.421875 506.484375 L 544.117188 506.484375 L 544.136719 496.832031 L 559.421875 496.832031 Z M 552.878906 625.507812 L 487.757812 625.507812 L 487.757812 612.734375 L 552.878906 612.734375 Z M 494.160156 610.695312 L 496.511719 481.398438 L 508.382812 481.398438 L 506.609375 610.695312 Z M 541.894531 610.695312 L 526.523438 610.695312 L 526.523438 481.398438 L 542.125 481.398438 Z M 524.484375 610.695312 L 508.648438 610.695312 L 510.421875 481.398438 L 524.484375 481.398438 Z M 510.449219 479.355469 L 510.660156 464.011719 L 524.484375 464.011719 L 524.484375 479.355469 Z M 508.410156 479.355469 L 496.546875 479.355469 L 496.828125 464.011719 L 508.621094 464.011719 Z M 494.507812 479.355469 L 494.382812 479.355469 C 491.265625 479.355469 488.730469 476.820312 488.730469 473.703125 L 488.730469 469.667969 C 488.730469 466.550781 491.265625 464.011719 494.382812 464.011719 L 494.789062 464.011719 Z M 496.863281 461.972656 L 497.4375 430.410156 L 497.566406 430.410156 L 497.566406 428.371094 L 497.476562 428.371094 L 497.609375 420.902344 L 509.210938 420.902344 L 508.648438 461.972656 Z M 314.691406 430.410156 L 324.359375 430.410156 L 324.359375 457.140625 L 315.179688 457.140625 Z M 321.308594 413.183594 L 488.785156 413.183594 C 488.953125 414.621094 489.4375 415.964844 490.21875 417.101562 L 405.046875 417.734375 L 319.871094 417.101562 C 320.65625 415.964844 321.140625 414.621094 321.308594 413.183594 Z M 314.515625 420.699219 C 315.769531 420.429688 316.90625 419.871094 317.898438 419.128906 L 404.394531 419.769531 L 404.394531 419.78125 L 405.046875 419.773438 L 405.695312 419.78125 L 405.695312 419.769531 L 492.195312 419.128906 C 493.1875 419.871094 494.324219 420.429688 495.574219 420.699219 L 495.546875 422.289062 L 314.546875 422.289062 Z M 495.613281 418.585938 C 492.800781 417.792969 490.71875 415.230469 490.71875 412.164062 C 490.71875 409.011719 492.914062 406.378906 495.847656 405.667969 Z M 314.476562 418.585938 L 314.242188 405.667969 C 317.179688 406.378906 319.375 409.011719 319.375 412.164062 C 319.375 415.230469 317.292969 417.792969 314.476562 418.585938 Z M 314.582031 424.332031 L 495.507812 424.332031 L 495.4375 428.371094 L 314.65625 428.371094 Z M 326.398438 430.410156 L 334.878906 430.410156 L 334.878906 457.140625 L 326.398438 457.140625 Z M 336.917969 430.410156 L 344.695312 430.410156 L 344.695312 457.140625 L 336.917969 457.140625 Z M 346.734375 430.410156 L 353.808594 430.410156 L 353.808594 457.140625 L 346.734375 457.140625 Z M 355.847656 430.410156 L 365.03125 430.410156 L 365.03125 457.140625 L 355.847656 457.140625 Z M 367.066406 430.410156 L 374.378906 430.410156 L 374.378906 457.140625 L 367.066406 457.140625 Z M 376.417969 430.410156 L 385.597656 430.410156 L 385.597656 457.140625 L 376.417969 457.140625 Z M 387.636719 430.410156 L 397.984375 430.410156 L 397.984375 457.140625 L 387.636719 457.140625 Z M 400.023438 430.410156 L 410.070312 430.410156 L 410.070312 457.140625 L 400.023438 457.140625 Z M 412.109375 430.410156 L 422.457031 430.410156 L 422.457031 457.140625 L 412.109375 457.140625 Z M 424.496094 430.410156 L 433.675781 430.410156 L 433.675781 457.140625 L 424.496094 457.140625 Z M 435.714844 430.410156 L 443.023438 430.410156 L 443.023438 457.140625 L 435.714844 457.140625 Z M 445.0625 430.410156 L 454.242188 430.410156 L 454.242188 457.140625 L 445.0625 457.140625 Z M 456.28125 430.410156 L 463.359375 430.410156 L 463.359375 457.140625 L 456.28125 457.140625 Z M 465.398438 430.410156 L 473.175781 430.410156 L 473.175781 457.140625 L 465.398438 457.140625 Z M 475.214844 430.410156 L 483.691406 430.410156 L 483.691406 457.140625 L 475.214844 457.140625 Z M 485.730469 430.410156 L 495.398438 430.410156 L 494.914062 457.140625 L 485.730469 457.140625 Z M 497.648438 418.863281 L 497.890625 405.464844 L 509.425781 405.464844 L 509.238281 418.863281 Z M 312.445312 418.863281 L 300.851562 418.863281 L 300.667969 405.464844 L 312.199219 405.464844 Z M 312.480469 420.902344 L 312.617188 428.371094 L 312.523438 428.371094 L 312.523438 430.410156 L 312.652344 430.410156 L 313.226562 461.972656 L 301.441406 461.972656 L 300.878906 420.902344 Z M 313.265625 464.011719 L 313.542969 479.355469 L 301.679688 479.355469 L 301.46875 464.011719 Z M 315.304688 464.011719 L 315.707031 464.011719 C 318.824219 464.011719 321.359375 466.550781 321.359375 469.667969 L 321.359375 473.703125 C 321.359375 476.820312 318.824219 479.355469 315.707031 479.355469 L 315.582031 479.355469 Z M 322.335938 625.507812 L 257.214844 625.507812 L 257.214844 612.734375 L 322.335938 612.734375 Z M 303.480469 610.695312 L 301.707031 481.398438 L 313.578125 481.398438 L 315.929688 610.695312 Z M 299.640625 479.355469 L 285.609375 479.355469 L 285.609375 464.011719 L 299.429688 464.011719 Z M 299.667969 481.398438 L 301.441406 610.695312 L 285.609375 610.695312 L 285.609375 481.398438 Z M 283.570312 610.695312 L 268.199219 610.695312 L 267.96875 481.398438 L 283.570312 481.398438 Z M 554.917969 625.640625 L 554.917969 610.695312 L 543.933594 610.695312 L 544.113281 508.523438 L 559.425781 508.523438 L 559.5625 642.636719 L 557.566406 642.636719 L 557.566406 625.640625 Z M 561.460938 508.523438 L 596.347656 508.523438 C 578.40625 519.214844 566.714844 535.023438 561.511719 555.671875 Z M 570.109375 496.921875 L 577.1875 496.84375 L 577.1875 506.484375 L 570.109375 506.484375 Z M 587.328125 496.925781 L 594.714844 496.84375 L 594.714844 506.484375 L 587.328125 506.484375 Z M 605.402344 496.933594 L 612.945312 496.933594 L 612.945312 506.484375 L 605.402344 506.484375 Z M 645.785156 508.523438 L 645.824219 559.476562 C 636.003906 532.710938 625.902344 516.027344 606.5 508.523438 Z M 624.023438 496.832031 L 632.425781 496.832031 L 632.425781 506.484375 L 624.023438 506.484375 Z M 644.203125 506.484375 L 644.203125 496.933594 L 649.410156 496.933594 L 649.410156 506.484375 Z M 649.410156 494.894531 L 644.203125 494.894531 L 644.203125 480.707031 L 649.410156 480.757812 Z M 642.164062 506.484375 L 634.464844 506.484375 L 634.464844 480.609375 L 642.164062 480.683594 Z M 632.425781 494.792969 L 624.023438 494.792969 L 624.023438 480.503906 L 632.425781 480.589844 Z M 621.984375 506.484375 L 614.984375 506.484375 L 614.984375 480.414062 L 621.984375 480.484375 Z M 612.945312 494.894531 L 605.402344 494.894531 L 605.402344 480.375 L 603.363281 480.375 L 603.363281 506.484375 L 600.308594 506.484375 L 600.046875 506.414062 L 599.917969 506.484375 L 596.753906 506.484375 L 596.753906 480.234375 L 612.945312 480.394531 Z M 594.714844 494.800781 L 587.328125 494.882812 L 587.328125 480.140625 L 594.714844 480.214844 Z M 585.289062 506.484375 L 579.226562 506.484375 L 579.226562 480.058594 L 585.289062 480.121094 Z M 577.1875 494.804688 L 570.109375 494.882812 L 570.109375 479.96875 L 577.1875 480.039062 Z M 568.070312 506.484375 L 561.460938 506.484375 L 561.460938 479.882812 L 568.070312 479.949219 Z M 559.421875 494.792969 L 544.136719 494.792969 L 544.164062 481.398438 L 544.382812 481.398438 C 546.15625 481.398438 547.765625 480.769531 549.066406 479.757812 L 559.421875 479.863281 Z M 550.03125 473.703125 C 550.03125 476.820312 547.5 479.355469 544.382812 479.355469 L 526.523438 479.355469 L 526.523438 464.011719 L 544.382812 464.011719 C 547.5 464.011719 550.03125 466.550781 550.03125 469.667969 Z M 542.125 429.390625 L 542.125 461.972656 L 526.523438 461.972656 L 526.523438 420.902344 L 541.351562 420.902344 C 541.617188 420.902344 541.867188 420.847656 542.125 420.824219 Z M 524.484375 461.972656 L 510.6875 461.972656 L 511.25 420.902344 L 524.484375 420.902344 Z M 511.277344 418.863281 L 511.464844 405.464844 L 524.484375 405.464844 L 524.484375 418.863281 Z M 511.492188 403.425781 L 511.972656 368.203125 L 524.484375 368.203125 L 524.484375 403.425781 Z M 509.453125 403.425781 L 497.929688 403.425781 L 498.570312 368.203125 L 509.933594 368.203125 Z M 311.523438 368.203125 L 312.164062 403.425781 L 300.640625 403.425781 L 300.15625 368.203125 Z M 298.628906 405.464844 L 298.8125 418.863281 L 285.609375 418.863281 L 285.609375 405.464844 Z M 298.839844 420.902344 L 299.402344 461.972656 L 285.609375 461.972656 L 285.609375 420.902344 Z M 260.058594 469.667969 C 260.058594 466.550781 262.59375 464.011719 265.710938 464.011719 L 283.570312 464.011719 L 283.570312 479.355469 L 265.710938 479.355469 C 262.59375 479.355469 260.058594 476.820312 260.058594 473.703125 Z M 261.023438 479.757812 C 262.324219 480.769531 263.9375 481.398438 265.710938 481.398438 L 265.929688 481.398438 L 265.953125 494.792969 L 250.667969 494.792969 L 250.667969 479.863281 Z M 248.632812 506.484375 L 242.019531 506.484375 L 242.019531 479.949219 L 248.632812 479.882812 Z M 239.984375 494.882812 L 232.90625 494.804688 L 232.90625 480.039062 L 239.984375 479.96875 Z M 230.867188 506.484375 L 224.804688 506.484375 L 224.804688 480.121094 L 230.867188 480.058594 Z M 222.765625 494.882812 L 215.375 494.800781 L 215.375 480.214844 L 222.765625 480.140625 Z M 213.339844 506.484375 L 210.171875 506.484375 L 210.042969 506.414062 L 209.78125 506.484375 L 206.726562 506.484375 L 206.726562 480.375 L 204.691406 480.375 L 204.691406 494.894531 L 197.144531 494.894531 L 197.144531 480.394531 L 213.339844 480.234375 Z M 195.105469 506.484375 L 188.109375 506.484375 L 188.109375 480.484375 L 195.105469 480.414062 Z M 186.070312 494.792969 L 177.664062 494.792969 L 177.664062 480.589844 L 186.070312 480.503906 Z M 175.625 506.484375 L 167.929688 506.484375 L 167.929688 480.683594 L 175.625 480.609375 Z M 165.890625 494.894531 L 160.683594 494.894531 L 160.683594 480.757812 L 165.890625 480.703125 Z M 158.644531 506.484375 L 152.738281 506.484375 L 152.738281 480.835938 L 158.644531 480.777344 Z M 144.023438 506.484375 C 143.984375 504.90625 143.976562 501.289062 143.988281 496.921875 C 144.378906 496.9375 144.839844 496.949219 145.449219 496.949219 C 146.640625 496.949219 148.347656 496.917969 150.699219 496.859375 L 150.699219 506.484375 Z M 150.699219 494.816406 C 147.980469 494.878906 145.246094 494.910156 143.996094 494.878906 C 144.015625 490.289062 144.046875 485.191406 144.082031 480.921875 L 150.699219 480.855469 Z M 142.015625 506.484375 L 134.503906 506.484375 L 134.503906 481.015625 L 142.042969 480.941406 C 141.902344 497.691406 141.902344 504.011719 142.015625 506.484375 Z M 126.089844 496.832031 L 132.464844 496.832031 L 132.464844 506.484375 L 126.089844 506.484375 Z M 132.464844 494.792969 L 126.089844 494.792969 L 126.089844 481.101562 L 132.464844 481.039062 Z M 124.050781 506.484375 L 116.238281 506.484375 L 115.347656 481.207031 L 124.050781 481.121094 Z M 113.308594 481.226562 L 113.789062 494.878906 L 109.417969 494.761719 L 96.636719 481.394531 Z M 113.863281 496.921875 L 114.199219 506.484375 L 111.425781 506.484375 L 111.523438 497.382812 L 111.527344 496.96875 L 111.421875 496.859375 Z M 111.402344 508.523438 L 162.265625 508.523438 L 162.222656 565.183594 C 162.21875 565.195312 162.210938 565.210938 162.207031 565.226562 L 162.222656 565.230469 L 162.152344 657.679688 L 109.816406 657.566406 Z M 250.515625 657.863281 L 250.527344 644.675781 L 331.214844 644.675781 L 331.214844 657.917969 L 275.789062 657.917969 Z M 478.875 657.917969 L 478.875 644.675781 L 559.5625 644.675781 L 559.578125 657.863281 L 534.304688 657.917969 Z M 647.941406 657.679688 L 647.867188 565.230469 L 647.882812 565.226562 C 647.878906 565.210938 647.875 565.199219 647.867188 565.1875 L 647.824219 508.523438 L 698.6875 508.523438 L 700.273438 657.566406 Z M 715.386719 479.371094 L 550.898438 477.738281 C 551.628906 476.5625 552.070312 475.1875 552.070312 473.703125 L 552.070312 470.199219 L 724.160156 470.199219 Z M 645.902344 468.15625 L 559.902344 468.15625 L 559.902344 430.410156 L 645.902344 430.410156 Z M 544.164062 428.371094 L 544.164062 426.125 L 706.207031 426.125 L 706.207031 428.371094 Z M 706.207031 423.882812 L 706.207031 424.085938 L 544.164062 424.085938 L 544.164062 420.503906 L 543.8125 420.503906 C 545.460938 420.015625 546.898438 419.0625 547.984375 417.78125 L 696.273438 417.78125 Z M 695.921875 409.136719 L 695.921875 415.742188 L 549.296875 415.742188 C 549.792969 414.648438 550.085938 413.441406 550.085938 412.164062 C 550.085938 411.515625 550.003906 410.890625 549.867188 410.28125 Z M 548.046875 412.164062 C 548.046875 415.855469 545.042969 418.863281 541.351562 418.863281 L 526.523438 418.863281 L 526.523438 405.464844 L 541.351562 405.464844 C 545.042969 405.464844 548.046875 408.46875 548.046875 412.164062 Z M 526.523438 403.425781 L 526.523438 368.203125 L 537.6875 368.203125 L 537.6875 403.425781 Z M 542.125 362.117188 C 542.125 364.347656 540.3125 366.164062 538.082031 366.164062 L 497.566406 366.164062 C 495.339844 366.164062 493.523438 364.347656 493.523438 362.117188 C 493.523438 359.882812 495.339844 358.066406 497.566406 358.066406 L 538.082031 358.066406 C 540.3125 358.066406 542.125 359.882812 542.125 362.117188 Z M 531.457031 356.027344 L 503.722656 356.027344 C 501.191406 356.027344 499.132812 353.96875 499.132812 351.433594 C 499.132812 348.902344 501.191406 346.84375 503.722656 346.84375 L 531.457031 346.84375 C 533.992188 346.84375 536.050781 348.902344 536.050781 351.433594 C 536.050781 353.96875 533.992188 356.027344 531.457031 356.027344 Z M 522.960938 318.308594 L 522.960938 344.804688 L 513 344.804688 L 513 318.308594 Z M 533.535156 345.167969 C 532.878906 344.949219 532.1875 344.804688 531.457031 344.804688 L 524.996094 344.804688 L 524.996094 318.308594 L 533.535156 318.308594 Z M 510.3125 281.351562 C 510.3125 278.691406 512.476562 276.523438 515.136719 276.523438 L 523.277344 276.523438 C 525.9375 276.523438 528.101562 278.691406 528.101562 281.351562 C 528.101562 284.015625 525.9375 286.179688 523.277344 286.179688 L 515.136719 286.179688 C 512.476562 286.179688 510.3125 284.015625 510.3125 281.351562 Z M 504.429688 289.65625 C 504.429688 288.863281 505.074219 288.21875 505.867188 288.21875 L 532.714844 288.21875 C 533.167969 288.21875 533.535156 288.585938 533.535156 289.039062 L 533.535156 307.539062 L 504.429688 307.539062 Z M 501.542969 309.578125 L 535.824219 309.578125 C 537.796875 309.578125 538.695312 311.3125 538.695312 312.925781 C 538.695312 314.535156 537.796875 316.269531 535.824219 316.269531 L 501.542969 316.269531 C 499.699219 316.269531 498.195312 314.769531 498.195312 312.925781 C 498.195312 311.082031 499.699219 309.578125 501.542969 309.578125 Z M 501.542969 318.308594 L 510.960938 318.308594 L 510.960938 344.804688 L 503.722656 344.804688 C 502.5 344.804688 501.367188 345.160156 500.382812 345.738281 L 500.378906 338.710938 L 500.386719 318.179688 C 500.757812 318.261719 501.144531 318.308594 501.542969 318.308594 Z M 405.046875 339.359375 L 498.339844 339.359375 L 498.347656 347.585938 C 497.566406 348.675781 497.09375 349.996094 497.09375 351.433594 C 497.09375 351.621094 497.132812 351.792969 497.148438 351.972656 L 312.945312 351.972656 C 312.957031 351.792969 312.996094 351.621094 312.996094 351.433594 C 312.996094 349.996094 312.527344 348.671875 311.746094 347.585938 L 311.75 339.359375 Z M 309.710938 338.648438 L 309.707031 345.738281 C 308.722656 345.160156 307.589844 344.804688 306.371094 344.804688 L 299.128906 344.804688 L 299.128906 318.308594 L 308.550781 318.308594 C 308.949219 318.308594 309.332031 318.261719 309.707031 318.179688 Z M 297.089844 318.308594 L 297.089844 344.804688 L 287.132812 344.804688 L 287.132812 318.308594 Z M 281.988281 281.351562 C 281.988281 278.691406 284.152344 276.523438 286.8125 276.523438 L 294.957031 276.523438 C 297.617188 276.523438 299.78125 278.691406 299.78125 281.351562 C 299.78125 284.015625 297.617188 286.179688 294.957031 286.179688 L 286.8125 286.179688 C 284.152344 286.179688 281.988281 284.015625 281.988281 281.351562 Z M 276.554688 289.039062 C 276.554688 288.585938 276.921875 288.21875 277.375 288.21875 L 304.226562 288.21875 C 305.015625 288.21875 305.660156 288.863281 305.660156 289.65625 L 305.660156 307.539062 L 276.554688 307.539062 Z M 271.394531 312.925781 C 271.394531 311.3125 272.292969 309.578125 274.269531 309.578125 L 308.550781 309.578125 C 310.394531 309.578125 311.894531 311.082031 311.894531 312.925781 C 311.894531 314.769531 310.394531 316.269531 308.550781 316.269531 L 274.269531 316.269531 C 272.292969 316.269531 271.394531 314.535156 271.394531 312.925781 Z M 276.554688 318.308594 L 285.09375 318.308594 L 285.09375 344.804688 L 278.632812 344.804688 C 277.902344 344.804688 277.210938 344.949219 276.554688 345.167969 Z M 274.042969 351.433594 C 274.042969 348.902344 276.101562 346.84375 278.632812 346.84375 L 306.371094 346.84375 C 308.902344 346.84375 310.960938 348.902344 310.960938 351.433594 C 310.960938 353.96875 308.902344 356.027344 306.371094 356.027344 L 278.632812 356.027344 C 276.101562 356.027344 274.042969 353.96875 274.042969 351.433594 Z M 267.964844 362.117188 C 267.964844 359.882812 269.78125 358.066406 272.011719 358.066406 L 312.523438 358.066406 C 314.753906 358.066406 316.570312 359.882812 316.570312 362.117188 C 316.570312 364.347656 314.753906 366.164062 312.523438 366.164062 L 272.011719 366.164062 C 269.78125 366.164062 267.964844 364.347656 267.964844 362.117188 Z M 272.40625 368.203125 L 283.570312 368.203125 L 283.570312 403.425781 L 272.40625 403.425781 Z M 268.738281 405.464844 L 283.570312 405.464844 L 283.570312 418.863281 L 268.738281 418.863281 C 265.046875 418.863281 262.042969 415.855469 262.042969 412.164062 C 262.042969 408.46875 265.046875 405.464844 268.738281 405.464844 Z M 260.222656 410.28125 C 260.085938 410.890625 260.007812 411.515625 260.007812 412.164062 C 260.007812 413.441406 260.296875 414.648438 260.792969 415.742188 L 114.167969 415.742188 L 114.171875 409.136719 Z M 113.816406 417.78125 L 262.109375 417.78125 C 263.195312 419.0625 264.628906 420.015625 266.277344 420.503906 L 265.925781 420.503906 L 265.925781 424.085938 L 103.886719 424.085938 L 103.886719 423.882812 Z M 103.886719 426.125 L 265.925781 426.125 L 265.925781 428.371094 L 103.886719 428.371094 Z M 164.1875 430.410156 L 250.1875 430.410156 L 250.1875 468.15625 L 164.1875 468.15625 Z M 258.019531 470.199219 L 258.019531 473.703125 C 258.019531 475.1875 258.460938 476.5625 259.191406 477.738281 L 94.703125 479.371094 L 85.933594 470.199219 Z M 721.804688 676.277344 L 405.046875 676.976562 L 88.289062 676.277344 L 88.007812 659.605469 L 108.785156 659.605469 L 248.476562 659.898438 L 248.476562 659.957031 L 275.785156 659.957031 L 405.042969 660.230469 L 405.046875 659.210938 L 405.046875 660.230469 L 534.308594 659.957031 L 561.617188 659.957031 L 561.617188 659.898438 L 701.304688 659.605469 L 722.082031 659.605469 Z M 721.804688 676.277344 " fill-opacity="1" fill-rule="nonzero"/></g></svg>