<svg xmlns="http://www.w3.org/2000/svg" xmlns:xlink="http://www.w3.org/1999/xlink" width="1080" zoomAndPan="magnify" viewBox="0 0 810 1012.49997" height="1350" preserveAspectRatio="xMidYMid meet" version="1.0"><defs><clipPath id="0e932b1224"><path d="M 0.199219 0 L 809.800781 0 L 809.800781 1012 L 0.199219 1012 Z M 0.199219 0 " clip-rule="nonzero"/></clipPath><clipPath id="3bf8e373f0"><path d="M 219 192.445312 L 283 192.445312 L 283 265 L 219 265 Z M 219 192.445312 " clip-rule="nonzero"/></clipPath><clipPath id="d8ba4b6da0"><path d="M 530 192.445312 L 594 192.445312 L 594 265 L 530 265 Z M 530 192.445312 " clip-rule="nonzero"/></clipPath><clipPath id="86672d2516"><path d="M 113.664062 695 L 696.128906 695 L 696.128906 790.648438 L 113.664062 790.648438 Z M 113.664062 695 " clip-rule="nonzero"/></clipPath></defs><g clip-path="url(#0e932b1224)"><path fill="#ffffff" d="M 0.199219 0 L 809.800781 0 L 809.800781 1012 L 0.199219 1012 Z M 0.199219 0 " fill-opacity="1" fill-rule="nonzero"/><path fill="#ffffff" d="M 0.199219 0 L 809.800781 0 L 809.800781 1012 L 0.199219 1012 Z M 0.199219 0 " fill-opacity="1" fill-rule="nonzero"/></g><path fill="#ffffff" d="M 508.722656 503.027344 L 508.722656 413.792969 L 304.363281 413.792969 L 304.363281 503.027344 L 508.722656 503.027344 " fill-opacity="1" fill-rule="nonzero"/><path fill="#231f20" d="M 508.722656 503.027344 L 510.527344 503.027344 L 510.527344 413.792969 C 510.527344 413.3125 510.335938 412.847656 510 412.515625 C 509.667969 412.175781 509.203125 411.984375 508.722656 411.984375 L 304.363281 411.984375 C 303.890625 411.984375 303.425781 412.175781 303.085938 412.515625 C 302.753906 412.847656 302.558594 413.3125 302.558594 413.792969 L 302.558594 503.027344 C 302.558594 503.5 302.753906 503.964844 303.085938 504.304688 C 303.425781 504.636719 303.890625 504.832031 304.363281 504.832031 L 508.722656 504.832031 C 509.207031 504.832031 509.660156 504.644531 510 504.304688 C 510.34375 503.957031 510.527344 503.507812 510.527344 503.027344 L 508.722656 503.027344 L 508.722656 501.21875 L 306.171875 501.21875 L 306.171875 415.597656 L 506.914062 415.597656 L 506.914062 503.027344 L 508.722656 503.027344 L 508.722656 501.21875 L 508.722656 503.027344 " fill-opacity="1" fill-rule="nonzero"/><path fill="#ffffff" d="M 527.5 707.1875 L 527.5 503.027344 L 285.585938 503.027344 L 285.585938 707.1875 L 527.5 707.1875 " fill-opacity="1" fill-rule="nonzero"/><path fill="#231f20" d="M 527.5 707.1875 L 529.308594 707.1875 L 529.308594 503.027344 C 529.308594 502.546875 529.117188 502.082031 528.785156 501.75 C 528.445312 501.410156 527.980469 501.21875 527.5 501.21875 L 285.585938 501.21875 C 285.113281 501.21875 284.648438 501.410156 284.308594 501.75 C 283.976562 502.082031 283.777344 502.546875 283.777344 503.027344 L 283.777344 707.1875 C 283.777344 707.660156 283.976562 708.125 284.308594 708.464844 C 284.648438 708.792969 285.113281 708.992188 285.585938 708.992188 L 527.5 708.992188 C 527.988281 708.992188 528.4375 708.800781 528.777344 708.457031 C 529.125 708.117188 529.308594 707.664062 529.308594 707.1875 L 527.5 707.1875 L 527.5 705.371094 L 287.390625 705.371094 L 287.390625 504.832031 L 525.695312 504.832031 L 525.695312 707.1875 L 527.5 707.1875 L 527.5 705.371094 L 527.5 707.1875 " fill-opacity="1" fill-rule="nonzero"/><path fill="#ffffff" d="M 534 419.007812 L 279.09375 419.007812 L 279.09375 406.832031 L 534 406.832031 L 534 419.007812 " fill-opacity="1" fill-rule="nonzero"/><path fill="#231f20" d="M 534 419.007812 L 534 417.199219 L 280.898438 417.199219 L 280.898438 408.640625 L 532.191406 408.640625 L 532.191406 419.007812 L 534 419.007812 L 534 417.199219 L 534 419.007812 L 535.804688 419.007812 L 535.804688 406.832031 C 535.804688 406.359375 535.609375 405.894531 535.277344 405.554688 C 534.9375 405.214844 534.472656 405.027344 534 405.027344 L 279.09375 405.027344 C 278.613281 405.027344 278.15625 405.214844 277.816406 405.554688 C 277.476562 405.894531 277.285156 406.359375 277.285156 406.832031 L 277.285156 419.007812 C 277.285156 419.480469 277.476562 419.945312 277.816406 420.285156 C 278.15625 420.617188 278.613281 420.8125 279.09375 420.8125 L 534 420.8125 C 534.480469 420.8125 534.929688 420.625 535.277344 420.285156 C 535.617188 419.9375 535.804688 419.488281 535.804688 419.007812 L 534 419.007812 " fill-opacity="1" fill-rule="nonzero"/><path fill="#ffffff" d="M 546.859375 510.042969 L 266.226562 510.042969 L 266.226562 493.667969 L 546.859375 493.667969 L 546.859375 510.042969 " fill-opacity="1" fill-rule="nonzero"/><path fill="#231f20" d="M 546.859375 510.042969 L 546.859375 508.234375 L 268.035156 508.234375 L 268.035156 495.476562 L 545.050781 495.476562 L 545.050781 510.042969 L 546.859375 510.042969 L 546.859375 508.234375 L 546.859375 510.042969 L 548.664062 510.042969 L 548.664062 493.667969 C 548.664062 493.1875 548.472656 492.722656 548.136719 492.390625 C 547.804688 492.050781 547.335938 491.863281 546.859375 491.863281 L 266.226562 491.863281 C 265.753906 491.863281 265.289062 492.050781 264.949219 492.390625 C 264.621094 492.722656 264.421875 493.1875 264.421875 493.667969 L 264.421875 510.042969 C 264.421875 510.515625 264.621094 510.980469 264.949219 511.320312 C 265.289062 511.652344 265.753906 511.847656 266.226562 511.847656 L 546.859375 511.847656 C 547.34375 511.847656 547.796875 511.65625 548.136719 511.320312 C 548.480469 510.972656 548.664062 510.523438 548.664062 510.042969 L 546.859375 510.042969 " fill-opacity="1" fill-rule="nonzero"/><path fill="#ffffff" d="M 448.566406 465.671875 L 448.566406 448.304688 C 448.566406 441.851562 429.753906 436.621094 406.550781 436.621094 C 383.339844 436.621094 364.527344 441.851562 364.527344 448.304688 L 364.527344 465.671875 L 448.566406 465.671875 " fill-opacity="1" fill-rule="nonzero"/><path fill="#231f20" d="M 448.566406 465.671875 L 450.375 465.671875 L 450.375 448.304688 C 450.375 447.046875 449.902344 445.867188 449.167969 444.878906 C 447.867188 443.144531 445.84375 441.808594 443.234375 440.601562 C 439.316406 438.816406 434.015625 437.390625 427.742188 436.390625 C 421.476562 435.386719 414.25 434.816406 406.550781 434.816406 C 394.800781 434.824219 384.179688 436.136719 376.351562 438.300781 C 372.429688 439.394531 369.210938 440.695312 366.832031 442.246094 C 365.648438 443.03125 364.660156 443.886719 363.925781 444.878906 C 363.191406 445.867188 362.71875 447.046875 362.71875 448.304688 L 362.71875 465.671875 C 362.71875 466.144531 362.917969 466.609375 363.25 466.949219 C 363.585938 467.28125 364.054688 467.476562 364.527344 467.476562 L 448.566406 467.476562 C 449.039062 467.476562 449.507812 467.28125 449.84375 466.949219 C 450.175781 466.609375 450.375 466.144531 450.375 465.671875 L 448.566406 465.671875 L 448.566406 463.863281 L 366.332031 463.863281 L 366.332031 448.304688 C 366.339844 447.949219 366.453125 447.554688 366.832031 447.023438 C 367.496094 446.09375 369.054688 444.9375 371.363281 443.890625 C 374.816406 442.3125 379.867188 440.921875 385.914062 439.953125 C 391.964844 438.988281 399.019531 438.429688 406.550781 438.429688 C 418.011719 438.429688 428.390625 439.734375 435.773438 441.789062 C 439.457031 442.804688 442.394531 444.03125 444.269531 445.269531 C 445.207031 445.882812 445.871094 446.496094 446.253906 447.023438 C 446.640625 447.554688 446.753906 447.949219 446.761719 448.304688 L 446.761719 465.671875 L 448.566406 465.671875 L 448.566406 463.863281 L 448.566406 465.671875 " fill-opacity="1" fill-rule="nonzero"/><path fill="#ffffff" d="M 450.972656 707.1875 L 450.972656 617.910156 C 450.972656 607.398438 431.082031 598.882812 406.550781 598.882812 C 382.003906 598.882812 362.117188 607.398438 362.117188 617.910156 L 362.117188 707.1875 L 450.972656 707.1875 " fill-opacity="1" fill-rule="nonzero"/><path fill="#231f20" d="M 450.972656 707.1875 L 452.78125 707.1875 L 452.78125 617.910156 C 452.78125 614.691406 451.242188 611.726562 448.773438 609.234375 C 445.039062 605.480469 439.167969 602.515625 431.886719 600.398438 C 424.609375 598.289062 415.90625 597.074219 406.550781 597.074219 C 394.066406 597.082031 382.761719 599.226562 374.417969 602.796875 C 370.25 604.582031 366.804688 606.722656 364.328125 609.234375 C 361.851562 611.726562 360.3125 614.691406 360.3125 617.910156 L 360.3125 707.1875 C 360.3125 707.660156 360.503906 708.125 360.84375 708.464844 C 361.179688 708.792969 361.640625 708.992188 362.117188 708.992188 L 450.972656 708.992188 C 451.445312 708.992188 451.917969 708.792969 452.25 708.464844 C 452.589844 708.125 452.78125 707.660156 452.78125 707.1875 L 450.972656 707.1875 L 450.972656 705.371094 L 363.925781 705.371094 L 363.925781 617.910156 C 363.925781 615.875 364.871094 613.828125 366.898438 611.769531 C 369.917969 608.699219 375.308594 605.855469 382.210938 603.863281 C 389.105469 601.875 397.503906 600.6875 406.550781 600.6875 C 418.601562 600.6875 429.511719 602.796875 437.25 606.117188 C 441.117188 607.765625 444.183594 609.730469 446.195312 611.777344 C 448.222656 613.828125 449.167969 615.875 449.167969 617.910156 L 449.167969 707.1875 L 450.972656 707.1875 L 450.972656 705.371094 L 450.972656 707.1875 " fill-opacity="1" fill-rule="nonzero"/><path fill="#ffffff" d="M 496.738281 410.546875 C 488.144531 368.601562 451.03125 337.046875 406.542969 337.046875 C 362.0625 337.046875 324.941406 368.601562 316.347656 410.546875 L 496.738281 410.546875 " fill-opacity="1" fill-rule="nonzero"/><path fill="#231f20" d="M 496.738281 410.546875 L 498.511719 410.179688 C 489.746094 367.402344 451.90625 335.25 406.542969 335.242188 C 361.1875 335.25 323.347656 367.402344 314.582031 410.179688 C 314.46875 410.707031 314.605469 411.265625 314.949219 411.679688 C 315.296875 412.105469 315.804688 412.351562 316.347656 412.351562 L 496.738281 412.351562 C 497.28125 412.351562 497.796875 412.105469 498.144531 411.679688 C 498.480469 411.265625 498.621094 410.707031 498.511719 410.179688 L 496.738281 410.546875 L 496.738281 408.738281 L 316.347656 408.738281 L 316.347656 410.546875 L 318.117188 410.90625 C 326.542969 369.789062 362.9375 338.847656 406.542969 338.855469 C 450.15625 338.847656 486.546875 369.789062 494.972656 410.90625 L 496.738281 410.546875 L 496.738281 408.738281 L 496.738281 410.546875 " fill-opacity="1" fill-rule="nonzero"/><path fill="#ffffff" d="M 280.949219 383 L 280.949219 262.980469 L 221.671875 262.980469 L 221.671875 383 L 280.949219 383 " fill-opacity="1" fill-rule="nonzero"/><path fill="#231f20" d="M 280.949219 383 L 282.757812 383 L 282.757812 262.980469 C 282.757812 262.507812 282.566406 262.042969 282.226562 261.703125 C 281.894531 261.363281 281.429688 261.171875 280.949219 261.171875 L 221.671875 261.171875 C 221.191406 261.171875 220.726562 261.363281 220.386719 261.703125 C 220.054688 262.042969 219.855469 262.507812 219.855469 262.980469 L 219.855469 383 C 219.855469 383.480469 220.054688 383.945312 220.394531 384.277344 C 220.726562 384.617188 221.191406 384.804688 221.671875 384.804688 L 280.949219 384.804688 C 281.429688 384.804688 281.886719 384.617188 282.226562 384.277344 C 282.566406 383.945312 282.757812 383.480469 282.757812 383 L 280.949219 383 L 280.949219 381.191406 L 223.46875 381.191406 L 223.46875 264.785156 L 279.144531 264.785156 L 279.144531 383 L 280.949219 383 L 280.949219 381.191406 L 280.949219 383 " fill-opacity="1" fill-rule="nonzero"/><path fill="#ffffff" d="M 280.949219 262.804688 L 251.308594 194.183594 L 221.671875 262.804688 Z M 280.949219 262.804688 " fill-opacity="1" fill-rule="nonzero"/><g clip-path="url(#3bf8e373f0)"><path fill="#231f20" d="M 280.949219 262.804688 L 282.609375 262.082031 L 252.96875 193.464844 C 252.679688 192.808594 252.03125 192.375 251.308594 192.375 C 250.589844 192.375 249.933594 192.808594 249.644531 193.464844 L 220.011719 262.082031 C 219.765625 262.640625 219.820312 263.285156 220.160156 263.792969 C 220.492188 264.300781 221.054688 264.609375 221.671875 264.609375 L 280.949219 264.609375 C 281.554688 264.609375 282.128906 264.300781 282.460938 263.792969 C 282.796875 263.285156 282.855469 262.640625 282.609375 262.082031 L 280.949219 262.804688 L 280.949219 260.988281 L 224.414062 260.988281 L 251.308594 198.734375 L 279.289062 263.515625 L 280.949219 262.804688 L 280.949219 260.988281 L 280.949219 262.804688 " fill-opacity="1" fill-rule="nonzero"/></g><path fill="#ffffff" d="M 289.515625 503.027344 L 289.515625 383 L 213.101562 383 L 213.101562 503.027344 L 289.515625 503.027344 " fill-opacity="1" fill-rule="nonzero"/><path fill="#231f20" d="M 289.515625 503.027344 L 291.324219 503.027344 L 291.324219 383 C 291.324219 382.527344 291.125 382.0625 290.792969 381.722656 C 290.457031 381.390625 289.988281 381.191406 289.515625 381.191406 L 213.101562 381.191406 C 212.628906 381.191406 212.164062 381.390625 211.824219 381.722656 C 211.488281 382.0625 211.296875 382.527344 211.296875 383 L 211.296875 503.027344 C 211.296875 503.5 211.496094 503.964844 211.824219 504.304688 C 212.164062 504.636719 212.628906 504.832031 213.101562 504.832031 L 289.515625 504.832031 C 289.988281 504.832031 290.457031 504.636719 290.792969 504.304688 C 291.125 503.964844 291.324219 503.5 291.324219 503.027344 L 289.515625 503.027344 L 289.515625 501.21875 L 214.910156 501.21875 L 214.910156 384.804688 L 287.703125 384.804688 L 287.710938 503.027344 L 289.515625 503.027344 L 289.515625 501.21875 L 289.515625 503.027344 " fill-opacity="1" fill-rule="nonzero"/><path fill="#ffffff" d="M 303.109375 707.1875 L 303.109375 503.027344 L 199.511719 503.027344 L 199.511719 707.1875 L 303.109375 707.1875 " fill-opacity="1" fill-rule="nonzero"/><path fill="#231f20" d="M 303.109375 707.1875 L 304.914062 707.1875 L 304.914062 503.027344 C 304.914062 502.546875 304.722656 502.082031 304.394531 501.75 C 304.054688 501.410156 303.589844 501.21875 303.109375 501.21875 L 199.511719 501.21875 C 199.03125 501.21875 198.566406 501.410156 198.234375 501.75 C 197.894531 502.082031 197.703125 502.546875 197.703125 503.027344 L 197.703125 707.1875 C 197.703125 707.660156 197.894531 708.125 198.234375 708.464844 C 198.574219 708.792969 199.03125 708.992188 199.511719 708.992188 L 303.109375 708.992188 C 303.59375 708.992188 304.046875 708.800781 304.386719 708.457031 C 304.730469 708.117188 304.914062 707.664062 304.914062 707.1875 L 303.109375 707.1875 L 303.109375 705.371094 L 201.316406 705.371094 L 201.316406 504.832031 L 301.300781 504.832031 L 301.300781 707.1875 L 303.109375 707.1875 L 303.109375 705.371094 L 303.109375 707.1875 " fill-opacity="1" fill-rule="nonzero"/><path fill="#ffffff" d="M 289.515625 268.78125 L 213.101562 268.78125 L 213.101562 252.40625 L 289.515625 252.40625 L 289.515625 268.78125 " fill-opacity="1" fill-rule="nonzero"/><path fill="#231f20" d="M 289.515625 268.78125 L 289.515625 266.96875 L 214.910156 266.96875 L 214.910156 254.214844 L 287.703125 254.214844 L 287.710938 268.78125 L 289.515625 268.78125 L 289.515625 266.96875 L 289.515625 268.78125 L 291.324219 268.78125 L 291.324219 252.40625 C 291.324219 251.929688 291.125 251.460938 290.792969 251.128906 C 290.457031 250.792969 289.988281 250.59375 289.515625 250.59375 L 213.101562 250.59375 C 212.628906 250.59375 212.164062 250.792969 211.824219 251.128906 C 211.488281 251.460938 211.296875 251.929688 211.296875 252.40625 L 211.296875 268.78125 C 211.296875 269.253906 211.496094 269.71875 211.824219 270.058594 C 212.164062 270.390625 212.628906 270.589844 213.101562 270.589844 L 289.515625 270.589844 C 289.988281 270.589844 290.457031 270.390625 290.792969 270.058594 C 291.125 269.71875 291.324219 269.253906 291.324219 268.78125 L 289.515625 268.78125 " fill-opacity="1" fill-rule="nonzero"/><path fill="#ffffff" d="M 298.964844 390.015625 L 203.652344 390.015625 L 203.652344 373.648438 L 298.964844 373.648438 L 298.964844 390.015625 " fill-opacity="1" fill-rule="nonzero"/><path fill="#231f20" d="M 298.964844 390.015625 L 298.964844 388.207031 L 205.460938 388.207031 L 205.460938 375.449219 L 297.160156 375.449219 L 297.160156 390.015625 L 298.964844 390.015625 L 298.964844 388.207031 L 298.964844 390.015625 L 300.773438 390.015625 L 300.773438 373.648438 C 300.773438 373.167969 300.582031 372.703125 300.242188 372.363281 C 299.90625 372.03125 299.4375 371.84375 298.964844 371.84375 L 203.652344 371.84375 C 203.179688 371.84375 202.714844 372.03125 202.375 372.363281 C 202.042969 372.703125 201.847656 373.167969 201.847656 373.648438 L 201.847656 390.015625 C 201.847656 390.5 202.039062 390.953125 202.375 391.292969 C 202.722656 391.636719 203.175781 391.820312 203.652344 391.820312 L 298.964844 391.820312 C 299.445312 391.820312 299.90625 391.636719 300.242188 391.292969 C 300.582031 390.953125 300.773438 390.5 300.773438 390.015625 L 298.964844 390.015625 " fill-opacity="1" fill-rule="nonzero"/><path fill="#ffffff" d="M 311.398438 510.042969 L 191.21875 510.042969 L 191.21875 493.667969 L 311.398438 493.667969 L 311.398438 510.042969 " fill-opacity="1" fill-rule="nonzero"/><path fill="#231f20" d="M 311.398438 510.042969 L 311.398438 508.234375 L 193.027344 508.234375 L 193.027344 495.476562 L 309.59375 495.476562 L 309.59375 510.042969 L 311.398438 510.042969 L 311.398438 508.234375 L 311.398438 510.042969 L 313.207031 510.042969 L 313.207031 493.667969 C 313.207031 493.1875 313.007812 492.722656 312.675781 492.390625 C 312.339844 492.050781 311.875 491.863281 311.398438 491.863281 L 191.21875 491.863281 C 190.746094 491.863281 190.28125 492.050781 189.941406 492.390625 C 189.609375 492.722656 189.414062 493.1875 189.414062 493.667969 L 189.414062 510.042969 C 189.414062 510.515625 189.609375 510.980469 189.941406 511.320312 C 190.28125 511.652344 190.746094 511.847656 191.21875 511.847656 L 311.398438 511.847656 C 311.878906 511.847656 312.332031 511.65625 312.675781 511.320312 C 313.015625 510.972656 313.207031 510.523438 313.207031 510.042969 L 311.398438 510.042969 " fill-opacity="1" fill-rule="nonzero"/><path fill="#ffffff" d="M 267.019531 331.542969 L 267.019531 308.191406 C 267.019531 299.507812 259.984375 292.472656 251.308594 292.472656 C 242.628906 292.472656 235.601562 299.507812 235.601562 308.191406 L 235.601562 331.542969 L 267.019531 331.542969 " fill-opacity="1" fill-rule="nonzero"/><path fill="#231f20" d="M 267.019531 331.542969 L 268.824219 331.542969 L 268.824219 308.191406 C 268.824219 298.515625 260.984375 290.667969 251.308594 290.667969 C 241.632812 290.667969 233.792969 298.515625 233.792969 308.191406 L 233.792969 331.542969 C 233.792969 332.015625 233.984375 332.480469 234.324219 332.820312 C 234.65625 333.152344 235.121094 333.351562 235.601562 333.351562 L 267.019531 333.351562 C 267.503906 333.351562 267.957031 333.160156 268.296875 332.820312 C 268.640625 332.476562 268.824219 332.023438 268.824219 331.542969 L 267.019531 331.542969 L 267.019531 329.738281 L 237.40625 329.738281 L 237.40625 308.191406 C 237.40625 304.34375 238.960938 300.878906 241.480469 298.351562 C 244 295.832031 247.464844 294.28125 251.308594 294.28125 C 255.15625 294.28125 258.621094 295.832031 261.140625 298.351562 C 263.660156 300.878906 265.210938 304.34375 265.210938 308.191406 L 265.210938 331.542969 L 267.019531 331.542969 L 267.019531 329.738281 L 267.019531 331.542969 " fill-opacity="1" fill-rule="nonzero"/><path fill="#ffffff" d="M 267.019531 452.785156 L 267.019531 429.425781 C 267.019531 420.75 259.984375 413.714844 251.308594 413.714844 C 242.628906 413.714844 235.601562 420.75 235.601562 429.425781 L 235.601562 452.785156 L 267.019531 452.785156 " fill-opacity="1" fill-rule="nonzero"/><path fill="#231f20" d="M 267.019531 452.785156 L 268.824219 452.785156 L 268.824219 429.425781 C 268.824219 419.75 260.984375 411.90625 251.308594 411.90625 C 241.632812 411.90625 233.792969 419.75 233.792969 429.425781 L 233.792969 452.785156 C 233.792969 453.257812 233.984375 453.722656 234.324219 454.0625 C 234.65625 454.394531 235.121094 454.589844 235.601562 454.589844 L 267.019531 454.589844 C 267.5 454.589844 267.957031 454.394531 268.296875 454.0625 C 268.636719 453.722656 268.824219 453.257812 268.824219 452.785156 L 267.019531 452.785156 L 267.019531 450.976562 L 237.40625 450.976562 L 237.40625 429.425781 C 237.40625 425.578125 238.960938 422.113281 241.480469 419.59375 C 244 417.074219 247.464844 415.519531 251.308594 415.519531 C 255.15625 415.519531 258.621094 417.074219 261.140625 419.59375 C 263.660156 422.113281 265.210938 425.578125 265.210938 429.425781 L 265.210938 452.785156 L 267.019531 452.785156 L 267.019531 450.976562 L 267.019531 452.785156 " fill-opacity="1" fill-rule="nonzero"/><path fill="#ffffff" d="M 270.335938 707.1875 L 270.335938 617.910156 C 270.335938 607.398438 261.816406 598.882812 251.308594 598.882812 C 240.800781 598.882812 232.285156 607.398438 232.285156 617.910156 L 232.285156 707.1875 L 270.335938 707.1875 " fill-opacity="1" fill-rule="nonzero"/><path fill="#231f20" d="M 270.335938 707.1875 L 272.140625 707.1875 L 272.140625 617.910156 C 272.140625 606.40625 262.8125 597.074219 251.308594 597.074219 C 239.808594 597.074219 230.476562 606.40625 230.46875 617.910156 L 230.46875 707.1875 C 230.46875 707.660156 230.667969 708.125 231.007812 708.464844 C 231.339844 708.792969 231.804688 708.992188 232.285156 708.992188 L 270.335938 708.992188 C 270.808594 708.992188 271.273438 708.792969 271.613281 708.464844 C 271.953125 708.125 272.140625 707.660156 272.140625 707.1875 L 270.335938 707.1875 L 270.335938 705.371094 L 234.082031 705.371094 L 234.089844 617.910156 C 234.089844 613.144531 236.011719 608.855469 239.128906 605.734375 C 242.253906 602.613281 246.546875 600.6875 251.308594 600.6875 C 256.074219 600.6875 260.363281 602.613281 263.484375 605.734375 C 266.601562 608.855469 268.527344 613.144531 268.527344 617.910156 L 268.527344 707.1875 L 270.335938 707.1875 L 270.335938 705.371094 L 270.335938 707.1875 " fill-opacity="1" fill-rule="nonzero"/><path fill="#ffffff" d="M 591.421875 383 L 591.421875 262.980469 L 532.144531 262.980469 L 532.144531 383 L 591.421875 383 " fill-opacity="1" fill-rule="nonzero"/><path fill="#231f20" d="M 591.421875 383 L 593.230469 383 L 593.230469 262.980469 C 593.230469 262.507812 593.039062 262.042969 592.699219 261.703125 C 592.363281 261.363281 591.902344 261.171875 591.421875 261.171875 L 532.144531 261.171875 C 531.664062 261.171875 531.199219 261.363281 530.859375 261.703125 C 530.527344 262.042969 530.332031 262.507812 530.332031 262.980469 L 530.332031 383 C 530.332031 383.480469 530.527344 383.945312 530.867188 384.277344 C 531.199219 384.617188 531.664062 384.804688 532.144531 384.804688 L 591.421875 384.804688 C 591.894531 384.804688 592.363281 384.617188 592.699219 384.277344 C 593.039062 383.945312 593.230469 383.480469 593.230469 383 L 591.421875 383 L 591.421875 381.191406 L 533.949219 381.191406 L 533.949219 264.785156 L 589.617188 264.785156 L 589.617188 383 L 591.421875 383 L 591.421875 381.191406 L 591.421875 383 " fill-opacity="1" fill-rule="nonzero"/><path fill="#ffffff" d="M 591.421875 262.804688 L 561.785156 194.183594 L 532.144531 262.804688 Z M 591.421875 262.804688 " fill-opacity="1" fill-rule="nonzero"/><g clip-path="url(#d8ba4b6da0)"><path fill="#231f20" d="M 591.421875 262.804688 L 593.082031 262.082031 L 563.441406 193.464844 C 563.152344 192.808594 562.503906 192.375 561.785156 192.375 C 561.0625 192.375 560.40625 192.808594 560.125 193.464844 L 530.476562 262.082031 C 530.238281 262.640625 530.292969 263.285156 530.632812 263.792969 C 530.964844 264.300781 531.53125 264.609375 532.144531 264.609375 L 591.421875 264.609375 C 592.035156 264.609375 592.59375 264.300781 592.933594 263.792969 C 593.265625 263.285156 593.320312 262.640625 593.082031 262.082031 L 591.421875 262.804688 L 591.421875 260.988281 L 534.890625 260.988281 L 561.785156 198.734375 L 589.765625 263.515625 L 591.421875 262.804688 L 591.421875 260.988281 L 591.421875 262.804688 " fill-opacity="1" fill-rule="nonzero"/></g><path fill="#ffffff" d="M 599.988281 503.027344 L 599.988281 383 L 523.578125 383 L 523.578125 503.027344 L 599.988281 503.027344 " fill-opacity="1" fill-rule="nonzero"/><path fill="#231f20" d="M 599.988281 503.027344 L 601.796875 503.027344 L 601.796875 383 C 601.796875 382.527344 601.597656 382.0625 601.265625 381.722656 C 600.929688 381.390625 600.460938 381.191406 599.988281 381.191406 L 523.578125 381.191406 C 523.097656 381.191406 522.632812 381.390625 522.300781 381.722656 C 521.960938 382.0625 521.769531 382.527344 521.769531 383 L 521.769531 503.027344 C 521.769531 503.5 521.960938 503.964844 522.300781 504.304688 C 522.632812 504.636719 523.097656 504.832031 523.578125 504.832031 L 599.988281 504.832031 C 600.460938 504.832031 600.929688 504.636719 601.265625 504.304688 C 601.597656 503.964844 601.796875 503.5 601.796875 503.027344 L 599.988281 503.027344 L 599.988281 501.21875 L 525.382812 501.21875 L 525.382812 384.804688 L 598.183594 384.804688 L 598.183594 503.027344 L 599.988281 503.027344 L 599.988281 501.21875 L 599.988281 503.027344 " fill-opacity="1" fill-rule="nonzero"/><path fill="#ffffff" d="M 613.582031 707.1875 L 613.582031 503.027344 L 509.984375 503.027344 L 509.984375 707.1875 L 613.582031 707.1875 " fill-opacity="1" fill-rule="nonzero"/><path fill="#231f20" d="M 613.582031 707.1875 L 615.386719 707.1875 L 615.386719 503.027344 C 615.386719 502.539062 615.199219 502.089844 614.859375 501.75 C 614.519531 501.402344 614.0625 501.21875 613.582031 501.21875 L 509.984375 501.21875 C 509.511719 501.21875 509.039062 501.410156 508.707031 501.75 C 508.367188 502.082031 508.179688 502.546875 508.179688 503.027344 L 508.179688 707.1875 C 508.179688 707.664062 508.363281 708.117188 508.707031 708.464844 C 509.046875 708.800781 509.503906 708.984375 509.984375 708.984375 L 613.582031 708.984375 C 614.0625 708.984375 614.519531 708.800781 614.859375 708.464844 C 615.199219 708.117188 615.386719 707.664062 615.386719 707.1875 L 613.582031 707.1875 L 613.582031 705.378906 L 511.792969 705.378906 L 511.792969 504.832031 L 611.773438 504.832031 L 611.773438 707.1875 L 613.582031 707.1875 L 613.582031 705.378906 L 613.582031 707.1875 " fill-opacity="1" fill-rule="nonzero"/><path fill="#ffffff" d="M 599.988281 268.78125 L 523.578125 268.78125 L 523.578125 252.40625 L 599.988281 252.40625 L 599.988281 268.78125 " fill-opacity="1" fill-rule="nonzero"/><path fill="#231f20" d="M 599.988281 268.78125 L 599.988281 266.96875 L 525.382812 266.96875 L 525.382812 254.214844 L 598.183594 254.214844 L 598.183594 268.78125 L 599.988281 268.78125 L 599.988281 266.96875 L 599.988281 268.78125 L 601.796875 268.78125 L 601.796875 252.40625 C 601.796875 251.929688 601.597656 251.460938 601.265625 251.128906 C 600.929688 250.792969 600.460938 250.59375 599.988281 250.59375 L 523.578125 250.59375 C 523.097656 250.59375 522.632812 250.792969 522.300781 251.128906 C 521.960938 251.460938 521.769531 251.929688 521.769531 252.40625 L 521.769531 268.78125 C 521.769531 269.253906 521.960938 269.71875 522.300781 270.058594 C 522.632812 270.390625 523.097656 270.589844 523.578125 270.589844 L 599.988281 270.589844 C 600.460938 270.589844 600.929688 270.390625 601.265625 270.058594 C 601.597656 269.71875 601.796875 269.253906 601.796875 268.78125 L 599.988281 268.78125 " fill-opacity="1" fill-rule="nonzero"/><path fill="#ffffff" d="M 609.4375 390.015625 L 514.128906 390.015625 L 514.128906 373.648438 L 609.4375 373.648438 L 609.4375 390.015625 " fill-opacity="1" fill-rule="nonzero"/><path fill="#231f20" d="M 609.4375 390.015625 L 609.4375 388.207031 L 515.933594 388.207031 L 515.933594 375.449219 L 607.632812 375.449219 L 607.632812 390.015625 L 609.4375 390.015625 L 609.4375 388.207031 L 609.4375 390.015625 L 611.246094 390.015625 L 611.246094 373.648438 C 611.246094 373.167969 611.054688 372.703125 610.714844 372.363281 C 610.378906 372.03125 609.914062 371.84375 609.4375 371.84375 L 514.128906 371.84375 C 513.65625 371.84375 513.1875 372.03125 512.851562 372.363281 C 512.519531 372.703125 512.320312 373.167969 512.320312 373.648438 L 512.320312 390.015625 C 512.320312 390.5 512.511719 390.953125 512.851562 391.292969 C 513.195312 391.636719 513.648438 391.820312 514.128906 391.820312 L 609.4375 391.820312 C 609.917969 391.820312 610.371094 391.636719 610.714844 391.292969 C 611.054688 390.953125 611.246094 390.5 611.246094 390.015625 L 609.4375 390.015625 " fill-opacity="1" fill-rule="nonzero"/><path fill="#ffffff" d="M 621.875 510.042969 L 501.691406 510.042969 L 501.691406 493.667969 L 621.875 493.667969 L 621.875 510.042969 " fill-opacity="1" fill-rule="nonzero"/><path fill="#231f20" d="M 621.875 510.042969 L 621.875 508.234375 L 503.5 508.234375 L 503.5 495.476562 L 620.058594 495.476562 L 620.066406 510.042969 L 621.875 510.042969 L 621.875 508.234375 L 621.875 510.042969 L 623.671875 510.042969 L 623.671875 493.667969 C 623.671875 493.1875 623.484375 492.722656 623.152344 492.390625 C 622.8125 492.050781 622.347656 491.863281 621.875 491.863281 L 501.691406 491.863281 C 501.214844 491.863281 500.746094 492.050781 500.414062 492.390625 C 500.078125 492.722656 499.886719 493.1875 499.886719 493.667969 L 499.886719 510.042969 C 499.886719 510.515625 500.078125 510.980469 500.414062 511.320312 C 500.746094 511.652344 501.214844 511.847656 501.691406 511.847656 L 621.875 511.847656 C 622.355469 511.847656 622.804688 511.65625 623.152344 511.320312 C 623.488281 510.972656 623.671875 510.523438 623.671875 510.042969 L 621.875 510.042969 " fill-opacity="1" fill-rule="nonzero"/><path fill="#ffffff" d="M 577.492188 331.542969 L 577.492188 308.191406 C 577.492188 299.507812 570.457031 292.472656 561.785156 292.472656 C 553.101562 292.472656 546.074219 299.507812 546.074219 308.191406 L 546.074219 331.542969 L 577.492188 331.542969 " fill-opacity="1" fill-rule="nonzero"/><path fill="#231f20" d="M 577.492188 331.542969 L 579.300781 331.542969 L 579.300781 308.191406 C 579.300781 298.515625 571.457031 290.667969 561.785156 290.667969 C 552.109375 290.667969 544.269531 298.515625 544.269531 308.191406 L 544.269531 331.542969 C 544.269531 332.015625 544.457031 332.480469 544.789062 332.820312 C 545.128906 333.152344 545.59375 333.351562 546.074219 333.351562 L 577.492188 333.351562 C 577.972656 333.351562 578.429688 333.160156 578.769531 332.820312 C 579.109375 332.476562 579.300781 332.023438 579.300781 331.542969 L 577.492188 331.542969 L 577.492188 329.738281 L 547.875 329.738281 L 547.875 308.191406 C 547.882812 304.34375 549.433594 300.878906 551.945312 298.351562 C 554.472656 295.832031 557.9375 294.28125 561.785156 294.28125 C 565.628906 294.28125 569.09375 295.832031 571.613281 298.351562 C 574.132812 300.878906 575.6875 304.34375 575.6875 308.191406 L 575.6875 331.542969 L 577.492188 331.542969 L 577.492188 329.738281 L 577.492188 331.542969 " fill-opacity="1" fill-rule="nonzero"/><path fill="#ffffff" d="M 577.492188 452.785156 L 577.492188 429.425781 C 577.492188 420.75 570.457031 413.714844 561.785156 413.714844 C 553.101562 413.714844 546.074219 420.75 546.074219 429.425781 L 546.074219 452.785156 L 577.492188 452.785156 " fill-opacity="1" fill-rule="nonzero"/><path fill="#231f20" d="M 577.492188 452.785156 L 579.300781 452.785156 L 579.300781 429.425781 C 579.300781 419.75 571.457031 411.90625 561.785156 411.90625 C 552.109375 411.90625 544.269531 419.75 544.261719 429.425781 L 544.261719 452.785156 C 544.261719 453.257812 544.457031 453.722656 544.796875 454.0625 C 545.128906 454.394531 545.59375 454.589844 546.074219 454.589844 L 577.492188 454.589844 C 577.964844 454.589844 578.429688 454.394531 578.769531 454.0625 C 579.109375 453.722656 579.300781 453.257812 579.300781 452.785156 L 577.492188 452.785156 L 577.492188 450.976562 L 547.875 450.976562 L 547.882812 429.425781 C 547.882812 425.578125 549.433594 422.113281 551.945312 419.59375 C 554.472656 417.074219 557.9375 415.519531 561.785156 415.519531 C 565.628906 415.519531 569.09375 417.074219 571.613281 419.59375 C 574.132812 422.113281 575.6875 425.578125 575.6875 429.425781 L 575.6875 452.785156 L 577.492188 452.785156 L 577.492188 450.976562 L 577.492188 452.785156 " fill-opacity="1" fill-rule="nonzero"/><path fill="#ffffff" d="M 580.808594 707.1875 L 580.808594 617.910156 C 580.808594 607.398438 572.292969 598.882812 561.785156 598.882812 C 551.277344 598.882812 542.75 607.398438 542.75 617.910156 L 542.75 707.1875 L 580.808594 707.1875 " fill-opacity="1" fill-rule="nonzero"/><path fill="#231f20" d="M 580.808594 707.1875 L 582.617188 707.1875 L 582.617188 617.910156 C 582.617188 606.40625 573.285156 597.074219 561.785156 597.074219 C 550.28125 597.074219 540.945312 606.40625 540.945312 617.910156 L 540.945312 707.1875 C 540.945312 707.660156 541.140625 708.125 541.472656 708.464844 C 541.8125 708.792969 542.277344 708.992188 542.75 708.992188 L 580.808594 708.992188 C 581.28125 708.992188 581.746094 708.792969 582.085938 708.464844 C 582.425781 708.125 582.617188 707.660156 582.617188 707.1875 L 580.808594 707.1875 L 580.808594 705.371094 L 544.558594 705.371094 L 544.558594 617.910156 C 544.558594 613.144531 546.484375 608.855469 549.601562 605.734375 C 552.730469 602.613281 557.019531 600.6875 561.785156 600.6875 C 566.539062 600.6875 570.835938 602.613281 573.957031 605.734375 C 577.074219 608.855469 579.003906 613.144531 579.003906 617.910156 L 579.003906 707.1875 L 580.808594 707.1875 L 580.808594 705.371094 L 580.808594 707.1875 " fill-opacity="1" fill-rule="nonzero"/><path fill="#ffffff" d="M 694.292969 788.734375 L 115.496094 788.734375 L 115.496094 697.671875 L 694.292969 697.671875 L 694.292969 788.734375 " fill-opacity="1" fill-rule="nonzero"/><g clip-path="url(#86672d2516)"><path fill="#231f20" d="M 694.292969 788.734375 L 694.292969 786.921875 L 117.304688 786.921875 L 117.304688 699.480469 L 692.484375 699.480469 L 692.484375 788.734375 L 694.292969 788.734375 L 694.292969 786.921875 L 694.292969 788.734375 L 696.097656 788.734375 L 696.097656 697.671875 C 696.097656 697.191406 695.910156 696.726562 695.570312 696.394531 C 695.238281 696.054688 694.773438 695.867188 694.292969 695.867188 L 115.496094 695.867188 C 115.019531 695.867188 114.550781 696.054688 114.21875 696.394531 C 113.882812 696.726562 113.691406 697.191406 113.691406 697.671875 L 113.691406 788.734375 C 113.691406 789.207031 113.882812 789.671875 114.21875 790.011719 C 114.550781 790.34375 115.019531 790.542969 115.496094 790.542969 L 694.292969 790.542969 C 694.773438 790.542969 695.238281 790.34375 695.570312 790.011719 C 695.910156 789.671875 696.097656 789.207031 696.097656 788.734375 L 694.292969 788.734375 " fill-opacity="1" fill-rule="nonzero"/></g><path fill="#ffffff" d="M 686.613281 779.136719 L 123.175781 779.136719 L 123.175781 707.261719 L 686.613281 707.261719 L 686.613281 779.136719 " fill-opacity="1" fill-rule="nonzero"/><path fill="#231f20" d="M 686.613281 779.136719 L 686.613281 777.332031 L 124.980469 777.332031 L 124.980469 709.070312 L 684.808594 709.070312 L 684.808594 779.136719 L 686.613281 779.136719 L 686.613281 777.332031 L 686.613281 779.136719 L 688.421875 779.136719 L 688.421875 707.261719 C 688.421875 706.789062 688.230469 706.324219 687.890625 705.992188 C 687.558594 705.65625 687.09375 705.457031 686.613281 705.457031 L 123.175781 705.457031 C 122.703125 705.457031 122.238281 705.65625 121.898438 705.992188 C 121.558594 706.324219 121.367188 706.789062 121.367188 707.261719 L 121.367188 779.136719 C 121.367188 779.609375 121.558594 780.074219 121.898438 780.414062 C 122.238281 780.746094 122.703125 780.945312 123.175781 780.945312 L 686.613281 780.945312 C 687.09375 780.945312 687.558594 780.746094 687.890625 780.414062 C 688.230469 780.074219 688.421875 779.609375 688.421875 779.136719 L 686.613281 779.136719 " fill-opacity="1" fill-rule="nonzero"/></svg>