<svg xmlns="http://www.w3.org/2000/svg" xmlns:xlink="http://www.w3.org/1999/xlink" width="1080" zoomAndPan="magnify" viewBox="0 0 810 1012.49997" height="1350" preserveAspectRatio="xMidYMid meet" version="1.0"><defs><clipPath id="ed10b8a3e2"><path d="M 0.199219 0 L 809.800781 0 L 809.800781 1012 L 0.199219 1012 Z M 0.199219 0 " clip-rule="nonzero"/></clipPath><clipPath id="dfbed76d00"><path d="M 109.207031 816 L 700.664062 816 L 700.664062 832.730469 L 109.207031 832.730469 Z M 109.207031 816 " clip-rule="nonzero"/></clipPath><clipPath id="2a0e5caca7"><path d="M 244 235.273438 L 567 235.273438 L 567 494 L 244 494 Z M 244 235.273438 " clip-rule="nonzero"/></clipPath></defs><g clip-path="url(#ed10b8a3e2)"><path fill="#ffffff" d="M 0.199219 0 L 809.800781 0 L 809.800781 1012 L 0.199219 1012 Z M 0.199219 0 " fill-opacity="1" fill-rule="nonzero"/><path fill="#ffffff" d="M 0.199219 0 L 809.800781 0 L 809.800781 1012 L 0.199219 1012 Z M 0.199219 0 " fill-opacity="1" fill-rule="nonzero"/></g><path fill="#000000" d="M 653.707031 644.429688 L 653.707031 802.96875 C 653.707031 803.617188 653.1875 804.136719 652.535156 804.136719 L 565.039062 804.136719 C 564.386719 804.136719 563.863281 803.617188 563.863281 802.96875 L 563.863281 644.429688 C 563.863281 643.78125 564.386719 643.25 565.039062 643.25 L 652.535156 643.25 C 653.1875 643.25 653.707031 643.78125 653.707031 644.429688 Z M 651.359375 645.59375 C 651.359375 645.59375 566.210938 645.59375 566.210938 645.59375 L 566.210938 801.792969 C 566.210938 801.792969 651.359375 801.792969 651.359375 801.792969 Z M 651.359375 645.59375 " fill-opacity="1" fill-rule="evenodd"/><path fill="#000000" d="M 626.613281 687.324219 C 627.566406 689.527344 627.992188 693.085938 628.050781 697.003906 C 628.210938 705.804688 626.695312 716.429688 626.695312 716.429688 C 626.613281 716.996094 626.140625 717.414062 625.570312 717.414062 L 590.734375 717.414062 C 590.160156 717.414062 589.675781 716.984375 589.601562 716.417969 C 589.601562 716.417969 588.246094 705.792969 588.382812 697.003906 C 588.445312 693.109375 588.8125 689.5625 589.671875 687.371094 C 591.25 683.339844 595.121094 679.046875 599.289062 676.257812 C 602.15625 674.347656 605.171875 673.164062 607.679688 673.164062 C 610.171875 673.164062 613.246094 674.292969 616.238281 676.144531 C 620.59375 678.855469 624.757812 683.101562 626.613281 687.324219 Z M 624.515625 688.242188 C 622.835938 684.390625 619.007812 680.550781 615.027344 678.074219 C 612.460938 676.484375 609.820312 675.445312 607.679688 675.445312 C 605.535156 675.445312 603.003906 676.527344 600.558594 678.15625 C 596.769531 680.683594 593.226562 684.546875 591.792969 688.207031 C 591.007812 690.207031 590.71875 693.46875 590.664062 697.039062 C 590.554688 704.085938 591.417969 712.320312 591.742188 715.132812 C 591.742188 715.132812 624.566406 715.132812 624.566406 715.132812 C 624.929688 712.34375 625.898438 704.097656 625.777344 697.039062 C 625.714844 693.480469 625.402344 690.238281 624.515625 688.242188 Z M 624.515625 688.242188 " fill-opacity="1" fill-rule="evenodd"/><path fill="#000000" d="M 628.035156 751.683594 C 628.992188 753.886719 629.414062 757.441406 629.476562 761.363281 C 629.632812 770.160156 628.117188 780.789062 628.117188 780.789062 C 628.035156 781.351562 627.5625 781.769531 626.992188 781.769531 L 592.15625 781.769531 C 591.582031 781.769531 591.097656 781.339844 591.023438 780.777344 C 591.023438 780.777344 589.671875 770.148438 589.804688 761.363281 C 589.867188 757.464844 590.234375 753.917969 591.09375 751.726562 C 592.671875 747.695312 596.542969 743.40625 600.710938 740.613281 C 603.578125 738.707031 606.59375 737.519531 609.101562 737.519531 C 611.59375 737.519531 614.667969 738.648438 617.660156 740.5 C 622.015625 743.210938 626.183594 747.457031 628.035156 751.683594 Z M 625.941406 752.597656 C 624.257812 748.746094 620.429688 744.90625 616.449219 742.433594 C 613.882812 740.839844 611.242188 739.800781 609.101562 739.800781 C 606.957031 739.800781 604.425781 740.886719 601.980469 742.511719 C 598.191406 745.042969 594.648438 748.90625 593.214844 752.5625 C 592.429688 754.5625 592.140625 757.828125 592.085938 761.394531 C 591.976562 768.441406 592.839844 776.675781 593.167969 779.488281 C 593.167969 779.488281 625.988281 779.488281 625.988281 779.488281 C 626.351562 776.699219 627.320312 768.453125 627.199219 761.394531 C 627.136719 757.839844 626.824219 754.597656 625.941406 752.597656 Z M 625.941406 752.597656 " fill-opacity="1" fill-rule="evenodd"/><path fill="#000000" d="M 573.816406 598.101562 C 573.816406 598.101562 571.183594 591.21875 570.65625 583.003906 C 570.300781 577.433594 570.921875 571.265625 573.894531 566.164062 C 578 559.121094 592.054688 547.414062 601.582031 541.613281 C 605.523438 539.210938 607.808594 535.148438 607.808594 535.148438 C 608.011719 534.789062 608.390625 534.566406 608.800781 534.566406 C 609.210938 534.566406 609.589844 534.785156 609.792969 535.140625 C 609.792969 535.140625 611.816406 538.667969 616.007812 541.382812 C 618.726562 543.144531 627.28125 548.507812 634.492188 554.894531 C 639.429688 559.261719 643.710938 564.132812 645.234375 568.660156 C 649.894531 582.539062 643.90625 598.128906 643.90625 598.128906 C 643.738281 598.570312 643.3125 598.859375 642.84375 598.859375 L 574.878906 598.832031 C 574.40625 598.832031 573.984375 598.542969 573.816406 598.101562 Z M 575.683594 596.554688 C 575.683594 596.554688 642.039062 596.582031 642.039062 596.582031 C 643.105469 593.449219 646.910156 580.804688 643.074219 569.386719 C 641.652344 565.164062 637.585938 560.675781 632.980469 556.597656 C 625.878906 550.308594 617.449219 545.03125 614.765625 543.296875 C 611.871094 541.417969 609.90625 539.191406 608.820312 537.753906 C 607.691406 539.332031 605.609375 541.828125 602.765625 543.5625 C 593.527344 549.1875 579.84375 560.480469 575.863281 567.3125 C 573.121094 572.019531 572.601562 577.71875 572.929688 582.859375 C 573.335938 589.15625 575.027344 594.628906 575.683594 596.554688 Z M 575.683594 596.554688 " fill-opacity="1" fill-rule="evenodd"/><path fill="#000000" d="M 637.121094 612.714844 L 637.121094 644.429688 C 637.121094 645.0625 636.609375 645.574219 635.96875 645.574219 L 581.628906 645.574219 C 580.988281 645.574219 580.464844 645.0625 580.464844 644.429688 L 580.464844 612.714844 C 580.464844 612.082031 580.988281 611.566406 581.628906 611.566406 L 635.96875 611.566406 C 636.609375 611.566406 637.121094 612.082031 637.121094 612.714844 Z M 634.816406 613.867188 C 634.816406 613.867188 582.78125 613.867188 582.78125 613.867188 L 582.78125 643.273438 C 582.78125 643.273438 634.816406 643.273438 634.816406 643.273438 Z M 634.816406 613.867188 " fill-opacity="1" fill-rule="evenodd"/><path fill="#000000" d="M 640.546875 597.730469 L 640.546875 612.71875 C 640.546875 613.335938 640.046875 613.832031 639.4375 613.832031 L 578.152344 613.832031 C 577.542969 613.832031 577.042969 613.335938 577.042969 612.71875 L 577.042969 597.730469 C 577.042969 597.113281 577.542969 596.617188 578.152344 596.617188 L 639.4375 596.617188 C 640.046875 596.617188 640.546875 597.113281 640.546875 597.730469 Z M 638.320312 598.84375 L 579.269531 598.84375 C 579.269531 598.84375 579.269531 611.621094 579.269531 611.621094 L 638.320312 611.621094 Z M 638.320312 598.84375 " fill-opacity="1" fill-rule="evenodd"/><path fill="#000000" d="M 598.699219 620.570312 L 605.046875 627.433594 C 605.460938 627.871094 605.460938 628.539062 605.046875 628.984375 L 598.699219 635.847656 C 598.488281 636.078125 598.1875 636.207031 597.867188 636.207031 C 597.546875 636.207031 597.242188 636.078125 597.023438 635.847656 L 590.675781 628.984375 C 590.273438 628.539062 590.273438 627.871094 590.675781 627.433594 L 597.023438 620.570312 C 597.242188 620.335938 597.546875 620.199219 597.867188 620.199219 C 598.1875 620.199219 598.488281 620.335938 598.699219 620.570312 Z M 597.867188 623.015625 C 597.867188 623.015625 593.0625 628.203125 593.0625 628.203125 L 597.867188 633.390625 C 597.867188 633.390625 602.660156 628.203125 602.660156 628.203125 Z M 597.867188 623.015625 " fill-opacity="1" fill-rule="evenodd"/><path fill="#000000" d="M 620.558594 620.570312 L 626.910156 627.433594 C 627.320312 627.871094 627.320312 628.539062 626.910156 628.984375 L 620.558594 635.847656 C 620.347656 636.078125 620.046875 636.207031 619.726562 636.207031 C 619.40625 636.207031 619.105469 636.078125 618.882812 635.847656 L 612.535156 628.984375 C 612.132812 628.539062 612.132812 627.871094 612.535156 627.433594 L 618.882812 620.570312 C 619.105469 620.335938 619.40625 620.199219 619.726562 620.199219 C 620.046875 620.199219 620.347656 620.335938 620.558594 620.570312 Z M 619.726562 623.015625 C 619.726562 623.015625 614.921875 628.203125 614.921875 628.203125 L 619.726562 633.390625 C 619.726562 633.390625 624.519531 628.203125 624.519531 628.203125 Z M 619.726562 623.015625 " fill-opacity="1" fill-rule="evenodd"/><path fill="#000000" d="M 653.679688 644.441406 L 653.679688 660.378906 C 653.679688 661.015625 653.171875 661.523438 652.542969 661.523438 L 565.046875 661.523438 C 564.417969 661.523438 563.910156 661.015625 563.910156 660.378906 L 563.910156 644.441406 C 563.910156 643.808594 564.417969 643.296875 565.046875 643.296875 L 652.542969 643.296875 C 653.171875 643.296875 653.679688 643.808594 653.679688 644.441406 Z M 651.40625 645.566406 L 566.183594 645.566406 C 566.183594 645.566406 566.183594 659.257812 566.183594 659.257812 L 651.40625 659.257812 Z M 651.40625 645.566406 " fill-opacity="1" fill-rule="evenodd"/><path fill="#000000" d="M 246.816406 644.429688 L 246.816406 802.96875 C 246.816406 803.597656 246.3125 804.109375 245.683594 804.109375 L 158.183594 804.109375 C 157.554688 804.109375 157.050781 803.597656 157.050781 802.96875 L 157.050781 644.429688 C 157.050781 643.792969 157.554688 643.28125 158.183594 643.28125 L 245.683594 643.28125 C 246.3125 643.28125 246.816406 643.792969 246.816406 644.429688 Z M 244.546875 645.566406 C 244.546875 645.566406 159.320312 645.566406 159.320312 645.566406 L 159.320312 801.832031 C 159.320312 801.832031 244.546875 801.832031 244.546875 801.832031 Z M 244.546875 645.566406 " fill-opacity="1" fill-rule="evenodd"/><path fill="#000000" d="M 219.75 687.324219 C 220.707031 689.527344 221.132812 693.085938 221.191406 697.003906 C 221.347656 705.804688 219.835938 716.429688 219.835938 716.429688 C 219.75 716.996094 219.277344 717.414062 218.710938 717.414062 L 183.871094 717.414062 C 183.296875 717.414062 182.8125 716.984375 182.742188 716.417969 C 182.742188 716.417969 181.386719 705.792969 181.523438 697.003906 C 181.582031 693.109375 181.953125 689.5625 182.8125 687.371094 C 184.390625 683.339844 188.257812 679.046875 192.425781 676.257812 C 195.296875 674.347656 198.3125 673.164062 200.816406 673.164062 C 203.3125 673.164062 206.386719 674.292969 209.375 676.144531 C 213.734375 678.855469 217.898438 683.101562 219.75 687.324219 Z M 217.65625 688.242188 C 215.972656 684.390625 212.148438 680.550781 208.164062 678.074219 C 205.597656 676.484375 202.960938 675.445312 200.816406 675.445312 C 198.675781 675.445312 196.144531 676.527344 193.699219 678.15625 C 189.910156 680.683594 186.367188 684.546875 184.933594 688.207031 C 184.144531 690.207031 183.855469 693.46875 183.800781 697.039062 C 183.691406 704.085938 184.558594 712.320312 184.882812 715.132812 C 184.882812 715.132812 217.703125 715.132812 217.703125 715.132812 C 218.066406 712.34375 219.035156 704.097656 218.914062 697.039062 C 218.855469 693.480469 218.539062 690.238281 217.65625 688.242188 Z M 217.65625 688.242188 " fill-opacity="1" fill-rule="evenodd"/><path fill="#000000" d="M 221.179688 751.683594 C 222.136719 753.886719 222.5625 757.441406 222.621094 761.363281 C 222.777344 770.160156 221.265625 780.789062 221.265625 780.789062 C 221.179688 781.351562 220.710938 781.769531 220.140625 781.769531 L 185.300781 781.769531 C 184.726562 781.769531 184.246094 781.339844 184.171875 780.777344 C 184.171875 780.777344 182.816406 770.148438 182.953125 761.363281 C 183.011719 757.464844 183.382812 753.917969 184.242188 751.726562 C 185.820312 747.695312 189.691406 743.40625 193.859375 740.613281 C 196.726562 738.707031 199.742188 737.519531 202.246094 737.519531 C 204.742188 737.519531 207.816406 738.648438 210.804688 740.5 C 215.164062 743.210938 219.328125 747.457031 221.179688 751.683594 Z M 219.085938 752.597656 C 217.402344 748.746094 213.578125 744.90625 209.59375 742.433594 C 207.027344 740.839844 204.390625 739.800781 202.246094 739.800781 C 200.105469 739.800781 197.574219 740.886719 195.128906 742.511719 C 191.339844 745.042969 187.796875 748.90625 186.363281 752.5625 C 185.574219 754.5625 185.285156 757.828125 185.230469 761.394531 C 185.125 768.441406 185.988281 776.675781 186.3125 779.488281 C 186.3125 779.488281 219.136719 779.488281 219.136719 779.488281 C 219.5 776.699219 220.46875 768.453125 220.347656 761.394531 C 220.285156 757.839844 219.96875 754.597656 219.085938 752.597656 Z M 219.085938 752.597656 " fill-opacity="1" fill-rule="evenodd"/><path fill="#000000" d="M 166.953125 598.101562 C 166.953125 598.101562 164.320312 591.21875 163.796875 583.003906 C 163.4375 577.433594 164.0625 571.265625 167.035156 566.164062 C 171.140625 559.121094 185.191406 547.414062 194.71875 541.613281 C 198.664062 539.210938 200.949219 535.148438 200.949219 535.148438 C 201.148438 534.789062 201.527344 534.566406 201.9375 534.566406 C 202.351562 534.566406 202.730469 534.785156 202.933594 535.140625 C 202.933594 535.140625 204.957031 538.667969 209.144531 541.382812 C 211.867188 543.144531 220.421875 548.507812 227.632812 554.894531 C 232.566406 559.261719 236.851562 564.132812 238.371094 568.660156 C 243.035156 582.539062 237.046875 598.128906 237.046875 598.128906 C 236.875 598.570312 236.453125 598.859375 235.980469 598.859375 L 168.019531 598.832031 C 167.546875 598.832031 167.125 598.542969 166.953125 598.101562 Z M 168.824219 596.554688 C 168.824219 596.554688 235.179688 596.582031 235.179688 596.582031 C 236.246094 593.449219 240.046875 580.804688 236.210938 569.386719 C 234.792969 565.164062 230.722656 560.675781 226.121094 556.597656 C 219.019531 550.308594 210.585938 545.03125 207.90625 543.296875 C 205.011719 541.417969 203.042969 539.191406 201.960938 537.753906 C 200.828125 539.332031 198.75 541.828125 195.90625 543.5625 C 186.664062 549.1875 172.984375 560.480469 169.003906 567.3125 C 166.261719 572.019531 165.742188 577.71875 166.070312 582.859375 C 166.472656 589.15625 168.167969 594.628906 168.824219 596.554688 Z M 168.824219 596.554688 " fill-opacity="1" fill-rule="evenodd"/><path fill="#000000" d="M 230.25 612.714844 L 230.25 644.429688 C 230.25 645.050781 229.738281 645.5625 229.105469 645.5625 L 174.769531 645.5625 C 174.136719 645.5625 173.625 645.050781 173.625 644.429688 L 173.625 612.714844 C 173.625 612.089844 174.136719 611.578125 174.769531 611.578125 L 229.105469 611.578125 C 229.738281 611.578125 230.25 612.089844 230.25 612.714844 Z M 227.964844 613.859375 L 175.902344 613.859375 C 175.902344 613.859375 175.902344 643.285156 175.902344 643.285156 L 227.964844 643.285156 Z M 227.964844 613.859375 " fill-opacity="1" fill-rule="evenodd"/><path fill="#000000" d="M 233.714844 597.730469 L 233.714844 612.71875 C 233.714844 613.351562 233.207031 613.867188 232.578125 613.867188 L 171.292969 613.867188 C 170.664062 613.867188 170.152344 613.351562 170.152344 612.71875 L 170.152344 597.730469 C 170.152344 597.09375 170.664062 596.582031 171.292969 596.582031 L 232.578125 596.582031 C 233.207031 596.582031 233.714844 597.09375 233.714844 597.730469 Z M 231.429688 598.863281 L 172.4375 598.863281 L 172.4375 611.585938 L 231.429688 611.585938 Z M 231.429688 598.863281 " fill-opacity="1" fill-rule="evenodd"/><path fill="#000000" d="M 191.847656 620.570312 L 198.195312 627.433594 C 198.605469 627.871094 198.605469 628.539062 198.195312 628.984375 L 191.847656 635.847656 C 191.636719 636.078125 191.332031 636.207031 191.011719 636.207031 C 190.691406 636.207031 190.390625 636.078125 190.171875 635.847656 L 183.820312 628.984375 C 183.417969 628.539062 183.417969 627.871094 183.820312 627.433594 L 190.171875 620.570312 C 190.390625 620.335938 190.691406 620.199219 191.011719 620.199219 C 191.332031 620.199219 191.636719 620.335938 191.847656 620.570312 Z M 191.011719 623.015625 C 191.011719 623.015625 186.210938 628.203125 186.210938 628.203125 L 191.011719 633.390625 C 191.011719 633.390625 195.808594 628.203125 195.808594 628.203125 Z M 191.011719 623.015625 " fill-opacity="1" fill-rule="evenodd"/><path fill="#000000" d="M 213.699219 620.570312 L 220.046875 627.433594 C 220.460938 627.871094 220.460938 628.539062 220.046875 628.984375 L 213.699219 635.847656 C 213.488281 636.078125 213.1875 636.207031 212.867188 636.207031 C 212.546875 636.207031 212.242188 636.078125 212.023438 635.847656 L 205.675781 628.984375 C 205.273438 628.539062 205.273438 627.871094 205.675781 627.433594 L 212.023438 620.570312 C 212.242188 620.335938 212.546875 620.199219 212.867188 620.199219 C 213.1875 620.199219 213.488281 620.335938 213.699219 620.570312 Z M 212.867188 623.015625 C 212.867188 623.015625 208.0625 628.203125 208.0625 628.203125 L 212.867188 633.390625 C 212.867188 633.390625 217.660156 628.203125 217.660156 628.203125 Z M 212.867188 623.015625 " fill-opacity="1" fill-rule="evenodd"/><path fill="#000000" d="M 246.828125 644.441406 L 246.828125 660.378906 C 246.828125 661.015625 246.320312 661.523438 245.691406 661.523438 L 158.195312 661.523438 C 157.566406 661.523438 157.054688 661.015625 157.054688 660.378906 L 157.054688 644.441406 C 157.054688 643.808594 157.566406 643.296875 158.195312 643.296875 L 245.691406 643.296875 C 246.320312 643.296875 246.828125 643.808594 246.828125 644.441406 Z M 244.554688 645.566406 L 159.332031 645.566406 C 159.332031 645.566406 159.332031 659.257812 159.332031 659.257812 L 244.554688 659.257812 Z M 244.554688 645.566406 " fill-opacity="1" fill-rule="evenodd"/><path fill="#000000" d="M 532.492188 512.652344 L 532.492188 572.445312 C 532.492188 573.078125 531.980469 573.589844 531.359375 573.589844 L 279.386719 573.589844 C 278.757812 573.589844 278.246094 573.078125 278.246094 572.445312 L 278.246094 512.652344 C 278.246094 512.019531 278.757812 511.507812 279.386719 511.507812 L 531.359375 511.507812 C 531.980469 511.507812 532.492188 512.019531 532.492188 512.652344 Z M 530.214844 513.785156 L 280.523438 513.785156 C 280.523438 513.785156 280.523438 571.3125 280.523438 571.3125 L 530.214844 571.3125 Z M 530.214844 513.785156 " fill-opacity="1" fill-rule="evenodd"/><path fill="#000000" d="M 347.367188 543.496094 C 348.320312 545.699219 348.746094 549.253906 348.804688 553.175781 C 348.964844 561.972656 347.449219 572.601562 347.449219 572.601562 C 347.367188 573.164062 346.894531 573.582031 346.324219 573.582031 L 311.488281 573.582031 C 310.914062 573.582031 310.429688 573.152344 310.355469 572.589844 C 310.355469 572.589844 309 561.960938 309.136719 553.175781 C 309.199219 549.277344 309.566406 545.730469 310.425781 543.539062 C 312.003906 539.507812 315.875 535.21875 320.042969 532.425781 C 322.910156 530.519531 325.925781 529.332031 328.429688 529.332031 C 330.925781 529.332031 334 530.460938 336.992188 532.316406 C 341.347656 535.023438 345.511719 539.273438 347.367188 543.496094 Z M 345.269531 544.410156 C 343.589844 540.558594 339.761719 536.71875 335.78125 534.246094 C 333.214844 532.652344 330.574219 531.613281 328.429688 531.613281 C 326.289062 531.613281 323.757812 532.699219 321.3125 534.324219 C 317.523438 536.855469 313.980469 540.71875 312.546875 544.375 C 311.761719 546.375 311.472656 549.640625 311.417969 553.207031 C 311.308594 560.257812 312.171875 568.488281 312.496094 571.300781 C 312.496094 571.300781 345.320312 571.300781 345.320312 571.300781 C 345.683594 568.511719 346.652344 560.265625 346.53125 553.207031 C 346.46875 549.652344 346.15625 546.410156 345.269531 544.410156 Z M 345.269531 544.410156 " fill-opacity="1" fill-rule="evenodd"/><path fill="#000000" d="M 423.785156 543.917969 C 424.742188 546.089844 425.167969 549.605469 425.226562 553.464844 C 425.386719 562.128906 423.871094 572.609375 423.871094 572.609375 C 423.785156 573.167969 423.316406 573.589844 422.746094 573.589844 L 387.90625 573.589844 C 387.335938 573.589844 386.851562 573.15625 386.777344 572.585938 C 386.777344 572.585938 385.421875 562.128906 385.558594 553.464844 C 385.617188 549.613281 385.988281 546.121094 386.847656 543.964844 C 388.429688 539.992188 392.300781 535.753906 396.476562 533.015625 C 399.332031 531.136719 402.347656 529.96875 404.851562 529.96875 C 407.347656 529.96875 410.421875 531.070312 413.398438 532.894531 C 417.769531 535.5625 421.933594 539.757812 423.785156 543.917969 Z M 421.703125 544.84375 C 420.011719 541.058594 416.183594 537.277344 412.214844 534.839844 C 409.636719 533.261719 406.996094 532.25 404.851562 532.25 C 402.710938 532.25 400.167969 533.316406 397.722656 534.917969 C 393.945312 537.398438 390.398438 541.203125 388.96875 544.808594 C 388.179688 546.777344 387.890625 549.980469 387.839844 553.496094 C 387.730469 560.429688 388.59375 568.527344 388.917969 571.308594 L 421.753906 571.308594 C 422.105469 568.539062 423.074219 560.4375 422.953125 553.496094 C 422.890625 550.003906 422.578125 546.8125 421.703125 544.84375 Z M 421.703125 544.84375 " fill-opacity="1" fill-rule="evenodd"/><path fill="#000000" d="M 500.207031 543.496094 C 501.164062 545.699219 501.589844 549.253906 501.648438 553.175781 C 501.804688 561.972656 500.292969 572.601562 500.292969 572.601562 C 500.207031 573.164062 499.738281 573.582031 499.167969 573.582031 L 464.328125 573.582031 C 463.757812 573.582031 463.273438 573.152344 463.199219 572.589844 C 463.199219 572.589844 461.84375 561.960938 461.980469 553.175781 C 462.039062 549.277344 462.410156 545.730469 463.269531 543.539062 C 464.847656 539.507812 468.71875 535.21875 472.886719 532.425781 C 475.753906 530.519531 478.769531 529.332031 481.273438 529.332031 C 483.769531 529.332031 486.84375 530.460938 489.832031 532.316406 C 494.191406 535.023438 498.355469 539.273438 500.207031 543.496094 Z M 498.113281 544.410156 C 496.429688 540.558594 492.605469 536.71875 488.621094 534.246094 C 486.054688 532.652344 483.417969 531.613281 481.273438 531.613281 C 479.132812 531.613281 476.601562 532.699219 474.15625 534.324219 C 470.367188 536.855469 466.824219 540.71875 465.390625 544.375 C 464.601562 546.375 464.3125 549.640625 464.257812 553.207031 C 464.152344 560.257812 465.015625 568.488281 465.339844 571.300781 C 465.339844 571.300781 498.164062 571.300781 498.164062 571.300781 C 498.527344 568.511719 499.496094 560.265625 499.375 553.207031 C 499.3125 549.652344 498.996094 546.410156 498.113281 544.410156 Z M 498.113281 544.410156 " fill-opacity="1" fill-rule="evenodd"/><path fill="#000000" d="M 566.210938 572.453125 L 566.210938 802.980469 C 566.210938 803.621094 565.691406 804.132812 565.050781 804.132812 L 245.691406 804.132812 C 245.050781 804.132812 244.53125 803.621094 244.53125 802.980469 L 244.53125 572.453125 C 244.53125 571.808594 245.050781 571.300781 245.691406 571.300781 L 565.050781 571.300781 C 565.691406 571.300781 566.210938 571.808594 566.210938 572.453125 Z M 563.898438 573.613281 L 246.84375 573.613281 L 246.84375 801.820312 L 563.898438 801.820312 Z M 563.898438 573.613281 " fill-opacity="1" fill-rule="evenodd"/><path fill="#000000" d="M 566.191406 572.441406 L 566.191406 589.714844 C 566.191406 590.34375 565.679688 590.851562 565.050781 590.851562 L 245.691406 590.851562 C 245.0625 590.851562 244.546875 590.34375 244.546875 589.714844 L 244.546875 572.441406 C 244.546875 571.8125 245.0625 571.304688 245.691406 571.304688 L 565.050781 571.304688 C 565.679688 571.304688 566.191406 571.8125 566.191406 572.441406 Z M 563.914062 573.582031 C 543.90625 573.582031 266.835938 573.582031 246.828125 573.582031 L 246.828125 588.574219 C 266.835938 588.574219 543.90625 588.574219 563.914062 588.574219 Z M 563.914062 573.582031 " fill-opacity="1" fill-rule="evenodd"/><path fill="#000000" d="M 540.332031 492.25 L 540.332031 512.652344 C 540.332031 513.277344 539.820312 513.78125 539.195312 513.78125 L 271.597656 513.78125 C 270.96875 513.78125 270.457031 513.277344 270.457031 512.652344 L 270.457031 492.25 C 270.457031 491.628906 270.96875 491.121094 271.597656 491.121094 L 539.195312 491.121094 C 539.820312 491.121094 540.332031 491.628906 540.332031 492.25 Z M 538.054688 493.398438 L 272.734375 493.398438 L 272.734375 511.507812 L 538.054688 511.507812 Z M 538.054688 493.398438 " fill-opacity="1" fill-rule="evenodd"/><path fill="#000000" d="M 459.546875 695.210938 C 459.546875 725.695312 458.976562 802.632812 458.976562 802.632812 C 458.96875 803.265625 458.457031 803.761719 457.835938 803.761719 L 351.554688 803.761719 C 351.25 803.761719 350.957031 803.644531 350.738281 803.429688 C 350.527344 803.210938 350.410156 802.921875 350.410156 802.621094 C 350.410156 802.621094 350.976562 723.144531 350.976562 695.210938 C 350.976562 688.105469 355.824219 680.125 362.726562 672.492188 C 378.417969 655.15625 404.566406 639.4375 404.566406 639.4375 C 404.921875 639.21875 405.378906 639.21875 405.738281 639.429688 C 405.738281 639.429688 431.988281 655.164062 447.742188 672.503906 C 454.679688 680.136719 459.546875 688.113281 459.546875 695.210938 Z M 457.265625 695.210938 C 457.265625 688.566406 452.546875 681.175781 446.058594 674.035156 C 431.878906 658.433594 409.085938 644.152344 405.152344 641.746094 C 401.234375 644.152344 378.535156 658.421875 364.417969 674.023438 C 357.957031 681.167969 353.265625 688.554688 353.265625 695.210938 C 353.265625 721.167969 352.769531 791.640625 352.695312 801.492188 L 456.699219 801.492188 C 456.773438 791.875 457.265625 723.515625 457.265625 695.210938 Z M 457.265625 695.210938 " fill-opacity="1" fill-rule="evenodd"/><path fill="#000000" d="M 544.585938 721.660156 C 544.585938 744.738281 544.222656 802.976562 544.222656 802.976562 C 544.214844 803.605469 543.707031 804.113281 543.082031 804.113281 L 475.1875 804.113281 C 474.886719 804.113281 474.59375 803.988281 474.382812 803.777344 C 474.164062 803.558594 474.050781 803.269531 474.050781 802.960938 C 474.050781 802.960938 474.410156 742.804688 474.410156 721.660156 C 474.410156 716.246094 477.519531 710.171875 481.964844 704.351562 C 492.015625 691.1875 508.769531 679.246094 508.769531 679.246094 C 509.164062 678.964844 509.691406 678.964844 510.089844 679.246094 C 510.089844 679.246094 526.910156 691.1875 537.003906 704.359375 C 541.464844 710.171875 544.585938 716.25 544.585938 721.660156 Z M 542.304688 721.660156 C 542.304688 714.949219 536.953125 707.230469 530.632812 700.335938 C 522.261719 691.195312 512.085938 683.53125 509.429688 681.585938 C 506.78125 683.53125 496.652344 691.195312 488.316406 700.328125 C 482.027344 707.226562 476.691406 714.941406 476.691406 721.660156 C 476.691406 741.082031 476.386719 793.421875 476.335938 801.832031 L 541.949219 801.832031 C 542 793.613281 542.304688 742.832031 542.304688 721.660156 Z M 542.304688 721.660156 " fill-opacity="1" fill-rule="evenodd"/><path fill="#000000" d="M 336.25 720.96875 C 336.25 744.242188 335.886719 802.976562 335.886719 802.976562 C 335.882812 803.605469 335.375 804.109375 334.75 804.109375 L 266.855469 804.109375 C 266.550781 804.109375 266.257812 803.992188 266.046875 803.777344 C 265.832031 803.5625 265.714844 803.265625 265.714844 802.960938 C 265.714844 802.960938 266.078125 742.292969 266.078125 720.96875 C 266.078125 715.507812 269.1875 709.390625 273.621094 703.523438 C 283.675781 690.246094 300.425781 678.203125 300.425781 678.203125 C 300.824219 677.921875 301.363281 677.921875 301.757812 678.203125 C 301.757812 678.203125 318.574219 690.25 328.667969 703.53125 C 333.128906 709.390625 336.25 715.515625 336.25 720.96875 Z M 333.972656 720.96875 C 333.972656 714.195312 328.617188 706.414062 322.292969 699.453125 C 313.929688 690.238281 303.757812 682.515625 301.09375 680.546875 C 298.441406 682.515625 288.316406 690.238281 279.988281 699.445312 C 273.691406 706.40625 268.355469 714.195312 268.355469 720.96875 C 268.355469 740.566406 268.050781 793.382812 268 801.835938 L 333.613281 801.835938 C 333.667969 793.574219 333.972656 742.328125 333.972656 720.96875 Z M 333.972656 720.96875 " fill-opacity="1" fill-rule="evenodd"/><path fill="#000000" d="M 672.601562 802.96875 L 672.601562 817.289062 C 672.601562 817.910156 672.09375 818.421875 671.464844 818.421875 L 138.480469 818.421875 C 137.851562 818.421875 137.34375 817.910156 137.34375 817.289062 L 137.34375 802.96875 C 137.34375 802.347656 137.851562 801.835938 138.480469 801.835938 L 671.464844 801.835938 C 672.09375 801.835938 672.601562 802.347656 672.601562 802.96875 Z M 670.324219 804.113281 C 670.324219 804.113281 139.621094 804.113281 139.621094 804.113281 C 139.621094 804.113281 139.621094 816.144531 139.621094 816.144531 C 139.621094 816.144531 670.324219 816.144531 670.324219 816.144531 Z M 670.324219 804.113281 " fill-opacity="1" fill-rule="evenodd"/><g clip-path="url(#dfbed76d00)"><path fill="#000000" d="M 700.4375 817.28125 L 700.4375 831.601562 C 700.4375 832.222656 699.925781 832.734375 699.292969 832.734375 L 110.648438 832.734375 C 110.015625 832.734375 109.503906 832.222656 109.503906 831.601562 L 109.503906 817.28125 C 109.503906 816.65625 110.015625 816.144531 110.648438 816.144531 L 699.292969 816.144531 C 699.925781 816.144531 700.4375 816.65625 700.4375 817.28125 Z M 698.15625 818.425781 C 698.15625 818.425781 111.785156 818.425781 111.785156 818.425781 L 111.785156 830.457031 C 111.785156 830.457031 698.15625 830.457031 698.15625 830.457031 Z M 698.15625 818.425781 " fill-opacity="1" fill-rule="evenodd"/></g><g clip-path="url(#2a0e5caca7)"><path fill="#000000" d="M 543.648438 493.398438 L 267.078125 493.398438 C 266.664062 493.398438 266.28125 493.175781 266.078125 492.8125 C 251.972656 467.597656 244.539062 438.996094 244.539062 409.875 C 244.539062 387.03125 253.8125 364.316406 268.246094 343.640625 C 289.78125 312.757812 322.796875 286.382812 353.269531 270.792969 C 382.722656 255.71875 404.585938 235.6875 404.585938 235.6875 C 405.015625 235.300781 405.660156 235.285156 406.101562 235.65625 C 406.101562 235.65625 432.515625 257.996094 456.761719 270.796875 C 487.019531 286.773438 520.324219 313.066406 542.132812 343.8125 C 556.742188 364.417969 566.191406 387.03125 566.191406 409.875 C 566.191406 438.996094 558.761719 467.597656 544.648438 492.8125 C 544.449219 493.175781 544.066406 493.398438 543.648438 493.398438 Z M 542.984375 491.113281 C 556.6875 466.386719 563.902344 438.378906 563.902344 409.875 C 563.902344 387.476562 554.59375 365.339844 540.261719 345.136719 C 518.671875 314.679688 485.675781 288.644531 455.699219 272.820312 C 433.695312 261.199219 409.914062 241.792969 405.390625 238.042969 C 401.304688 241.660156 380.863281 259.242188 354.316406 272.828125 C 324.140625 288.261719 291.445312 314.371094 270.125 344.945312 C 255.972656 365.230469 246.820312 387.476562 246.820312 409.875 C 246.820312 438.378906 254.035156 466.386719 267.75 491.113281 Z M 542.984375 491.113281 " fill-opacity="1" fill-rule="evenodd"/></g></svg>